SplineFontDB: 3.0
FontName: Comme-Bold
FullName: Comme Bold
FamilyName: Comme
Weight: Bold
Copyright: Digitized data Copyright (c) 2011-2014, vernon adams.
Version: 2
ItalicAngle: 0
UnderlinePosition: 0
UnderlineWidth: 0
Ascent: 1638
Descent: 410
UFOAscent: 1560
UFODescent: -556
LayerCount: 2
Layer: 0 0 "Back"  1
Layer: 1 0 "Fore"  0
OS2Version: 0
OS2_WeightWidthSlopeOnly: 0
OS2_UseTypoMetrics: 0
CreationTime: 1390956396
ModificationTime: 1390956782
PfmFamily: 0
TTFWeight: 100
TTFWidth: 5
LineGap: 0
VLineGap: 0
OS2TypoAscent: 2416
OS2TypoAOffset: 0
OS2TypoDescent: -512
OS2TypoDOffset: 0
OS2TypoLinegap: 0
OS2WinAscent: 2416
OS2WinAOffset: 0
OS2WinDescent: 512
OS2WinDOffset: 0
HheadAscent: 0
HheadAOffset: 1
HheadDescent: 0
HheadDOffset: 1
OS2Vendor: 'NeWT'
Lookup: 4 0 1 "ligaStandardLigatureslookup0"  {"ligaStandardLigatureslookup0 subtable"  } ['liga' ('latn' <'dflt' > 'grek' <'dflt' > 'DFLT' <'dflt' > ) ]
DEI: 91125
LangName: 1033 "" "" "" "" "" "Version 2" "" "Comme is a trademark of Vernon Adams and may be registered in certain jurisdictions." "newtypography" "Vernon Adams" "" "newtypography.co.uk" "newtypography.co.uk" "Copyright (c) 2014, vernon adams.+AAoACgAA-This Font Software is licensed under the SIL Open Font License, Version 1.1.+AAoA-This license is available with a FAQ at:+AAoA-http://scripts.sil.org/OFL+AAoA" "http://scripts.sil.org/OFL" "" "Comme" "Bold" 
PickledData: "(dp1
S'public.glyphOrder'
p2
(S'A'
S'Agrave'
S'Aacute'
S'Acircumflex'
S'Atilde'
S'Adieresis'
S'Aring'
S'Amacron'
S'Abreve'
S'Aogonek'
S'uni01CD'
S'uni0200'
S'uni0202'
S'uni0226'
S'B'
S'uni1E02'
S'C'
S'Ccedilla'
S'Cacute'
S'Ccircumflex'
S'Cdotaccent'
S'Ccaron'
S'D'
S'Dcaron'
S'uni1E0A'
S'E'
S'Egrave'
S'Eacute'
S'Ecircumflex'
S'Edieresis'
S'Emacron'
S'Ebreve'
S'Edotaccent'
S'Eogonek'
S'Ecaron'
S'uni0204'
S'uni0206'
S'uni0228'
S'uni1EBC'
S'F'
S'uni1E1E'
S'G'
S'Gcircumflex'
S'Gbreve'
S'Gdotaccent'
S'Gcommaaccent'
S'Gcaron'
S'uni01F4'
S'H'
S'Hcircumflex'
S'uni021E'
S'I'
S'Igrave'
S'Iacute'

StartChar: A
Encoding: 65 65 0
Width: 1502
VWidth: 0
GlyphClass: 2
Flags: HW
PickledData: "(dp1
S'org.pippin.gimp.org.kernagic'
p2
(dp3
S'lstem'
p4
I0
sS'rstem'
p5
I0
ssS'com.typemytype.robofont.layerData'
p6
(dp7
sS'org.robofab.postScriptHintData'
p8
(dp9
s."
AnchorPoint: "bot" 755 0 basechar 0
AnchorPoint: "ogonek" 1288 0 basechar 0
AnchorPoint: "top" 756 1456 basechar 0
LayerCount: 2
Fore
SplineSet
574 591 m 1
 928 591 l 1
 752 1188 l 1
 574 591 l 1
556 1456 m 1
 949 1456 l 1
 1446 0 l 1
 1120 0 l 1
 986 389 l 1
 511 389 l 1
 382 0 l 1
 56 0 l 1
 556 1456 l 1
EndSplineSet
EndChar

StartChar: AE
Encoding: 198 198 1
Width: 1913
VWidth: 0
GlyphClass: 2
Flags: HW
PickledData: "(dp1
S'org.pippin.gimp.org.kernagic'
p2
(dp3
S'lstem'
p4
I0
sS'rstem'
p5
I0
ssS'com.typemytype.robofont.layerData'
p6
(dp7
sS'org.robofab.postScriptHintData'
p8
(dp9
s."
LayerCount: 2
Fore
SplineSet
840 1456 m 1
 1797 1456 l 1
 1781 1244 l 1
 1167 1244 l 1
 1167 850 l 1
 1749 850 l 1
 1749 637 l 1
 1167 637 l 1
 1167 218 l 1
 1818 218 l 1
 1808 0 l 1
 909 0 l 1
 909 389 l 1
 521 389 l 1
 302 0 l 1
 -20 0 l 1
 840 1456 l 1
909 583 m 1
 909 1121 l 1
 613 583 l 1
 909 583 l 1
EndSplineSet
EndChar

StartChar: B
Encoding: 66 66 13
Width: 1423
VWidth: 0
GlyphClass: 2
Flags: HW
PickledData: "(dp1
S'org.pippin.gimp.org.kernagic'
p2
(dp3
S'lstem'
p4
I0
sS'rstem'
p5
I0
ssS'com.typemytype.robofont.layerData'
p6
(dp7
sS'org.robofab.postScriptHintData'
p8
(dp9
s."
AnchorPoint: "top" 687 1456 basechar 0
LayerCount: 2
Fore
SplineSet
505 672 m 1
 505 218 l 1
 545 215 588 213 628 213 c 0
 926 213 1001 280 1001 451 c 0
 1001 632 898 672 688 672 c 2
 505 672 l 1
505 1257 m 1
 505 868 l 1
 695 868 l 2
 843 868 949 912 949 1057 c 0
 949 1218 867 1261 644 1261 c 0
 600 1261 550 1260 505 1257 c 1
594 -1 m 0
 476 -1 338 4 181 16 c 1
 181 1448 l 1
 348 1460 496 1466 622 1466 c 0
 1037 1466 1282 1399 1282 1088 c 0
 1282 946 1187 839 1009 784 c 1
 1229 738 1324 633 1324 433 c 0
 1324 144 1167 -1 594 -1 c 0
EndSplineSet
EndChar

StartChar: C
Encoding: 67 67 14
Width: 1545
VWidth: 0
GlyphClass: 2
Flags: HW
PickledData: "(dp1
S'org.pippin.gimp.org.kernagic'
p2
(dp3
S'lstem'
p4
I0
sS'rstem'
p5
I0
ssS'com.typemytype.robofont.layerData'
p6
(dp7
sS'org.robofab.postScriptHintData'
p8
(dp9
s."
AnchorPoint: "bot" 840 0 basechar 0
AnchorPoint: "top" 849 1456 basechar 0
LayerCount: 2
Fore
SplineSet
1442 1047 m 1
 1204 953 l 1
 1180 953 l 1
 1145 1093 1041 1249 858 1249 c 0
 612 1249 470 1101 470 732 c 0
 470 358 624 207 841 207 c 0
 1036 207 1146 355 1181 502 c 1
 1206 502 l 1
 1443 407 l 1
 1401 214 1229 -20 836 -20 c 0
 394 -20 127 249 127 732 c 0
 127 1205 393 1476 834 1476 c 0
 1218 1476 1400 1240 1442 1047 c 1
EndSplineSet
EndChar

StartChar: D
Encoding: 68 68 21
Width: 1538
VWidth: 0
GlyphClass: 2
Flags: HW
PickledData: "(dp1
S'org.pippin.gimp.org.kernagic'
p2
(dp3
S'lstem'
p4
I0
sS'rstem'
p5
I0
ssS'com.typemytype.robofont.layerData'
p6
(dp7
sS'com.fontlab.hintData'
p8
(dp9
S'vhints'
p10
((dp11
S'position'
p12
I1280
sS'width'
p13
I122
stp14
sS'hhints'
p15
((dp16
g12
I0
sg13
I94
s(dp17
g12
I1355
sg13
I94
stp18
ssS'org.robofab.postScriptHintData'
p19
(dp20
s."
HStem: 0 94 1355 94
VStem: 1280 122
AnchorPoint: "mid" 358 753 basechar 0
AnchorPoint: "bot" 772 0 basechar 0
AnchorPoint: "top" 790 1456 basechar 0
LayerCount: 2
Fore
SplineSet
505 222 m 1
 533 220 560 219 585 219 c 0
 980 219 1096 428 1096 749 c 0
 1096 1028 1032 1247 602 1247 c 0
 572 1247 539 1245 505 1243 c 1
 505 222 l 1
181 7 m 1
 181 1448 l 1
 315 1460 436 1466 544 1466 c 0
 1200 1466 1411 1242 1411 754 c 0
 1411 300 1196 -11 499 -11 c 0
 402 -11 297 -5 181 7 c 1
EndSplineSet
EndChar

StartChar: Delta
Encoding: 916 916 24
Width: 1334
VWidth: 0
GlyphClass: 2
Flags: HW
PickledData: "(dp1
S'org.pippin.gimp.org.kernagic'
p2
(dp3
S'lstem'
p4
I0
sS'rstem'
p5
I0
ssS'com.typemytype.robofont.layerData'
p6
(dp7
S'b'
(dp8
S'name'
p9
S'Delta'
p10
sS'lib'
p11
(dp12
sS'unicodes'
p13
(tsS'width'
p14
I1334
sS'contours'
p15
(tsS'components'
p16
(tsS'anchors'
p17
(tsssS'org.robofab.postScriptHintData'
p18
(dp19
s."
LayerCount: 2
Fore
SplineSet
25 0 m 1
 541 1515 l 1
 764 1515 l 1
 1282 0 l 1
 25 0 l 1
309 193 m 1
 1002 193 l 1
 652 1265 l 1
 309 193 l 1
EndSplineSet
EndChar

StartChar: E
Encoding: 69 69 25
Width: 1345
VWidth: 0
GlyphClass: 2
Flags: HW
PickledData: "(dp1
S'org.pippin.gimp.org.kernagic'
p2
(dp3
S'lstem'
p4
I0
sS'rstem'
p5
I0
ssS'com.typemytype.robofont.layerData'
p6
(dp7
sS'org.robofab.postScriptHintData'
p8
(dp9
s."
AnchorPoint: "bot" 679 0 basechar 0
AnchorPoint: "ogonek" 952 0 basechar 0
AnchorPoint: "top" 751 1456 basechar 0
LayerCount: 2
Fore
SplineSet
181 1456 m 1
 1198 1456 l 1
 1182 1236 l 1
 505 1236 l 1
 505 858 l 1
 1152 858 l 1
 1152 637 l 1
 505 637 l 1
 505 226 l 1
 1217 226 l 1
 1210 0 l 1
 181 0 l 1
 181 1456 l 1
EndSplineSet
EndChar

StartChar: Eng
Encoding: 330 330 34
Width: 1600
VWidth: 0
GlyphClass: 2
Flags: HW
PickledData: "(dp1
S'org.robofab.postScriptHintData'
p2
(dp3
s."
LayerCount: 2
Fore
SplineSet
1121 1456 m 1
 1422 1456 l 1
 1422 -41 l 2
 1422 -353 1277 -471 831 -484 c 1
 813 -284 l 1
 1076.89656192 -284 1119.16344303 -239.100883628 1120.93950495 -27.9209394831 c 1
 472 981 l 1
 489 593 l 1
 489 0 l 1
 181 0 l 1
 181 1456 l 1
 490 1456 l 1
 1121 466.521671827 l 1
 1121 1456 l 1
EndSplineSet
EndChar

StartChar: Euro
Encoding: 8364 8364 37
Width: 1391
VWidth: 0
GlyphClass: 2
Flags: HW
PickledData: "(dp1
S'org.pippin.gimp.org.kernagic'
p2
(dp3
S'lstem'
p4
I0
sS'rstem'
p5
I0
ssS'com.typemytype.robofont.layerData'
p6
(dp7
S'b'
(dp8
S'name'
p9
S'Euro'
p10
sS'lib'
p11
(dp12
sS'unicodes'
p13
(tsS'width'
p14
I1391
sS'contours'
p15
(tsS'components'
p16
(tsS'anchors'
p17
(tsssS'org.robofab.postScriptHintData'
p18
(dp19
s."
LayerCount: 2
Fore
SplineSet
-78 527 m 1
 -78 668 l 1
 79.6187917812 668 l 1
 78.5424051849 688.895239292 78 710.230251276 78 732 c 0
 78 757.245604496 78.7577586515 781.915768212 80.2594398035 806 c 1
 -77 806 l 1
 -75 948 l 1
 99.0380221719 948 l 1
 169.900133091 1286.55715433 416.28309608 1476 785 1476 c 0
 1169 1476 1351 1240 1393 1047 c 1
 1155 953 l 1
 1131 953 l 1
 1096 1093 992 1249 809 1249 c 0
 618.247356932 1249 490.026992387 1160.01175749 442.055897507 948 c 1
 809 948 l 1
 806 806 l 1
 423.058898084 806 l 1
 421.690595372 782.391627448 421 757.733213644 421 732 c 0
 421 709.892433358 421.538095552 688.564057029 422.595491349 668 c 1
 806 668 l 1
 805 527 l 1
 440.152090627 527 l 1
 487.758172234 301.739380676 620.11557293 207 792 207 c 0
 987 207 1097 355 1132 502 c 1
 1157 502 l 1
 1394 407 l 1
 1352 214 1180 -20 787 -20 c 0
 412.105480297 -20 163.106891564 173.520031034 96.1411168113 527 c 1
 -78 527 l 1
EndSplineSet
EndChar

StartChar: F
Encoding: 70 70 38
Width: 1243
VWidth: 0
GlyphClass: 2
Flags: HW
PickledData: "(dp1
S'org.pippin.gimp.org.kernagic'
p2
(dp3
S'lstem'
p4
I0
sS'rstem'
p5
I705
ssS'com.typemytype.robofont.layerData'
p6
(dp7
sS'org.robofab.postScriptHintData'
p8
(dp9
s."
AnchorPoint: "top" 730 1456 basechar 0
LayerCount: 2
Fore
SplineSet
181 1456 m 1
 1178 1456 l 1
 1163 1227 l 1
 505 1227 l 1
 505 829 l 1
 1118 829 l 1
 1118 610 l 1
 505 610 l 1
 505 0 l 1
 181 0 l 1
 181 1456 l 1
EndSplineSet
EndChar

StartChar: G
Encoding: 71 71 39
Width: 1559
VWidth: 0
GlyphClass: 2
Flags: HW
PickledData: "(dp1
S'org.pippin.gimp.org.kernagic'
p2
(dp3
S'lstem'
p4
I0
sS'rstem'
p5
I0
ssS'com.typemytype.robofont.layerData'
p6
(dp7
sS'org.robofab.postScriptHintData'
p8
(dp9
s."
AnchorPoint: "bot" 773 0 basechar 0
AnchorPoint: "top" 825 1456 basechar 0
LayerCount: 2
Fore
SplineSet
835 -20 m 0
 388 -20 127 256 127 730 c 0
 127 1200 399 1476 844 1476 c 0
 1153 1476 1335 1347 1417 1171 c 1
 1211 1047 l 1
 1187 1047 l 1
 1133 1145 1044 1249 870 1249 c 0
 605 1249 470 1077 470 730 c 0
 470 344 635 206 888 206 c 0
 995 206 1079 224 1140 246 c 1
 1140 579 l 1
 829 600 l 1
 838 806 l 1
 1412 806 l 1
 1412 81 l 1
 1257 11 1067 -20 835 -20 c 0
EndSplineSet
EndChar

StartChar: H
Encoding: 72 72 45
Width: 1578
VWidth: 0
GlyphClass: 2
Flags: HW
PickledData: "(dp1
S'org.pippin.gimp.org.kernagic'
p2
(dp3
S'lstem'
p4
I0
sS'rstem'
p5
I0
ssS'com.typemytype.robofont.layerData'
p6
(dp7
sS'org.robofab.postScriptHintData'
p8
(dp9
s."
AnchorPoint: "top" 801 1456 basechar 0
LayerCount: 2
Fore
SplineSet
1071 636 m 1
 507 636 l 1
 507 -4 l 1
 182 -4 l 1
 182 1456 l 1
 507 1456 l 1
 507 857 l 1
 1071 857 l 1
 1071 1456 l 1
 1396 1456 l 1
 1396 -4 l 1
 1071 -4 l 1
 1071 636 l 1
EndSplineSet
EndChar

StartChar: Hbar
Encoding: 294 294 46
Width: 1558
VWidth: 0
GlyphClass: 2
Flags: HW
PickledData: "(dp1
S'org.pippin.gimp.org.kernagic'
p2
(dp3
S'lstem'
p4
I0
sS'rstem'
p5
I0
ssS'com.typemytype.robofont.layerData'
p6
(dp7
sS'org.robofab.postScriptHintData'
p8
(dp9
s."
LayerCount: 2
Fore
SplineSet
74 1286 m 5
 74 1109 l 5
 1501 1109 l 5
 1501 1286 l 5
 74 1286 l 5
EndSplineSet
Refer: 45 72 N 1 0 0 1 0 0 2
EndChar

StartChar: I
Encoding: 73 73 48
Width: 1028
VWidth: 0
GlyphClass: 2
Flags: HW
PickledData: "(dp1
S'org.pippin.gimp.org.kernagic'
p2
(dp3
S'lstem'
p4
I0
sS'rstem'
p5
I0
ssS'com.typemytype.robofont.layerData'
p6
(dp7
sS'com.fontlab.hintData'
p8
(dp9
S'vhints'
p10
((dp11
S'position'
p12
I111
sS'width'
p13
I529
stp14
sS'hhints'
p15
((dp16
g12
I0
sg13
I86
s(dp17
g12
I1363
sg13
I86
stp18
ssS'org.robofab.postScriptHintData'
p19
(dp20
s."
HStem: 0 86 1363 86
VStem: 111 529
AnchorPoint: "ogonek" 528 0 basechar 0
AnchorPoint: "top" 515 1456 basechar 0
LayerCount: 2
Fore
SplineSet
141 1456 m 1
 883 1456 l 1
 883 1278 l 1
 677 1278 l 1
 677 174 l 1
 883 174 l 1
 883 -4 l 1
 141 -4 l 1
 141 174 l 1
 353 174 l 1
 353 1278 l 1
 141 1278 l 1
 141 1456 l 1
EndSplineSet
EndChar

StartChar: J
Encoding: 74 74 59
Width: 811
VWidth: 0
GlyphClass: 2
Flags: HW
PickledData: "(dp1
S'org.pippin.gimp.org.kernagic'
p2
(dp3
S'lstem'
p4
I132
sS'rstem'
p5
I0
ssS'com.typemytype.robofont.layerData'
p6
(dp7
sS'org.robofab.postScriptHintData'
p8
(dp9
s."
AnchorPoint: "top" 462 1456 basechar 0
LayerCount: 2
Fore
SplineSet
295 1456 m 1
 619 1456 l 1
 619 198 l 1
 619 141 l 2
 619 -202 610 -318 257 -469 c 2
 114 -530 l 1
 3 -282 l 1
 176 -200 l 2
 287 -148 295 -100 295 205 c 2
 295 1456 l 1
EndSplineSet
EndChar

StartChar: K
Encoding: 75 75 61
Width: 1412
VWidth: 0
GlyphClass: 2
Flags: HW
PickledData: "(dp1
S'org.pippin.gimp.org.kernagic'
p2
(dp3
S'lstem'
p4
I0
sS'rstem'
p5
I851
ssS'com.typemytype.robofont.layerData'
p6
(dp7
sS'org.robofab.postScriptHintData'
p8
(dp9
s."
AnchorPoint: "bot" 751 0 basechar 0
AnchorPoint: "top" 752 1456 basechar 0
LayerCount: 2
Fore
SplineSet
1367 1456 m 1
 1367 1448 l 1
 826 806 l 1
 1417 10 l 1
 1417 0 l 1
 1054 0 l 1
 587 633 l 1
 505 542 l 1
 505 0 l 1
 181 0 l 1
 181 1456 l 1
 505 1456 l 1
 505 855 l 1
 1011 1456 l 1
 1367 1456 l 1
EndSplineSet
EndChar

StartChar: L
Encoding: 76 76 63
Width: 1174
VWidth: 0
GlyphClass: 2
Flags: HW
PickledData: "(dp1
S'org.pippin.gimp.org.kernagic'
p2
(dp3
S'lstem'
p4
I0
sS'rstem'
p5
I597
ssS'com.typemytype.robofont.layerData'
p6
(dp7
sS'org.robofab.postScriptHintData'
p8
(dp9
s."
AnchorPoint: "mid" 365 796 basechar 0
AnchorPoint: "bot" 579 0 basechar 0
AnchorPoint: "top" 394 1456 basechar 0
LayerCount: 2
Fore
SplineSet
181 1456 m 1
 505 1456 l 1
 505 211 l 1
 1161 211 l 1
 1145 0 l 1
 181 0 l 1
 181 1456 l 1
EndSplineSet
EndChar

StartChar: M
Encoding: 77 77 69
Width: 1878
VWidth: 0
GlyphClass: 2
Flags: HW
PickledData: "(dp1
S'org.pippin.gimp.org.kernagic'
p2
(dp3
S'lstem'
p4
I0
sS'rstem'
p5
I0
ssS'com.typemytype.robofont.guides'
p6
((dp7
S'y'
I378
sS'x'
I548
sS'magnetic'
p8
I5
sS'angle'
p9
I0
sS'isGlobal'
p10
I00
stp11
sS'com.typemytype.robofont.layerData'
p12
(dp13
sS'com.fontlab.hintData'
p14
(dp15
S'vhints'
p16
((dp17
S'position'
p18
I185
sS'width'
p19
I166
s(dp20
g18
I214
sg19
I151
s(dp21
g18
I332
sg19
I33
s(dp22
g18
I1463
sg19
I149
s(dp23
g18
I1463
sg19
I39
s(dp24
g18
I1477
sg19
I164
stp25
ssS'org.robofab.postScriptHintData'
p26
(dp27
s."
VStem: 185 166 214 151 332 33 1463 149 1463 39 1477 164
AnchorPoint: "top" 944 1456 basechar 0
LayerCount: 2
Fore
SplineSet
162 -4 m 1
 162 574 l 1
 185 1456 l 1
 524 1456 l 1
 943 584 l 1
 1361 1456 l 1
 1693 1456 l 1
 1716 580 l 1
 1716 -4 l 1
 1411 -4 l 1
 1411 535 l 1
 1403 983 l 1
 1039 218 l 1
 832 218 l 1
 474 987 l 1
 465 532 l 1
 465 -4 l 1
 162 -4 l 1
EndSplineSet
EndChar

StartChar: N
Encoding: 78 78 70
Width: 1603
VWidth: 0
GlyphClass: 2
Flags: HW
PickledData: "(dp1
S'org.pippin.gimp.org.kernagic'
p2
(dp3
S'lstem'
p4
I0
sS'rstem'
p5
I0
ssS'com.typemytype.robofont.layerData'
p6
(dp7
sS'org.robofab.postScriptHintData'
p8
(dp9
s."
AnchorPoint: "bot" 777 0 basechar 0
AnchorPoint: "top" 770 1456 basechar 0
LayerCount: 2
Fore
SplineSet
1121 1456 m 1
 1422 1456 l 1
 1422 0 l 1
 1101 0 l 1
 472 981 l 1
 489 593 l 1
 489 0 l 1
 181 0 l 1
 181 1456 l 1
 490 1456 l 1
 1136 443 l 1
 1121 832 l 1
 1121 1456 l 1
EndSplineSet
EndChar

StartChar: O
Encoding: 79 79 75
Width: 1649
VWidth: 0
GlyphClass: 2
Flags: HW
PickledData: "(dp1
S'org.pippin.gimp.org.kernagic'
p2
(dp3
S'lstem'
p4
I0
sS'rstem'
p5
I0
ssS'com.typemytype.robofont.guides'
p6
(tsS'com.typemytype.robofont.layerData'
p7
(dp8
sS'com.fontlab.hintData'
p9
(dp10
S'vhints'
p11
((dp12
S'position'
p13
I150
sS'width'
p14
I122
s(dp15
g13
I1390
sg14
I122
stp16
sS'hhints'
p17
((dp18
g13
I-19
sg14
I96
s(dp19
g13
I1372
sg14
I96
stp20
ssS'org.robofab.postScriptHintData'
p21
(dp22
s."
HStem: -19 96 1372 96
VStem: 150 122 1390 122
AnchorPoint: "ogonek" 830 0 basechar 0
AnchorPoint: "top" 819 1456 basechar 0
LayerCount: 2
Fore
SplineSet
128 722 m 0
 128 1195 375 1476 826 1476 c 0
 1275 1476 1521 1194 1521 723 c 0
 1521 254 1280 -21 826 -21 c 0
 373 -21 128 253 128 722 c 0
1177 721 m 0
 1177 1041 1067 1239 826 1239 c 0
 588 1239 472 1042 472 721 c 0
 472 404 584 215 826 215 c 0
 1068 215 1177 405 1177 721 c 0
EndSplineSet
EndChar

StartChar: OE
Encoding: 338 338 76
Width: 2269
VWidth: 0
GlyphClass: 2
Flags: HW
PickledData: "(dp1
S'org.pippin.gimp.org.kernagic'
p2
(dp3
S'lstem'
p4
I0
sS'rstem'
p5
I0
ssS'com.typemytype.robofont.layerData'
p6
(dp7
S'b'
(dp8
S'name'
p9
S'OE'
p10
sS'lib'
p11
(dp12
sS'unicodes'
p13
(tsS'width'
p14
I2367
sS'contours'
p15
(tsS'components'
p16
(tsS'anchors'
p17
(tsssS'org.robofab.postScriptHintData'
p18
(dp19
s."
LayerCount: 2
Fore
SplineSet
92 726 m 0
 92 1208 333 1481 761 1481 c 0
 935 1481 1052 1441 1142 1364 c 1
 1142 1456 l 1
 2111 1456 l 1
 2096 1244 l 1
 1407 1244 l 1
 1407 854 l 1
 2064 854 l 1
 2064 641 l 1
 1407 641 l 1
 1407 218 l 1
 2129 218 l 1
 2123 0 l 1
 1142 0 l 1
 1142 97 l 1
 1053 22 934 -17 761 -17 c 0
 330 -17 92 254 92 726 c 0
1141 725 m 0
 1141 1048 1028 1253 761 1253 c 0
 496 1253 377 1049 377 725 c 0
 377 411 492 211 761 211 c 0
 1030 211 1141 411 1141 725 c 0
EndSplineSet
EndChar

StartChar: Oslash
Encoding: 216 216 84
Width: 1651
VWidth: 0
GlyphClass: 2
Flags: HW
PickledData: "(dp1
S'org.pippin.gimp.org.kernagic'
p2
(dp3
S'lstem'
p4
I0
sS'rstem'
p5
I0
ssS'com.typemytype.robofont.layerData'
p6
(dp7
sS'org.robofab.postScriptHintData'
p8
(dp9
s."
AnchorPoint: "top" 826 1456 basechar 0
LayerCount: 2
Fore
SplineSet
535 -255 m 1
 407 -208 l 1
 500 39 l 1
 256 144 128 382 128 722 c 0
 128 1195 375 1476 826 1476 c 0
 902 1476 972 1468 1036 1451 c 1
 1137 1719 l 1
 1271 1667 l 1
 1171 1404 l 1
 1399 1292 1521 1054 1521 723 c 0
 1521 254 1280 -21 826 -21 c 0
 757 -21 692 -15 631 -2 c 1
 535 -255 l 1
603 309 m 1
 948 1219 l 1
 912 1232 871 1239 826 1239 c 0
 588 1239 472 1042 472 721 c 0
 472 535 512 390 603 309 c 1
826 215 m 0
 1068 215 1177 405 1177 721 c 0
 1177 900 1142 1041 1065 1128 c 1
 721 230 l 1
 753 220 788 215 826 215 c 0
EndSplineSet
EndChar

StartChar: P
Encoding: 80 80 87
Width: 1412
VWidth: 0
GlyphClass: 2
Flags: HW
PickledData: "(dp1
S'org.pippin.gimp.org.kernagic'
p2
(dp3
S'lstem'
p4
I0
sS'rstem'
p5
I807
ssS'com.typemytype.robofont.layerData'
p6
(dp7
sS'org.robofab.postScriptHintData'
p8
(dp9
s."
AnchorPoint: "top" 720 1456 basechar 0
LayerCount: 2
Fore
SplineSet
505 751 m 1
 551 748 593 746 631 746 c 0
 960 746 1027 857 1027 1011 c 0
 1027 1156 971 1257 636 1257 c 0
 596 1257 553 1255 505 1252 c 1
 505 751 l 1
181 1448 m 1
 338 1461 476 1467 596 1467 c 0
 1164 1467 1335 1325 1335 1024 c 0
 1335 722 1183 533 667 533 c 0
 617 533 563 534 505 538 c 1
 505 0 l 1
 181 0 l 1
 181 1448 l 1
EndSplineSet
EndChar

StartChar: Q
Encoding: 81 81 88
Width: 1643
VWidth: 0
GlyphClass: 2
Flags: HW
PickledData: "(dp1
S'org.pippin.gimp.org.kernagic'
p2
(dp3
S'lstem'
p4
I0
sS'rstem'
p5
I0
ssS'com.typemytype.robofont.layerData'
p6
(dp7
sS'org.robofab.postScriptHintData'
p8
(dp9
s."
LayerCount: 2
Fore
SplineSet
1177 721 m 0
 1177 405 1068 215 826 215 c 0
 584 215 472 404 472 721 c 0
 472 1042 588 1239 826 1239 c 0
 1067 1239 1177 1041 1177 721 c 0
1114.48445332 24.9644260948 m 1
 1381.3791865 121.439225888 1521 366.023683857 1521 723 c 0
 1521 1194 1275 1476 826 1476 c 0
 375 1476 128 1195 128 722 c 0
 128 253.582960273 372.391315556 -20.3185425823 824.311746651 -20.998730197 c 1
 923.114365459 -169.503648402 1129.70419952 -431.991693674 1222 -508 c 1
 1426 -341 l 1
 1335.70191049 -264.05032372 1200.39638182 -94.619608086 1114.48445332 24.9644260948 c 1
EndSplineSet
EndChar

StartChar: R
Encoding: 82 82 89
Width: 1448
VWidth: 0
GlyphClass: 2
Flags: HW
PickledData: "(dp1
S'org.pippin.gimp.org.kernagic'
p2
(dp3
S'lstem'
p4
I0
sS'rstem'
p5
I839
ssS'com.typemytype.robofont.layerData'
p6
(dp7
sS'com.fontlab.hintData'
p8
(dp9
S'vhints'
p10
((dp11
S'position'
p12
I1122
sS'width'
p13
I117
stp14
sS'hhints'
p15
((dp16
g12
I722
sg13
I96
s(dp17
g12
I1355
sg13
I94
stp18
ssS'org.robofab.postScriptHintData'
p19
(dp20
s."
HStem: 722 96 1355 94
VStem: 1122 117
AnchorPoint: "bot" 739 0 basechar 0
AnchorPoint: "top" 743 1456 basechar 0
LayerCount: 2
Fore
SplineSet
505 1243 m 1
 505 822 l 1
 720 822 l 2
 953 822 1029 880 1029 1049 c 0
 1029 1207 931 1254 722 1254 c 0
 659 1254 587 1250 505 1243 c 1
181 0 m 1
 181 1448 l 1
 386 1465 558 1475 702 1475 c 0
 1155 1475 1325 1373 1325 1046 c 0
 1325 806 1190 710 1045 666 c 1
 1391 17 l 1
 1391 0 l 1
 1039 0 l 1
 722 623 l 1
 505 623 l 1
 505 0 l 1
 181 0 l 1
EndSplineSet
EndChar

StartChar: S
Encoding: 83 83 93
Width: 1226
VWidth: 0
GlyphClass: 2
Flags: HW
PickledData: "(dp1
S'org.pippin.gimp.org.kernagic'
p2
(dp3
S'lstem'
p4
I185
sS'rstem'
p5
I826
ssS'com.typemytype.robofont.guides'
p6
((dp7
S'y'
I973
sS'x'
I1035
sS'magnetic'
p8
I5
sS'angle'
p9
F90
sS'isGlobal'
p10
I00
s(dp11
S'y'
I382
sS'x'
I75
sg8
I5
sg9
F90
sg10
I00
stp12
sS'com.typemytype.robofont.layerData'
p13
(dp14
sS'org.robofab.postScriptHintData'
p15
(dp16
s."
AnchorPoint: "bot" 610 0 basechar 0
AnchorPoint: "top" 619 1463 basechar 0
LayerCount: 2
Fore
SplineSet
608 1476 m 0
 871 1476 1038 1349 1099 1231 c 1
 893 1112 l 1
 872 1112 l 1
 821 1208 715 1257 623 1257 c 0
 515 1257 417 1214 417 1093 c 0
 417 999 463 966 603 910 c 2
 784 837 l 2
 1001 751 1133 666 1133 407 c 0
 1133 115 898 -20 609 -20 c 0
 335 -20 165 103 87 216 c 1
 279 365 l 1
 305 365 l 1
 371 287 487 214 597 214 c 0
 719 214 809 261 809 385 c 0
 809 485 773 527 599 599 c 2
 381 688 l 2
 208 759 98 843 98 1061 c 0
 98 1366 337 1476 608 1476 c 0
EndSplineSet
EndChar

StartChar: T
Encoding: 84 84 99
Width: 1241
VWidth: 0
GlyphClass: 2
Flags: HW
PickledData: "(dp1
S'org.pippin.gimp.org.kernagic'
p2
(dp3
S'lstem'
p4
I285
sS'rstem'
p5
I844
ssS'com.typemytype.robofont.layerData'
p6
(dp7
sS'org.robofab.postScriptHintData'
p8
(dp9
s."
AnchorPoint: "mid" 619 686 basechar 0
AnchorPoint: "bot" 626 0 basechar 0
AnchorPoint: "top" 626 1456 basechar 0
LayerCount: 2
Fore
SplineSet
31 1456 m 1
 1209 1456 l 1
 1209 1245 l 1
 782 1245 l 1
 782 -4 l 1
 458 -4 l 1
 458 1245 l 1
 31 1245 l 1
 31 1456 l 1
EndSplineSet
EndChar

StartChar: Thorn
Encoding: 222 222 104
Width: 1379
VWidth: 0
GlyphClass: 2
Flags: HW
PickledData: "(dp1
S'org.pippin.gimp.org.kernagic'
p2
(dp3
S'lstem'
p4
I0
sS'rstem'
p5
I0
ssS'com.typemytype.robofont.layerData'
p6
(dp7
S'b'
(dp8
S'name'
p9
S'Thorn'
p10
sS'lib'
p11
(dp12
sS'unicodes'
p13
(tsS'width'
p14
I1192
sS'contours'
p15
(tsS'components'
p16
(tsS'anchors'
p17
(tsssS'org.robofab.postScriptHintData'
p18
(dp19
s."
LayerCount: 2
Fore
SplineSet
501 1037 m 1
 501 572 l 1
 612 572 l 2
 892 572 962 665 962 818 c 0
 962 961 899 1037 639 1037 c 2
 634 1037 l 1
 501 1037 l 1
176 0 m 1
 176 1469 l 1
 501 1469 l 1
 501 1246 l 1
 619 1246 l 2
 1088 1246 1276 1126 1276 832 c 0
 1276 527 1117 359 652 359 c 2
 501 359 l 1
 501 0 l 1
 176 0 l 1
EndSplineSet
EndChar

StartChar: U
Encoding: 85 85 105
Width: 1506
VWidth: 0
GlyphClass: 2
Flags: HW
PickledData: "(dp1
S'org.pippin.gimp.org.kernagic'
p2
(dp3
S'lstem'
p4
I0
sS'rstem'
p5
I0
ssS'com.typemytype.robofont.layerData'
p6
(dp7
sS'org.robofab.postScriptHintData'
p8
(dp9
s."
AnchorPoint: "bot" 761 0 basechar 0
AnchorPoint: "ogonek" 844 7 basechar 0
AnchorPoint: "top" 756 1456 basechar 0
LayerCount: 2
Fore
SplineSet
1029 1456 m 1
 1353 1456 l 1
 1353 535 l 2
 1353 196 1149 -20 749 -20 c 0
 348 -20 151 193 151 536 c 2
 151 1456 l 1
 475 1456 l 1
 475 553 l 2
 475 321 563 216 749 216 c 0
 937 216 1029 322 1029 554 c 2
 1029 1456 l 1
EndSplineSet
EndChar

StartChar: V
Encoding: 86 86 116
Width: 1398
VWidth: 0
GlyphClass: 2
Flags: HW
PickledData: "(dp1
S'org.pippin.gimp.org.kernagic'
p2
(dp3
S'lstem'
p4
I0
sS'rstem'
p5
I0
ssS'com.typemytype.robofont.layerData'
p6
(dp7
sS'org.robofab.postScriptHintData'
p8
(dp9
s."
LayerCount: 2
Fore
SplineSet
507 -4 m 1
 28 1456 l 1
 345 1456 l 1
 461 1065 582 680 692 283 c 1
 760 525 l 1
 1052 1456 l 1
 1370 1456 l 1
 861 -4 l 1
 507 -4 l 1
EndSplineSet
EndChar

StartChar: W
Encoding: 87 87 117
Width: 2027
VWidth: 0
GlyphClass: 2
Flags: HW
PickledData: "(dp1
S'org.pippin.gimp.org.kernagic'
p2
(dp3
S'lstem'
p4
I0
sS'rstem'
p5
I0
ssS'com.typemytype.robofont.layerData'
p6
(dp7
sS'org.robofab.postScriptHintData'
p8
(dp9
s."
AnchorPoint: "bot" 1002 0 basechar 0
AnchorPoint: "top" 1020 1456 basechar 0
LayerCount: 2
Fore
SplineSet
1012 1040 m 1
 715 0 l 1
 418 0 l 1
 57 1456 l 1
 366 1456 l 1
 592 423 l 1
 878 1443 l 1
 1144 1443 l 1
 1431 417 l 1
 1656 1456 l 1
 1969 1456 l 1
 1591 0 l 1
 1294 0 l 1
 1012 1040 l 1
EndSplineSet
EndChar

StartChar: X
Encoding: 88 88 122
Width: 1382
VWidth: 0
GlyphClass: 2
Flags: HW
PickledData: "(dp1
S'org.pippin.gimp.org.kernagic'
p2
(dp3
S'lstem'
p4
I0
sS'rstem'
p5
I0
ssS'com.typemytype.robofont.layerData'
p6
(dp7
sS'org.robofab.postScriptHintData'
p8
(dp9
s."
LayerCount: 2
Fore
SplineSet
880 736 m 1
 1372 -4 l 1
 1017 -4 l 1
 679 504 l 1
 342 -4 l 1
 7 -4 l 1
 510 759 l 1
 46 1456 l 1
 401 1456 l 1
 711 990 l 1
 1005 1456 l 1
 1353 1456 l 1
 880 736 l 1
EndSplineSet
EndChar

StartChar: Y
Encoding: 89 89 123
Width: 1353
VWidth: 0
GlyphClass: 2
Flags: HW
PickledData: "(dp1
S'org.pippin.gimp.org.kernagic'
p2
(dp3
S'lstem'
p4
I0
sS'rstem'
p5
I0
ssS'com.typemytype.robofont.layerData'
p6
(dp7
sS'org.robofab.postScriptHintData'
p8
(dp9
s."
AnchorPoint: "top" 679 1456 basechar 0
LayerCount: 2
Fore
SplineSet
838 556 m 1
 838 0 l 1
 514 0 l 1
 514 554 l 1
 23 1456 l 1
 358 1456 l 1
 675 853 l 1
 992 1456 l 1
 1330 1456 l 1
 838 556 l 1
EndSplineSet
EndChar

StartChar: Z
Encoding: 90 90 128
Width: 1243
VWidth: 0
GlyphClass: 2
Flags: HW
PickledData: "(dp1
S'org.pippin.gimp.org.kernagic'
p2
(dp3
S'lstem'
p4
I0
sS'rstem'
p5
I0
ssS'com.typemytype.robofont.layerData'
p6
(dp7
sS'org.robofab.postScriptHintData'
p8
(dp9
s."
AnchorPoint: "bot" 613 0 basechar 0
AnchorPoint: "top" 648 1456 basechar 0
LayerCount: 2
Fore
SplineSet
103 0 m 1
 103 178 l 1
 794 1244 l 1
 130 1244 l 1
 118 1456 l 1
 1144 1456 l 1
 1146 1267 l 1
 484 211 l 1
 1160 211 l 1
 1168 0 l 1
 103 0 l 1
EndSplineSet
EndChar

StartChar: a
Encoding: 97 97 132
Width: 1149
VWidth: 0
GlyphClass: 2
Flags: HW
PickledData: "(dp1
S'org.pippin.gimp.org.kernagic'
p2
(dp3
S'lstem'
p4
I0
sS'rstem'
p5
I0
ssS'com.typemytype.robofont.guides'
p6
(tsS'com.typemytype.robofont.layerData'
p7
(dp8
sS'com.fontlab.hintData'
p9
(dp10
S'vhints'
p11
((dp12
S'position'
p13
I126
sS'width'
p14
I120
s(dp15
g13
I842
sg14
I32
s(dp16
g13
I875
sg14
I86
stp17
sS'hhints'
p18
((dp19
g13
I-15
sg14
I92
s(dp20
g13
I535
sg14
I82
s(dp21
g13
I983
sg14
I92
stp22
ssS'org.robofab.postScriptHintData'
p23
(dp24
s."
HStem: -15 92 535 82 983 92
VStem: 126 120 842 32 875 86
AnchorPoint: "bot" 592 0 basechar 0
AnchorPoint: "ogonek" 898 0 basechar 0
AnchorPoint: "top" 561 1082 basechar 0
LayerCount: 2
Fore
SplineSet
428 -17 m 0
 231 -17 93 90 93 302 c 0
 93 536 310 618 551 618 c 2
 560 618 l 1
 730 617 l 1
 730 705 l 2
 730 835 659 887 538 887 c 0
 440 887 310 853 194 798 c 1
 132 988 l 1
 273 1062 435 1102 583 1102 c 0
 837 1102 1029 976 1029 655 c 2
 1029 0 l 1
 799 0 l 1
 769 122 l 1
 691 40 591 -17 428 -17 c 0
729 252 m 1
 729 470 l 1
 620 470 l 2
 466 470 367 428 367 305 c 0
 367 201 437 157 510 157 c 0
 621 157 687 206 729 252 c 1
EndSplineSet
EndChar

StartChar: acute
Encoding: 180 180 136
Width: 776
VWidth: 0
GlyphClass: 4
Flags: HW
PickledData: "(dp1
S'org.robofab.postScriptHintData'
p2
(dp3
sS'com.typemytype.robofont.layerData'
p4
(dp5
s."
AnchorPoint: "top" 456 1082 mark 0
LayerCount: 2
Fore
SplineSet
364 1208 m 1
 546 1606 l 1
 866 1606 l 1
 539 1208 l 1
 364 1208 l 1
EndSplineSet
EndChar

StartChar: ae
Encoding: 230 230 138
Width: 1724
VWidth: 0
GlyphClass: 2
Flags: HW
PickledData: "(dp1
S'org.pippin.gimp.org.kernagic'
p2
(dp3
S'lstem'
p4
I0
sS'rstem'
p5
I0
ssS'com.typemytype.robofont.layerData'
p6
(dp7
sS'com.fontlab.hintData'
p8
(dp9
S'vhints'
p10
((dp11
S'position'
p12
I126
sS'width'
p13
I119
s(dp14
g12
I817
sg13
I117
s(dp15
g12
I817
sg13
I82
s(dp16
g12
I1556
sg13
I98
stp17
sS'hhints'
p18
((dp19
g12
I-14
sg13
I98
s(dp20
g12
I518
sg13
I82
s(dp21
g12
I983
sg13
I92
stp22
ssS'org.robofab.postScriptHintData'
p23
(dp24
s."
HStem: -14 98 518 82 983 92
VStem: 126 119 817 117 817 82 1556 98
AnchorPoint: "top" 1112 1082 basechar 0
LayerCount: 2
Fore
SplineSet
1646 735 m 0
 1646 494 1411 441 1073 441 c 0
 1044 441 1014 441 983 442 c 1
 1005 221 1132 180 1265 180 c 0
 1399 180 1501 224 1586 276 c 1
 1642 106 l 1
 1557 32 1404 -20 1230 -20 c 0
 1015 -20 907 55 833 159 c 1
 747 38 590 -17 405 -17 c 0
 203 -14 66 87 66 302 c 0
 66 539 281 629 526 629 c 0
 543 629 686 627 716 623 c 1
 716 704 l 2
 716 837 635 886 514 886 c 0
 417 886 290 854 167 795 c 1
 99 976 l 1
 247 1056 399 1101 556 1101 c 0
 724 1101 843 1040 881 923 c 1
 953 1037 1067 1102 1236 1102 c 0
 1530 1102 1646 905 1646 735 c 0
746 304 m 1
 733 331 718 454 718 475 c 1
 690 479 600 480 585 480 c 0
 431 480 341 427 341 305 c 0
 341 198 419 156 491 156 c 0
 639 156 728 231 746 304 c 1
985 613 m 1
 1023 612 1057 611 1089 611 c 0
 1398 611 1435 678 1435 758 c 0
 1435 835 1392 909 1242 909 c 0
 1116 909 997 824 985 613 c 1
EndSplineSet
EndChar

StartChar: ampersand
Encoding: 38 38 143
Width: 1420
VWidth: 0
GlyphClass: 2
Flags: HW
PickledData: "(dp1
S'org.pippin.gimp.org.kernagic'
p2
(dp3
S'lstem'
p4
I0
sS'rstem'
p5
I0
ssS'com.typemytype.robofont.layerData'
p6
(dp7
sS'com.fontlab.hintData'
p8
(dp9
S'vhints'
p10
((dp11
S'position'
p12
I135
sS'width'
p13
I121
s(dp14
g12
I312
sg13
I105
s(dp15
g12
I917
sg13
I110
stp16
sS'hhints'
p17
((dp18
g12
I-19
sg13
I96
s(dp19
g12
I1372
sg13
I96
stp20
ssS'org.robofab.postScriptHintData'
p21
(dp22
s."
HStem: -19 96 1372 96
VStem: 135 121 312 105 917 110
LayerCount: 2
Fore
SplineSet
892 290 m 1
 520 693 l 1
 460 661 336 554 336 416 c 0
 336 257 448 175 604 175 c 0
 709 175 803 215 892 290 c 1
95 436 m 0
 95 638 260 757 402 844 c 1
 333 915 235 1044 235 1177 c 0
 235 1406 430 1522 635 1522 c 0
 820 1522 1017 1431 1017 1210 c 0
 1017 1044 855 904 688 816 c 1
 1035 443 l 1
 1104 534 1171 645 1239 775 c 1
 1397 666 l 1
 1331 552 1260 419 1168 300 c 1
 1351 103 l 1
 1191 -33 l 1
 1025 146 l 1
 912 49 773 -17 594 -17 c 0
 297 -17 95 133 95 436 c 0
632 1345 m 0
 541 1345 470 1301 470 1201 c 0
 470 1109 495 1048 585 943 c 1
 687 995 790 1101 790 1205 c 0
 790 1304 727 1345 632 1345 c 0
EndSplineSet
EndChar

StartChar: apostrophemod
Encoding: 700 700 145
Width: 648
VWidth: 0
GlyphClass: 2
Flags: HW
PickledData: "(dp1
S'org.robofab.postScriptHintData'
p2
(dp3
sS'com.typemytype.robofont.layerData'
p4
(dp5
s."
LayerCount: 2
Fore
SplineSet
68 1111 m 1
 68 1111 115 1491 123 1571 c 1
 383 1571 l 1
 354 1413 283 1111 283 1111 c 1
 68 1111 l 1
EndSplineSet
EndChar

StartChar: approxequal
Encoding: 8776 8776 146
Width: 1255
VWidth: 0
GlyphClass: 2
Flags: HW
PickledData: "(dp1
S'org.pippin.gimp.org.kernagic'
p2
(dp3
S'lstem'
p4
I0
sS'rstem'
p5
I0
ssS'com.typemytype.robofont.layerData'
p6
(dp7
S'b'
(dp8
S'name'
p9
S'approxequal'
p10
sS'lib'
p11
(dp12
sS'unicodes'
p13
(tsS'width'
p14
I1136
sS'contours'
p15
(tsS'components'
p16
(tsS'anchors'
p17
(tsssS'org.robofab.postScriptHintData'
p18
(dp19
s."
LayerCount: 2
Fore
SplineSet
216 746 m 1
 90 824 l 1
 125 983 221 1090 385 1090 c 0
 478 1090 542 1060 650 1002 c 0
 729 961 796 929 853 929 c 0
 919 929 985 972 1028 1086 c 1
 1144 1011 l 1
 1102 854 1034 747 858 747 c 0
 762 747 680 781 550 851 c 0
 495 878 439 909 381 909 c 0
 297 909 244 845 216 746 c 1
216 346 m 1
 90 424 l 1
 125 584 221 691 385 691 c 0
 478 691 542 661 650 603 c 0
 729 562 796 529 853 529 c 0
 919 529 985 573 1028 687 c 1
 1144 612 l 1
 1102 455 1034 348 858 348 c 0
 762 348 680 382 550 452 c 0
 496 479 440 509 383 509 c 0
 297 509 244 447 216 346 c 1
EndSplineSet
EndChar

StartChar: asciicircum
Encoding: 94 94 149
Width: 1440
VWidth: 0
GlyphClass: 2
Flags: HW
PickledData: "(dp1
S'org.pippin.gimp.org.kernagic'
p2
(dp3
S'lstem'
p4
I0
sS'rstem'
p5
I0
ssS'com.typemytype.robofont.layerData'
p6
(dp7
sS'org.robofab.postScriptHintData'
p8
(dp9
s."
LayerCount: 2
Fore
SplineSet
641 1456 m 1
 774 1456 l 1
 1336 280 l 1
 1034 280 l 1
 713 994 l 1
 405 280 l 1
 103 280 l 1
 641 1456 l 1
EndSplineSet
EndChar

StartChar: asciitilde
Encoding: 126 126 150
Width: 1192
VWidth: 0
GlyphClass: 2
Flags: HW
PickledData: "(dp1
S'org.pippin.gimp.org.kernagic'
p2
(dp3
S'lstem'
p4
I0
sS'rstem'
p5
I0
ssS'com.typemytype.robofont.layerData'
p6
(dp7
S'b'
(dp8
S'name'
p9
S'asciitilde'
p10
sS'lib'
p11
(dp12
sS'unicodes'
p13
(tsS'width'
p14
I1192
sS'contours'
p15
(tsS'components'
p16
(tsS'anchors'
p17
(tsssS'org.robofab.postScriptHintData'
p18
(dp19
s."
LayerCount: 2
Fore
SplineSet
171 476 m 1
 90 618 l 1
 140 725 226 814 371 814 c 0
 454 814 535 787 621 749 c 0
 708 709 778 682 832 682 c 0
 907 682 975 728 1046 819 c 1
 1124 685 l 1
 1073 579 959 487 819 487 c 0
 730 487 658 516 569 557 c 0
 491 594 432 621 362 621 c 0
 277 621 211 552 171 476 c 1
EndSplineSet
EndChar

StartChar: asterisk
Encoding: 42 42 151
Width: 1017
VWidth: 0
GlyphClass: 2
Flags: HW
PickledData: "(dp1
S'org.pippin.gimp.org.kernagic'
p2
(dp3
S'lstem'
p4
I0
sS'rstem'
p5
I0
ssS'com.typemytype.robofont.layerData'
p6
(dp7
sS'org.robofab.postScriptHintData'
p8
(dp9
s."
LayerCount: 2
Fore
SplineSet
339 510 m 1
 135 626 l 1
 374 944 l 1
 30 1023 l 1
 94 1247 l 1
 431 1102 l 1
 397 1503 l 1
 625 1503 l 1
 591 1102 l 1
 931 1247 l 1
 995 1023 l 1
 648 944 l 1
 690 888 864 659 887 626 c 1
 874 617 702 518 688 508 c 1
 509 844 l 1
 339 510 l 1
EndSplineSet
EndChar

StartChar: at
Encoding: 64 64 152
Width: 2000
VWidth: 0
GlyphClass: 2
Flags: HW
PickledData: "(dp1
S'org.pippin.gimp.org.kernagic'
p2
(dp3
S'lstem'
p4
I0
sS'rstem'
p5
I0
ssS'com.typemytype.robofont.layerData'
p6
(dp7
sS'org.robofab.postScriptHintData'
p8
(dp9
s."
LayerCount: 2
Fore
SplineSet
988 -146 m 0
 492 -146 150 156 150 674 c 0
 150 1172 533 1558 1056 1558 c 0
 1511 1558 1867 1262 1867 813 c 0
 1867 447 1644 260 1452 260 c 1
 1386 320 1238 342 1210 483 c 1
 1160 349 1057 252 923 252 c 0
 689 252 581 422 581 631 c 0
 581 893 753 1166 1064 1166 c 0
 1199 1166 1348 1121 1424 1081 c 1
 1396 868 1357 673 1357 545 c 0
 1357 468 1396 421 1452 421 c 0
 1550 421 1658 553 1658 821 c 0
 1658 1111 1465 1374 1049 1374 c 0
 626 1374 378 1043 378 670 c 0
 378 309 600 35 991 35 c 0
 1166 35 1346 67 1484 148 c 1
 1542 2 l 1
 1411 -96 1195 -146 988 -146 c 0
803 619 m 0
 803 485 850 416 940 416 c 0
 1070 416 1123 526 1156 751 c 2
 1195 993 l 1
 1158 1000 1108 1006 1080 1006 c 0
 909 1006 803 825 803 619 c 0
EndSplineSet
EndChar

StartChar: b
Encoding: 98 98 154
Width: 1251
VWidth: 0
GlyphClass: 2
Flags: HW
PickledData: "(dp1
S'org.pippin.gimp.org.kernagic'
p2
(dp3
S'lstem'
p4
I0
sS'rstem'
p5
I0
ssS'com.typemytype.robofont.guides'
p6
(tsS'com.typemytype.robofont.layerData'
p7
(dp8
sS'com.fontlab.hintData'
p9
(dp10
S'vhints'
p11
((dp12
S'position'
p13
I193
sS'width'
p14
I125
s(dp15
g13
I193
sg14
I94
s(dp16
g13
I1018
sg14
I122
stp17
sS'hhints'
p18
((dp19
g13
I-19
sg14
I92
s(dp20
g13
I982
sg14
I92
stp21
ssS'org.robofab.postScriptHintData'
p22
(dp23
s."
HStem: -19 92 982 92
VStem: 193 125 193 94 1018 122
AnchorPoint: "top" 740 1082 basechar 0
LayerCount: 2
Fore
SplineSet
733 1103 m 0
 1023 1103 1162 864 1162 547 c 0
 1162 213 1009 -20 713 -20 c 0
 563 -20 467 54 416 130 c 1
 406 0 l 1
 139 0 l 1
 139 1540 l 1
 442 1560 l 1
 442 1137 l 1
 432 918 l 1
 488 1032 586 1103 733 1103 c 0
651 180 m 0
 772 180 852 293 852 547 c 0
 852 802 789 902 667 902 c 0
 534 902 440 811 440 563 c 2
 440 278 l 1
 483 220 543 180 651 180 c 0
EndSplineSet
EndChar

StartChar: backslash
Encoding: 92 92 155
Width: 937
VWidth: 0
GlyphClass: 2
Flags: HW
PickledData: "(dp1
S'org.pippin.gimp.org.kernagic'
p2
(dp3
S'lstem'
p4
I0
sS'rstem'
p5
I0
ssS'com.typemytype.robofont.layerData'
p6
(dp7
S'b'
(dp8
S'name'
p9
S'backslash'
p10
sS'lib'
p11
(dp12
sS'unicodes'
p13
(tsS'width'
p14
I937
sS'contours'
p15
(tsS'components'
p16
(tsS'anchors'
p17
(tsssS'org.robofab.postScriptHintData'
p18
(dp19
s."
LayerCount: 2
Fore
SplineSet
588 8 m 1
 94 1499 l 1
 319 1499 l 1
 809 8 l 1
 588 8 l 1
EndSplineSet
EndChar

StartChar: bar
Encoding: 124 124 156
Width: 723
VWidth: 0
GlyphClass: 2
Flags: HW
PickledData: "(dp1
S'org.pippin.gimp.org.kernagic'
p2
(dp3
S'lstem'
p4
I0
sS'rstem'
p5
I0
ssS'com.typemytype.robofont.layerData'
p6
(dp7
S'b'
(dp8
S'name'
p9
S'bar'
p10
sS'lib'
p11
(dp12
sS'unicodes'
p13
(tsS'width'
p14
I681
sS'contours'
p15
(tsS'components'
p16
(tsS'anchors'
p17
(tsssS'org.robofab.postScriptHintData'
p18
(dp19
s."
LayerCount: 2
Fore
SplineSet
269 1476 m 1
 459 1476 l 1
 459 -439 l 1
 269 -439 l 1
 269 1476 l 1
EndSplineSet
EndChar

StartChar: braceleft
Encoding: 123 123 157
Width: 931
VWidth: 0
GlyphClass: 2
Flags: HW
PickledData: "(dp1
S'org.pippin.gimp.org.kernagic'
p2
(dp3
S'lstem'
p4
I0
sS'rstem'
p5
I0
ssS'com.typemytype.robofont.layerData'
p6
(dp7
sS'org.robofab.postScriptHintData'
p8
(dp9
s."
LayerCount: 2
Fore
SplineSet
800 -301 m 1
 575 -301 401 -268 401 -13 c 2
 401 311 l 2
 401 447 395 534 189 534 c 1
 189 727 l 1
 394 727 401 813 401 950 c 2
 401 1274 l 2
 401 1530 575 1563 800 1563 c 1
 800 1392 l 1
 667 1389 624 1373 624 1216 c 2
 624 903 l 2
 624 776 600 664 425 630 c 1
 600 597 624 485 624 357 c 2
 624 45 l 2
 624 -112 667 -128 800 -130 c 1
 800 -301 l 1
EndSplineSet
EndChar

StartChar: braceright
Encoding: 125 125 158
Width: 931
VWidth: 0
GlyphClass: 2
Flags: HW
PickledData: "(dp1
S'org.pippin.gimp.org.kernagic'
p2
(dp3
S'lstem'
p4
I0
sS'rstem'
p5
I0
ssS'com.typemytype.robofont.layerData'
p6
(dp7
sS'org.robofab.postScriptHintData'
p8
(dp9
s."
LayerCount: 2
Fore
SplineSet
153 -301 m 1
 153 -130 l 1
 286 -128 329 -112 329 45 c 2
 329 357 l 2
 329 485 353 597 528 630 c 1
 353 664 329 776 329 903 c 2
 329 1216 l 2
 329 1373 286 1389 153 1392 c 1
 153 1563 l 1
 378 1563 552 1530 552 1274 c 2
 552 950 l 2
 552 813 559 727 764 727 c 1
 764 534 l 1
 558 534 552 447 552 311 c 2
 552 -13 l 2
 552 -268 378 -301 153 -301 c 1
EndSplineSet
EndChar

StartChar: bracketleft
Encoding: 91 91 159
Width: 823
VWidth: 0
GlyphClass: 2
Flags: HW
PickledData: "(dp1
S'org.pippin.gimp.org.kernagic'
p2
(dp3
S'lstem'
p4
I0
sS'rstem'
p5
I0
ssS'com.typemytype.robofont.layerData'
p6
(dp7
sS'org.robofab.postScriptHintData'
p8
(dp9
s."
LayerCount: 2
Fore
SplineSet
224 -251 m 1
 224 1481 l 1
 676 1481 l 1
 676 1298 l 1
 453 1298 l 1
 453 -66 l 1
 676 -66 l 1
 676 -251 l 1
 224 -251 l 1
EndSplineSet
EndChar

StartChar: bracketright
Encoding: 93 93 160
Width: 965
VWidth: 0
GlyphClass: 2
Flags: HW
PickledData: "(dp1
S'org.pippin.gimp.org.kernagic'
p2
(dp3
S'lstem'
p4
I0
sS'rstem'
p5
I0
ssS'com.typemytype.robofont.layerData'
p6
(dp7
sS'org.robofab.postScriptHintData'
p8
(dp9
s."
LayerCount: 2
Fore
SplineSet
294 -251 m 1
 294 -66 l 1
 516 -66 l 1
 516 1298 l 1
 294 1298 l 1
 294 1481 l 1
 746 1481 l 1
 746 -251 l 1
 294 -251 l 1
EndSplineSet
EndChar

StartChar: breve
Encoding: 728 728 161
Width: 918
VWidth: 0
GlyphClass: 4
Flags: HW
PickledData: "(dp1
S'org.robofab.postScriptHintData'
p2
(dp3
sS'com.typemytype.robofont.layerData'
p4
(dp5
s."
AnchorPoint: "top" 441 1076 mark 0
LayerCount: 2
Fore
SplineSet
440 1311 m 0
 270 1311 157 1408 157 1576 c 1
 326 1576 l 1
 326 1509 375 1473 440 1473 c 0
 504 1473 555 1509 555 1576 c 1
 721 1576 l 1
 721 1408 608 1311 440 1311 c 0
EndSplineSet
EndChar

StartChar: breveinvertedcomb
Encoding: 785 785 162
Width: 850
VWidth: 0
GlyphClass: 4
Flags: HW
PickledData: "(dp1
S'org.robofab.postScriptHintData'
p2
(dp3
sS'com.typemytype.robofont.layerData'
p4
(dp5
s."
AnchorPoint: "top" 437 1076 mark 0
LayerCount: 2
Fore
SplineSet
151 1311 m 1
 151 1479 264 1576 434 1576 c 0
 602 1576 715 1479 715 1311 c 1
 549 1311 l 1
 549 1377 498 1414 434 1414 c 0
 369 1414 320 1377 320 1311 c 1
 151 1311 l 1
EndSplineSet
EndChar

StartChar: brokenbar
Encoding: 166 166 163
Width: 733
VWidth: 0
GlyphClass: 2
Flags: HW
PickledData: "(dp1
S'org.pippin.gimp.org.kernagic'
p2
(dp3
S'lstem'
p4
I0
sS'rstem'
p5
I0
ssS'com.typemytype.robofont.layerData'
p6
(dp7
S'b'
(dp8
S'name'
p9
S'brokenbar'
p10
sS'lib'
p11
(dp12
sS'unicodes'
p13
(tsS'width'
p14
I653
sS'contours'
p15
(tsS'components'
p16
(tsS'anchors'
p17
(tsssS'org.robofab.postScriptHintData'
p18
(dp19
s."
LayerCount: 2
Fore
SplineSet
257 367 m 1
 455 367 l 1
 455 -341 l 1
 257 -341 l 1
 257 367 l 1
257 1479 m 1
 455 1479 l 1
 455 773 l 1
 257 773 l 1
 257 1479 l 1
EndSplineSet
EndChar

StartChar: bullet
Encoding: 8226 8226 164
Width: 949
VWidth: 0
GlyphClass: 2
Flags: HW
PickledData: "(dp1
S'org.pippin.gimp.org.kernagic'
p2
(dp3
S'lstem'
p4
I0
sS'rstem'
p5
I0
ssS'com.typemytype.robofont.layerData'
p6
(dp7
S'b'
(dp8
S'name'
p9
S'bullet'
p10
sS'lib'
p11
(dp12
sS'unicodes'
p13
(tsS'width'
p14
I908
sS'contours'
p15
(tsS'components'
p16
(tsS'anchors'
p17
(tsssS'org.robofab.postScriptHintData'
p18
(dp19
s."
LayerCount: 2
Fore
SplineSet
462 366 m 0
 269 366 121 507 121 707 c 0
 121 907 276 1053 469 1053 c 0
 661 1053 810 913 810 712 c 0
 810 511 655 366 462 366 c 0
EndSplineSet
EndChar

StartChar: c
Encoding: 99 99 165
Width: 1113
VWidth: 0
GlyphClass: 2
Flags: HW
PickledData: "(dp1
S'org.pippin.gimp.org.kernagic'
p2
(dp3
S'lstem'
p4
I0
sS'rstem'
p5
I696
ssS'com.typemytype.robofont.guides'
p6
((dp7
S'y'
I417
sS'x'
I962
sS'magnetic'
p8
I5
sS'angle'
p9
F90
sS'isGlobal'
p10
I00
s(dp11
S'y'
I1020
sS'x'
I565
sg8
I5
sg9
F90
sg10
I00
s(dp12
S'y'
I994
sS'x'
I572
sg8
I5
sg9
F90
sg10
I00
stp13
sS'com.typemytype.robofont.layerData'
p14
(dp15
sS'com.fontlab.hintData'
p16
(dp17
S'vhints'
p18
((dp19
S'position'
p20
I128
sS'width'
p21
I120
stp22
sS'hhints'
p23
((dp24
g20
I-19
sg21
I92
s(dp25
g20
I982
sg21
I92
stp26
ssS'org.robofab.postScriptHintData'
p27
(dp28
s."
HStem: -19 92 982 92
VStem: 128 120
AnchorPoint: "bot" 620 0 basechar 0
AnchorPoint: "top" 620 1082 basechar 0
LayerCount: 2
Fore
SplineSet
851 333 m 1
 863 333 l 1
 1050 232 l 1
 980 71 849 -20 632 -20 c 0
 299 -20 89 196 89 542 c 0
 89 887 299 1103 632 1103 c 0
 849 1103 979 1012 1050 851 c 1
 864 749 l 1
 851 749 l 1
 819 836 746 893 646 893 c 2
 644 893 l 2
 504 893 396 779 396 542 c 0
 396 304 504 190 644 190 c 0
 745 190 819 247 851 333 c 1
EndSplineSet
EndChar

StartChar: caron
Encoding: 711 711 167
Width: 941
VWidth: 0
GlyphClass: 4
Flags: HW
PickledData: "(dp1
S'org.robofab.postScriptHintData'
p2
(dp3
sS'com.typemytype.robofont.layerData'
p4
(dp5
s."
AnchorPoint: "top" 460 1082 mark 0
LayerCount: 2
Fore
SplineSet
309 1265 m 1
 101 1647 l 1
 339 1647 l 1
 446 1432 l 1
 551 1647 l 1
 788 1647 l 1
 580 1265 l 1
 309 1265 l 1
EndSplineSet
EndChar

StartChar: caron.alt
Encoding: 65537 -1 168
Width: 649
VWidth: 0
GlyphClass: 4
Flags: HW
PickledData: "(dp1
S'org.robofab.postScriptHintData'
p2
(dp3
sS'com.typemytype.robofont.layerData'
p4
(dp5
s."
AnchorPoint: "caron.alt" 79 1082 mark 0
LayerCount: 2
Fore
SplineSet
377 1131 m 1
 391 1554 l 1
 627 1554 l 1
 556 1131 l 1
 377 1131 l 1
EndSplineSet
EndChar

StartChar: cedilla
Encoding: 184 184 173
Width: 737
VWidth: 0
GlyphClass: 4
Flags: HW
PickledData: "(dp1
S'org.robofab.postScriptHintData'
p2
(dp3
sS'com.typemytype.robofont.layerData'
p4
(dp5
s."
AnchorPoint: "bot" 481 19 mark 0
LayerCount: 2
Fore
SplineSet
420 -414 m 0
 365 -414 308 -402 253 -378 c 1
 292 -268 l 1
 333 -283 370 -290 402 -290 c 0
 479 -290 525 -251 525 -198 c 0
 525 -156 501 -123 433 -123 c 0
 421 -123 407 -124 392 -126 c 1
 392 -60 l 1
 432 -45 471 -37 506 -37 c 0
 604 -37 674 -95 674 -205 c 0
 674 -337 562 -414 420 -414 c 0
EndSplineSet
EndChar

StartChar: cent
Encoding: 162 162 174
Width: 1113
VWidth: 0
GlyphClass: 2
Flags: HW
PickledData: "(dp1
S'org.pippin.gimp.org.kernagic'
p2
(dp3
S'lstem'
p4
I0
sS'rstem'
p5
I0
ssS'com.typemytype.robofont.layerData'
p6
(dp7
sS'org.robofab.postScriptHintData'
p8
(dp9
s."
LayerCount: 2
Fore
SplineSet
560 1370 m 1
 698 1370 l 1
 686.516591383 1100.96014097 l 1
 871.106145086 1086.68847802 985.157872233 998.036374233 1050 851 c 1
 864 749 l 1
 851 749 l 1
 819 836 746 893 646 893 c 2
 644 893 l 2
 504 893 396 779 396 542 c 0
 396 304 504 190 644 190 c 0
 745 190 819 247 851 333 c 1
 863 333 l 1
 1050 232 l 1
 985.969947799 84.7308799369 870.900976683 -3.96898891329 685.659452916 -18.0273542109 c 1
 680 -301 l 1
 550 -301 l 1
 554.886738225 -15.940270225 l 1
 266.908978983 15.1987391194 89 223.532304636 89 542 c 0
 89 860.212026765 267.654633357 1068.67906447 556.696755716 1099.13396875 c 1
 560 1370 l 1
EndSplineSet
EndChar

StartChar: circumflex
Encoding: 710 710 175
Width: 918
VWidth: 0
GlyphClass: 4
Flags: HW
PickledData: "(dp1
S'org.robofab.postScriptHintData'
p2
(dp3
sS'com.typemytype.robofont.layerData'
p4
(dp5
s."
AnchorPoint: "top" 444 1082 mark 0
LayerCount: 2
Fore
SplineSet
100 1289 m 1
 307 1671 l 1
 579 1671 l 1
 786 1289 l 1
 549 1289 l 1
 443 1503 l 1
 337 1289 l 1
 100 1289 l 1
EndSplineSet
EndChar

StartChar: colon
Encoding: 58 58 176
Width: 692
VWidth: 0
GlyphClass: 2
Flags: HW
PickledData: "(dp1
S'org.pippin.gimp.org.kernagic'
p2
(dp3
S'lstem'
p4
I0
sS'rstem'
p5
I0
ssS'com.typemytype.robofont.layerData'
p6
(dp7
S'b'
(dp8
S'name'
p9
S'colon'
p10
sS'lib'
p11
(dp12
sS'unicodes'
p13
(tsS'width'
p14
I653
sS'contours'
p15
(tsS'components'
p16
(tsS'anchors'
p17
(tsssS'org.robofab.postScriptHintData'
p18
(dp19
s."
LayerCount: 2
Fore
SplineSet
350 801 m 0
 261 801 192 855 192 951 c 0
 192 1049 259 1107 350 1107 c 0
 442 1107 508 1049 508 951 c 0
 508 856 442 801 350 801 c 0
350 -7 m 0
 261 -7 192 47 192 143 c 0
 192 241 259 299 350 299 c 0
 442 299 508 241 508 143 c 0
 508 48 442 -7 350 -7 c 0
EndSplineSet
EndChar

StartChar: comma
Encoding: 44 44 177
Width: 665
VWidth: 0
GlyphClass: 2
Flags: HW
PickledData: "(dp1
S'org.pippin.gimp.org.kernagic'
p2
(dp3
S'lstem'
p4
I0
sS'rstem'
p5
I0
ssS'com.typemytype.robofont.layerData'
p6
(dp7
sS'org.robofab.postScriptHintData'
p8
(dp9
s."
LayerCount: 2
Fore
SplineSet
187 -336 m 1
 187 -336 225 222 225 268 c 1
 488 268 l 1
 488 117 l 1
 366 -336 l 1
 187 -336 l 1
EndSplineSet
EndChar

StartChar: commaaccent
Encoding: 806 806 178
Width: 619
VWidth: 0
GlyphClass: 4
Flags: HW
PickledData: "(dp1
S'org.robofab.postScriptHintData'
p2
(dp3
s."
AnchorPoint: "bot" 341 0 mark 0
LayerCount: 2
Fore
SplineSet
146 -544 m 1
 146 -544 219 -136 219 -111 c 1
 466 -111 l 1
 467 -126 337 -544 337 -544 c 1
 146 -544 l 1
EndSplineSet
EndChar

StartChar: commaturnedabovecomb
Encoding: 786 786 179
Width: 600
VWidth: 0
GlyphClass: 4
Flags: HW
PickledData: "(dp1
S'org.robofab.postScriptHintData'
p2
(dp3
s."
AnchorPoint: "top" 291 1076 mark 0
LayerCount: 2
Fore
SplineSet
162 1295 m 1
 162 1326 291 1788 291 1788 c 1
 476 1788 l 1
 476 1788 421 1301 421 1276 c 1
 154 1276 l 1
 162 1295 l 1
EndSplineSet
EndChar

StartChar: copyright
Encoding: 169 169 180
Width: 1768
VWidth: 0
GlyphClass: 2
Flags: HW
PickledData: "(dp1
S'org.pippin.gimp.org.kernagic'
p2
(dp3
S'lstem'
p4
I0
sS'rstem'
p5
I0
ssS'com.typemytype.robofont.layerData'
p6
(dp7
sS'org.robofab.postScriptHintData'
p8
(dp9
s."
LayerCount: 2
Fore
SplineSet
872 247 m 0
 626 247 395 419 395 734 c 0
 395 1047 624 1222 870 1222 c 0
 970 1222 1070 1194 1155 1140 c 1
 1108 1024 l 1
 1034 1067 952 1089 881 1089 c 0
 708 1089 568 964 568 736 c 0
 568 502 708 379 884 379 c 0
 957 379 1034 398 1112 442 c 1
 1156 327 l 1
 1071 274 972 247 872 247 c 0
851 92 m 0
 1188 92 1476 355 1476 728 c 0
 1476 1102 1188 1363 851 1363 c 0
 514 1363 227 1102 227 728 c 0
 227 354 514 92 851 92 c 0
851 -45 m 0
 433 -45 75 273 75 728 c 0
 75 1184 433 1501 851 1501 c 0
 1270 1501 1632 1184 1632 728 c 0
 1632 273 1270 -45 851 -45 c 0
EndSplineSet
EndChar

StartChar: currency
Encoding: 164 164 181
Width: 1125
VWidth: 0
GlyphClass: 2
Flags: HW
PickledData: "(dp1
S'org.pippin.gimp.org.kernagic'
p2
(dp3
S'lstem'
p4
I0
sS'rstem'
p5
I0
ssS'com.typemytype.robofont.layerData'
p6
(dp7
S'b'
(dp8
S'name'
p9
S'currency'
p10
sS'lib'
p11
(dp12
sS'unicodes'
p13
(tsS'width'
p14
I1164
sS'contours'
p15
(tsS'components'
p16
(tsS'anchors'
p17
(tsssS'org.robofab.postScriptHintData'
p18
(dp19
s."
LayerCount: 2
Fore
SplineSet
809 1077 m 1
 990 1251 l 1
 1083 1152 l 1
 905 976 l 1
 949 907 976 826 976 738 c 0
 976 650 952 571 906 501 c 1
 1082 327 l 1
 990 228 l 1
 809 402 l 1
 741 349 658 317 566 317 c 0
 473 317 389 346 319 400 c 1
 145 229 l 1
 47 325 l 1
 227 501 l 1
 183 569 156 651 156 738 c 0
 156 825 181 905 227 976 c 1
 46 1153 l 1
 145 1251 l 1
 321 1078 l 1
 389 1129 475 1162 566 1162 c 0
 658 1162 740 1133 809 1077 c 1
836 738 m 0
 836 892 718 1018 566 1018 c 0
 415 1018 299 892 299 738 c 0
 299 584 415 461 566 461 c 0
 720 461 836 584 836 738 c 0
EndSplineSet
EndChar

StartChar: d
Encoding: 100 100 182
Width: 1248
VWidth: 0
GlyphClass: 2
Flags: HW
PickledData: "(dp1
S'org.pippin.gimp.org.kernagic'
p2
(dp3
S'lstem'
p4
I0
sS'rstem'
p5
I0
ssS'com.typemytype.robofont.layerData'
p6
(dp7
sS'com.fontlab.hintData'
p8
(dp9
S'vhints'
p10
((dp11
S'position'
p12
I114
sS'width'
p13
I166
s(dp14
g12
I907
sg13
I161
s(dp15
g12
I930
sg13
I138
stp16
sS'hhints'
p17
((dp18
g12
I-19
sg13
I127
s(dp19
g12
I953
sg13
I127
stp20
ssS'org.robofab.postScriptHintData'
p21
(dp22
s."
HStem: -19 127 953 127
VStem: 114 166 907 161 930 138
AnchorPoint: "mid" 944 1299 basechar 0
AnchorPoint: "caron.alt" 1043 1125 basechar 0
AnchorPoint: "top" 481 1082 basechar 0
LayerCount: 2
Fore
SplineSet
811 1540 m 1
 1115 1560 l 1
 1115 0 l 1
 845 0 l 1
 836 161 l 1
 781 57 682 -20 537 -20 c 2
 535 -20 l 2
 240 -20 92 217 92 536 c 0
 92 871 245 1102 540 1102 c 2
 542 1102 l 1
 544 1102 l 2
 675 1102 762 1046 815 981 c 1
 811 1142 l 1
 811 1540 l 1
604 181 m 0
 693 181 768 218 812 284 c 1
 812 809 l 1
 771 863 707 903 612 903 c 0
 492 903 399 818 399 537 c 0
 399 275 481 181 604 181 c 0
EndSplineSet
EndChar

StartChar: dagger
Encoding: 8224 8224 183
Width: 1130
VWidth: 0
GlyphClass: 2
Flags: HW
PickledData: "(dp1
S'org.pippin.gimp.org.kernagic'
p2
(dp3
S'lstem'
p4
I0
sS'rstem'
p5
I0
ssS'com.typemytype.robofont.layerData'
p6
(dp7
S'b'
(dp8
S'name'
p9
S'dagger'
p10
sS'lib'
p11
(dp12
sS'unicodes'
p13
(tsS'width'
p14
I1050
sS'contours'
p15
(tsS'components'
p16
(tsS'anchors'
p17
(tsssS'org.robofab.postScriptHintData'
p18
(dp19
s."
LayerCount: 2
Fore
SplineSet
429 1469 m 1
 698 1469 l 1
 698 1092 l 1
 1011 1092 l 1
 1011 913 l 1
 693 913 l 1
 693 -47 l 1
 429 -47 l 1
 429 913 l 1
 128 913 l 1
 128 1092 l 1
 429 1092 l 1
 429 1469 l 1
EndSplineSet
EndChar

StartChar: daggerdbl
Encoding: 8225 8225 184
Width: 1102
VWidth: 0
GlyphClass: 2
Flags: HW
PickledData: "(dp1
S'org.pippin.gimp.org.kernagic'
p2
(dp3
S'lstem'
p4
I0
sS'rstem'
p5
I0
ssS'com.typemytype.robofont.layerData'
p6
(dp7
S'b'
(dp8
S'name'
p9
S'daggerdbl'
p10
sS'lib'
p11
(dp12
sS'unicodes'
p13
(tsS'width'
p14
I1022
sS'contours'
p15
(tsS'components'
p16
(tsS'anchors'
p17
(tsssS'org.robofab.postScriptHintData'
p18
(dp19
s."
LayerCount: 2
Fore
SplineSet
427 1462 m 1
 697 1462 l 1
 697 1085 l 1
 1004 1085 l 1
 1004 906 l 1
 698 906 l 1
 698 564 l 1
 1003 564 l 1
 1003 387 l 1
 692 387 l 1
 692 -93 l 1
 427 -93 l 1
 427 387 l 1
 130 387 l 1
 130 564 l 1
 427 564 l 1
 427 906 l 1
 130 906 l 1
 130 1085 l 1
 427 1085 l 1
 427 1462 l 1
EndSplineSet
EndChar

StartChar: dblgravecomb
Encoding: 783 783 185
Width: 1042
VWidth: 0
GlyphClass: 4
Flags: HW
PickledData: "(dp1
S'org.robofab.postScriptHintData'
p2
(dp3
sS'com.typemytype.robofont.layerData'
p4
(dp5
s."
AnchorPoint: "top" 551 1076 mark 0
LayerCount: 2
Fore
SplineSet
309 1255 m 1
 46 1644 l 1
 309 1644 l 1
 455 1255 l 1
 309 1255 l 1
649 1255 m 1
 414 1644 l 1
 654 1644 l 1
 804 1255 l 1
 649 1255 l 1
EndSplineSet
EndChar

StartChar: degree
Encoding: 176 176 188
Width: 842
VWidth: 0
GlyphClass: 2
Flags: HW
PickledData: "(dp1
S'org.pippin.gimp.org.kernagic'
p2
(dp3
S'lstem'
p4
I0
sS'rstem'
p5
I0
ssS'com.typemytype.robofont.layerData'
p6
(dp7
sS'org.robofab.postScriptHintData'
p8
(dp9
s."
LayerCount: 2
Fore
SplineSet
425 1037 m 0
 508 1037 581 1098 581 1204 c 0
 581 1305 506 1366 426 1366 c 0
 341 1366 267 1305 267 1204 c 0
 267 1098 341 1037 425 1037 c 0
425 898 m 0
 231 898 113 1041 113 1205 c 0
 113 1370 234 1503 425 1503 c 0
 614 1503 736 1370 736 1205 c 0
 736 1044 618 898 425 898 c 0
EndSplineSet
EndChar

StartChar: dieresis
Encoding: 168 168 189
Width: 1053
VWidth: 0
GlyphClass: 4
Flags: HW
PickledData: "(dp1
S'org.robofab.postScriptHintData'
p2
(dp3
sS'com.typemytype.robofont.layerData'
p4
(dp5
s."
AnchorPoint: "top" 522 1082 mark 0
LayerCount: 2
Fore
SplineSet
270 1243 m 0
 179 1243 127 1301 127 1387 c 0
 127 1474 179 1533 270 1533 c 0
 360 1533 411 1474 411 1387 c 0
 411 1301 360 1243 270 1243 c 0
764 1243 m 0
 672 1243 619 1301 619 1387 c 0
 619 1474 672 1533 764 1533 c 0
 854 1533 905 1474 905 1387 c 0
 905 1300 854 1243 764 1243 c 0
EndSplineSet
EndChar

StartChar: divide
Encoding: 247 247 190
Width: 1244
VWidth: 0
GlyphClass: 2
Flags: HW
PickledData: "(dp1
S'org.pippin.gimp.org.kernagic'
p2
(dp3
S'lstem'
p4
I0
sS'rstem'
p5
I0
ssS'com.typemytype.robofont.layerData'
p6
(dp7
sS'org.robofab.postScriptHintData'
p8
(dp9
s."
LayerCount: 2
Fore
SplineSet
88 687 m 1
 1136 687 l 1
 1136 494 l 1
 88 494 l 1
 88 687 l 1
481 294 m 1
 744 294 l 1
 744 22 l 1
 481 22 l 1
 481 294 l 1
481 1147 m 1
 752 1147 l 1
 752 887 l 1
 481 887 l 1
 481 1147 l 1
EndSplineSet
EndChar

StartChar: dollar
Encoding: 36 36 191
Width: 1226
VWidth: 0
GlyphClass: 2
Flags: HW
PickledData: "(dp1
S'org.pippin.gimp.org.kernagic'
p2
(dp3
S'lstem'
p4
I0
sS'rstem'
p5
I0
ssS'com.typemytype.robofont.layerData'
p6
(dp7
S'b'
(dp8
S'name'
p9
S'dollar'
p10
sS'lib'
p11
(dp12
sS'unicodes'
p13
(tsS'width'
p14
I1221
sS'contours'
p15
(tsS'components'
p16
(tsS'anchors'
p17
(tsssS'org.robofab.postScriptHintData'
p18
(dp19
s."
LayerCount: 2
Fore
SplineSet
537 1770 m 1
 690 1770 l 1
 690 1471.71025959 l 1
 905.904064867 1448.61751511 1044.60142218 1336.23003578 1099 1231 c 1
 893 1112 l 1
 872 1112 l 1
 821 1208 715 1257 623 1257 c 0
 515 1257 417 1214 417 1093 c 0
 417 999 463 966 603 910 c 2
 784 837 l 2
 1001 751 1133 666 1133 407 c 0
 1133 144.170705641 942.607560943 8.53976418339 693.815812879 -15.9361882456 c 1
 697 -285 l 1
 540 -285 l 1
 540 -17.307381384 l 1
 306.184003823 1.27530635569 158.230286949 112.807404804 87 216 c 1
 279 365 l 1
 305 365 l 1
 371 287 487 214 597 214 c 0
 719 214 809 261 809 385 c 0
 809 485 773 527 599 599 c 2
 381 688 l 2
 208 759 98 843 98 1061 c 0
 98 1338.00937947 295.145637397 1454.16771587 534.357462698 1473.15497639 c 1
 537 1770 l 1
EndSplineSet
EndChar

StartChar: dotaccent
Encoding: 729 729 192
Width: 582
VWidth: 0
GlyphClass: 4
Flags: HW
PickledData: "(dp1
S'org.robofab.postScriptHintData'
p2
(dp3
sS'com.typemytype.robofont.layerData'
p4
(dp5
s."
AnchorPoint: "top" 292 1082 mark 0
LayerCount: 2
Fore
SplineSet
475 1451 m 0
 475 1345 406 1277 294 1277 c 0
 181 1277 112 1345 112 1451 c 0
 112 1551 181 1618 294 1618 c 0
 406 1618 475 1551 475 1451 c 0
EndSplineSet
EndChar

StartChar: dotlessi
Encoding: 305 305 193
Width: 589
VWidth: 0
GlyphClass: 2
Flags: HW
PickledData: "(dp1
S'org.pippin.gimp.org.kernagic'
p2
(dp3
S'lstem'
p4
I0
sS'rstem'
p5
I0
ssS'com.typemytype.robofont.layerData'
p6
(dp7
sS'org.robofab.postScriptHintData'
p8
(dp9
s."
AnchorPoint: "ogonek" 324 0 basechar 0
AnchorPoint: "top" 306 1082 basechar 0
LayerCount: 2
Fore
SplineSet
148 1082 m 1
 455 1082 l 1
 455 0 l 1
 148 0 l 1
 148 1082 l 1
EndSplineSet
EndChar

StartChar: dotlessj
Encoding: 567 567 194
Width: 673
VWidth: 0
GlyphClass: 2
Flags: HW
PickledData: "(dp1
S'org.pippin.gimp.org.kernagic'
p2
(dp3
S'lstem'
p4
I0
sS'rstem'
p5
I0
ssS'com.typemytype.robofont.layerData'
p6
(dp7
sS'com.fontlab.hintData'
p8
(dp9
S'vhints'
p10
((dp11
S'position'
p12
I111
sS'width'
p13
I142
stp14
sS'hhints'
p15
((dp16
g12
I-479
sg13
I112
stp17
ssS'org.robofab.postScriptHintData'
p18
(dp19
s."
HStem: -479 112
VStem: 111 142
LayerCount: 2
Fore
SplineSet
208 1082 m 1
 515 1082 l 1
 515 -25 l 2
 515 -318 376 -391 122 -484 c 2
 41 -515 l 1
 -56 -292 l 1
 29 -258 l 2
 192 -194 208 -154 208 7 c 2
 208 1082 l 1
EndSplineSet
EndChar

StartChar: e
Encoding: 101 101 195
Width: 1180
VWidth: 0
GlyphClass: 2
Flags: HW
PickledData: "(dp1
S'org.pippin.gimp.org.kernagic'
p2
(dp3
S'lstem'
p4
I0
sS'rstem'
p5
I747
ssS'com.typemytype.robofont.layerData'
p6
(dp7
sS'com.fontlab.hintData'
p8
(dp9
S'hhints'
p10
((dp11
S'position'
p12
I-19
sS'width'
p13
I94
s(dp14
g12
I982
sg13
I92
stp15
ssS'org.robofab.postScriptHintData'
p16
(dp17
s."
HStem: -19 94 982 92
AnchorPoint: "bot" 650 0 basechar 0
AnchorPoint: "ogonek" 848 18 basechar 0
AnchorPoint: "top" 625 1082 basechar 0
LayerCount: 2
Fore
SplineSet
653 -20 m 0
 316 -20 89 195 89 541 c 0
 89 890 305 1103 619 1103 c 0
 942 1103 1079 892 1083 584 c 0
 1083 514 1072 457 1072 457 c 1
 396 457 l 1
 412 272 530 180 688 180 c 0
 802 180 897 217 982 270 c 1
 998 270 l 1
 1065 106 l 1
 979 32 826 -20 653 -20 c 0
399 625 m 1
 827 625 l 1
 826 816 763 905 634 905 c 0
 503 905 411 815 399 625 c 1
EndSplineSet
EndChar

StartChar: eight
Encoding: 56 56 203
Width: 1343
VWidth: 0
GlyphClass: 2
Flags: HW
PickledData: "(dp1
S'org.pippin.gimp.org.kernagic'
p2
(dp3
S'lstem'
p4
I0
sS'rstem'
p5
I0
ssS'com.typemytype.robofont.layerData'
p6
(dp7
sS'org.robofab.postScriptHintData'
p8
(dp9
s."
LayerCount: 2
Fore
SplineSet
675 -20 m 0
 351 -20 141 123 141 383 c 0
 141 579 241 716 404 774 c 1
 264 822 169 932 169 1112 c 0
 169 1349 385 1476 673 1476 c 0
 962 1476 1174 1349 1174 1112 c 0
 1174 936 1088 829 950 775 c 1
 1106 718 1201 577 1201 383 c 0
 1201 123 997 -20 675 -20 c 0
675 180 m 0
 820 180 883 250 883 398 c 0
 883 546 798 653 675 689 c 1
 551 653 462 548 462 397 c 0
 462 252 532 180 675 180 c 0
675 832 m 1
 803 877 872 975 872 1099 c 0
 872 1213 796 1281 675 1281 c 0
 553 1281 472 1212 472 1099 c 0
 472 974 546 877 675 832 c 1
EndSplineSet
EndChar

StartChar: emdash
Encoding: 8212 8212 206
Width: 2206
VWidth: 0
GlyphClass: 2
Flags: HW
PickledData: "(dp1
S'org.robofab.postScriptHintData'
p2
(dp3
sS'com.typemytype.robofont.layerData'
p4
(dp5
s."
LayerCount: 2
Fore
SplineSet
60 469 m 1
 60 659 l 1
 2146 659 l 1
 2146 469 l 1
 60 469 l 1
EndSplineSet
EndChar

StartChar: endash
Encoding: 8211 8211 207
Width: 1215
VWidth: 0
GlyphClass: 2
Flags: HW
PickledData: "(dp1
S'org.pippin.gimp.org.kernagic'
p2
(dp3
S'lstem'
p4
I0
sS'rstem'
p5
I0
ssS'com.typemytype.robofont.layerData'
p6
(dp7
sS'org.robofab.postScriptHintData'
p8
(dp9
s."
LayerCount: 2
Fore
SplineSet
117 465 m 1
 117 662 l 1
 1098 662 l 1
 1098 465 l 1
 117 465 l 1
EndSplineSet
EndChar

StartChar: eng
Encoding: 331 331 208
Width: 1230
VWidth: 0
GlyphClass: 2
Flags: HW
PickledData: "(dp1
S'org.robofab.postScriptHintData'
p2
(dp3
sS'com.typemytype.robofont.layerData'
p4
(dp5
s."
LayerCount: 2
Fore
SplineSet
141 0 m 1
 141 1082 l 1
 403 1082 l 1
 423 895 l 1
 476 1004 573 1103 757 1103 c 0
 1000 1103 1121 940 1121 665 c 2
 1121 -45 l 2
 1121 -356 986 -471 531 -484 c 1
 512 -284 l 1
 780 -284 814 -242 815 -16 c 2
 815 638 l 2
 815 826 770 902 657 902 c 0
 524 902 448 803 448 619 c 2
 448 0 l 1
 141 0 l 1
EndSplineSet
EndChar

StartChar: equal
Encoding: 61 61 210
Width: 1209
VWidth: 0
GlyphClass: 2
Flags: HW
PickledData: "(dp1
S'org.pippin.gimp.org.kernagic'
p2
(dp3
S'lstem'
p4
I0
sS'rstem'
p5
I0
ssS'com.typemytype.robofont.layerData'
p6
(dp7
S'b'
(dp8
S'name'
p9
S'equal'
p10
sS'lib'
p11
(dp12
sS'unicodes'
p13
(tsS'width'
p14
I1050
sS'contours'
p15
(tsS'components'
p16
(tsS'anchors'
p17
(tsssS'org.robofab.postScriptHintData'
p18
(dp19
s."
LayerCount: 2
Fore
SplineSet
104 1086 m 1
 1089 1086 l 1
 1089 886 l 1
 104 886 l 1
 104 1086 l 1
104 667 m 1
 1089 667 l 1
 1089 467 l 1
 104 467 l 1
 104 667 l 1
EndSplineSet
EndChar

StartChar: estimated
Encoding: 8494 8494 211
Width: 1180
VWidth: 0
GlyphClass: 2
Flags: HW
PickledData: "(dp1
S'org.robofab.postScriptHintData'
p2
(dp3
sS'com.typemytype.robofont.layerData'
p4
(dp5
S'b'
(dp6
S'name'
p7
S'estimated'
p8
sS'lib'
p9
(dp10
sS'unicodes'
p11
(tsS'width'
p12
I1223
sS'contours'
p13
(tsS'components'
p14
(tsS'anchors'
p15
(tsss."
LayerCount: 2
Fore
SplineSet
78 531 m 0
 78 846 304 1079 621 1079 c 0
 936 1079 1081 852 1081 511 c 1
 326 511 l 1
 327 240 413 53 638 53 c 0
 817 53 926 131 1023 235 c 1
 1073 185 l 1
 975 67 842 -20 638 -20 c 0
 264 -20 78 217 78 531 c 0
937 591 m 1
 937 822 834 1019 627 1019 c 0
 458 1019 343 848 326 591 c 1
 937 591 l 1
EndSplineSet
EndChar

StartChar: eth
Encoding: 240 240 212
Width: 1180
VWidth: 0
GlyphClass: 2
Flags: HW
PickledData: "(dp1
S'org.pippin.gimp.org.kernagic'
p2
(dp3
S'lstem'
p4
I0
sS'rstem'
p5
I0
ssS'com.typemytype.robofont.layerData'
p6
(dp7
sS'org.robofab.postScriptHintData'
p8
(dp9
s."
LayerCount: 2
Fore
SplineSet
178 1516 m 1
 467 1516 l 1
 584 1397 l 1
 854 1507 l 1
 919 1335 l 1
 706 1249 l 1
 832 1104 939 986 1014 854 c 0
 1074 750 1112 617 1113 473 c 0
 1113 166 917 -23 595 -23 c 0
 277 -23 70 190 70 479 c 0
 70 765 266 956 554 956 c 0
 617 956 680 934 722 916 c 1
 677 979 576 1095 509 1163 c 1
 264 1065 l 1
 202 1235 l 1
 384 1311 l 1
 178 1516 l 1
891 478 m 0
 891 650 783 779 595 779 c 0
 407 779 305 660 305 480 c 0
 305 309 410 175 601 175 c 0
 788 175 891 295 891 478 c 0
EndSplineSet
EndChar

StartChar: exclam
Encoding: 33 33 213
Width: 749
VWidth: 0
GlyphClass: 2
Flags: HW
PickledData: "(dp1
S'org.pippin.gimp.org.kernagic'
p2
(dp3
S'lstem'
p4
I0
sS'rstem'
p5
I0
ssS'com.typemytype.robofont.layerData'
p6
(dp7
sS'org.robofab.postScriptHintData'
p8
(dp9
s."
LayerCount: 2
Fore
SplineSet
320 457 m 1
 252 1324 l 1
 252 1536 l 1
 490 1536 l 1
 490 1324 l 1
 430 457 l 1
 320 457 l 1
369 -9 m 0
 280 -9 219 64 219 144 c 0
 219 227 280 296 369 296 c 0
 457 296 517 227 517 144 c 0
 517 63 457 -9 369 -9 c 0
EndSplineSet
EndChar

StartChar: f
Encoding: 102 102 215
Width: 817
VWidth: 0
GlyphClass: 2
Flags: HW
PickledData: "(dp1
S'org.pippin.gimp.org.kernagic'
p2
(dp3
S'lstem'
p4
I182
sS'rstem'
p5
I417
ssS'com.typemytype.robofont.layerData'
p6
(dp7
sS'com.fontlab.hintData'
p8
(dp9
S'vhints'
p10
((dp11
S'position'
p12
I269
sS'width'
p13
I166
stp14
sS'hhints'
p15
((dp16
g12
I952
sg13
I89
s(dp17
g12
I1358
sg13
I122
stp18
ssS'org.robofab.postScriptHintData'
p19
(dp20
s."
HStem: 952 89 1358 122
VStem: 269 166
AnchorPoint: "top" 442 1456 basechar 0
LayerCount: 2
Fore
SplineSet
510 1082 m 1
 777 1082 l 1
 777 906 l 1
 510 906 l 1
 510 0 l 1
 203 0 l 1
 203 906 l 1
 45 906 l 1
 50 1058 l 1
 203 1077 l 1
 203 1159 l 2
 203 1449 363 1519 571 1520 c 0
 708 1520 790 1499 812 1494 c 1
 802 1307 l 1
 754 1313 710 1318 675 1318 c 0
 560 1318 510 1281 510 1159 c 2
 510 1082 l 1
EndSplineSet
EndChar

StartChar: five
Encoding: 53 53 216
Width: 1343
VWidth: 0
GlyphClass: 2
Flags: HW
PickledData: "(dp1
S'org.pippin.gimp.org.kernagic'
p2
(dp3
S'lstem'
p4
I0
sS'rstem'
p5
I0
ssS'com.typemytype.robofont.layerData'
p6
(dp7
sS'org.robofab.postScriptHintData'
p8
(dp9
s."
LayerCount: 2
Fore
SplineSet
678 745 m 0
 568 745 496 704 462 622 c 1
 235 659 l 1
 293 1456 l 1
 1116 1456 l 1
 1087 1244 l 1
 539 1244 l 1
 495 871 l 1
 555 923 628 952 732 952 c 0
 1048 952 1190 711 1190 481 c 0
 1190 214 1012 -20 674 -20 c 0
 422 -20 263 67 172 205 c 1
 324 368 l 1
 343 368 l 1
 411 258 530 215 645 215 c 0
 815 215 898 329 898 491 c 0
 898 622 820 745 678 745 c 0
EndSplineSet
EndChar

StartChar: florin
Encoding: 402 402 218
Width: 1153
VWidth: 0
GlyphClass: 2
Flags: HW
PickledData: "(dp1
S'org.robofab.postScriptHintData'
p2
(dp3
s."
LayerCount: 2
Fore
SplineSet
476 1265 m 2
 520 1532 667 1677 908 1677 c 0
 1123 1677 1224 1542 1231 1306 c 1
 1082 1306 l 1
 1070 1433 1043 1519 935 1519 c 0
 828 1519 769 1451 743 1307 c 2
 696 1039 l 1
 991 1039 l 1
 975 963 l 1
 679 963 l 1
 526 115 l 2
 465 -220 329 -368 121 -368 c 0
 55 -368 -18 -353 -99 -324 c 1
 -71 -214 l 1
 -14 -225 31 -231 69 -231 c 0
 218 -231 235 -139 275 108 c 1
 428 963 l 1
 215 963 l 1
 231 1039 l 1
 439 1039 l 1
 476 1265 l 2
EndSplineSet
EndChar

StartChar: foundryicon
Encoding: 65540 -1 219
Width: 1347
VWidth: 0
GlyphClass: 2
Flags: HW
PickledData: "(dp1
S'org.robofab.postScriptHintData'
p2
(dp3
s."
LayerCount: 2
Fore
SplineSet
485 405 m 1
 591 405 l 1
 591 552 l 1
 761 405 l 1
 867 405 l 1
 867 672 l 1
 761 672 l 1
 761 523 l 1
 591 672 l 1
 485 672 l 1
 485 405 l 1
280 2 m 1
 423 461 l 1
 34 755 l 1
 519 755 l 1
 669 1215 l 1
 828 755 l 1
 1313 755 l 1
 922 461 l 1
 1066 2 l 1
 669 278 l 1
 280 2 l 1
EndSplineSet
EndChar

StartChar: four
Encoding: 52 52 220
Width: 1343
VWidth: 0
GlyphClass: 2
Flags: HW
PickledData: "(dp1
S'org.pippin.gimp.org.kernagic'
p2
(dp3
S'lstem'
p4
I0
sS'rstem'
p5
I0
ssS'com.typemytype.robofont.layerData'
p6
(dp7
sS'org.robofab.postScriptHintData'
p8
(dp9
s."
LayerCount: 2
Fore
SplineSet
722 0 m 1
 722 339 l 1
 132 339 l 1
 105 535 l 1
 673 1456 l 1
 1043 1456 l 1
 1043 549 l 1
 1246 549 l 1
 1232 339 l 1
 1043 339 l 1
 1043 0 l 1
 722 0 l 1
353 545 m 1
 722 545 l 1
 722 1149 l 1
 353 545 l 1
EndSplineSet
EndChar

StartChar: fraction
Encoding: 8260 8260 221
Width: 1138
VWidth: 0
GlyphClass: 2
Flags: HW
PickledData: "(dp1
S'org.robofab.postScriptHintData'
p2
(dp3
s."
LayerCount: 2
Fore
SplineSet
70 0 m 1
 994 1541 l 1
 1183 1541 l 1
 267 0 l 1
 70 0 l 1
EndSplineSet
EndChar

StartChar: g
Encoding: 103 103 222
Width: 1242
VWidth: 0
GlyphClass: 2
Flags: HW
PickledData: "(dp1
S'org.pippin.gimp.org.kernagic'
p2
(dp3
S'lstem'
p4
I0
sS'rstem'
p5
I0
ssS'com.typemytype.robofont.layerData'
p6
(dp7
sS'com.fontlab.hintData'
p8
(dp9
S'vhints'
p10
((dp11
S'position'
p12
I128
sS'width'
p13
I122
s(dp14
g12
I977
sg13
I125
s(dp15
g12
I977
sg13
I36
stp16
sS'hhints'
p17
((dp18
g12
I-426
sg13
I101
s(dp19
g12
I0
sg13
I93
s(dp20
g12
I982
sg13
I92
stp21
ssS'org.robofab.postScriptHintData'
p22
(dp23
s."
HStem: -426 101 0 93 982 92
VStem: 128 122 977 125 977 36
AnchorPoint: "top" 587 1082 basechar 0
LayerCount: 2
Fore
SplineSet
576 -504 m 0
 440 -504 312 -488 205 -455 c 1
 227 -253 l 1
 254 -253 l 1
 345 -284 446 -302 532 -302 c 0
 709 -301 831 -229 831 -23 c 0
 831 -10 830 5 829 19 c 2
 823 100 l 1
 769 42 678 -7 537 -7 c 0
 316 -7 89 125 89 558 c 0
 89 933 313 1103 547 1103 c 2
 549 1103 l 2
 678 1103 762 1048 815 985 c 1
 818 1082 l 1
 1110 1082 l 1
 1110 7 l 2
 1110 -348 893 -504 576 -504 c 0
610 180 m 0
 688 180 766 209 810 256 c 1
 810 811 l 1
 760 870 709 902 613 902 c 0
 501 902 397 826 397 558 c 0
 397 300 475 180 610 180 c 0
EndSplineSet
EndChar

StartChar: germandbls
Encoding: 223 223 228
Width: 1321
VWidth: 0
GlyphClass: 2
Flags: HW
PickledData: "(dp1
S'org.pippin.gimp.org.kernagic'
p2
(dp3
S'lstem'
p4
I0
sS'rstem'
p5
I0
ssS'com.typemytype.robofont.layerData'
p6
(dp7
S'b'
(dp8
S'name'
p9
S'germandbls'
p10
sS'lib'
p11
(dp12
sS'unicodes'
p13
(tsS'width'
p14
I1278
sS'contours'
p15
(tsS'components'
p16
(tsS'anchors'
p17
(tsssS'org.robofab.postScriptHintData'
p18
(dp19
s."
LayerCount: 2
Fore
SplineSet
894 -20 m 0
 790 -20 662 5 548 53 c 1
 608 245 l 1
 649 222 734 193 810 193 c 0
 895 193 945 239 945 323 c 0
 945 516 639 556 639 750 c 0
 639 922 817 968 817 1144 c 0
 817 1237 755 1279 656 1279 c 0
 507 1279 440 1178 440 991 c 2
 440 0 l 1
 134 0 l 1
 134 1021 l 2
 134 1316 337 1495 639 1495 c 0
 899 1495 1099 1376 1099 1146 c 0
 1099 919 884 836 884 777 c 0
 884 706 1266 633 1266 318 c 0
 1266 105 1143 -20 894 -20 c 0
EndSplineSet
EndChar

StartChar: grave
Encoding: 96 96 229
Width: 1033
VWidth: 0
GlyphClass: 4
Flags: HW
PickledData: "(dp1
S'org.robofab.postScriptHintData'
p2
(dp3
sS'com.typemytype.robofont.layerData'
p4
(dp5
s."
AnchorPoint: "top" 533 1076 mark 0
LayerCount: 2
Fore
SplineSet
418 1208 m 1
 87 1606 l 1
 412 1606 l 1
 592 1208 l 1
 418 1208 l 1
EndSplineSet
EndChar

StartChar: greater
Encoding: 62 62 230
Width: 1107
VWidth: 0
GlyphClass: 2
Flags: HW
PickledData: "(dp1
S'org.pippin.gimp.org.kernagic'
p2
(dp3
S'lstem'
p4
I0
sS'rstem'
p5
I0
ssS'com.typemytype.robofont.layerData'
p6
(dp7
S'b'
(dp8
S'name'
p9
S'greater'
p10
sS'lib'
p11
(dp12
sS'unicodes'
p13
(tsS'width'
p14
I1107
sS'contours'
p15
(tsS'components'
p16
(tsS'anchors'
p17
(tsssS'org.robofab.postScriptHintData'
p18
(dp19
s."
LayerCount: 2
Fore
SplineSet
87 1041 m 1
 87 1258 l 1
 1028 761 l 1
 1028 635 l 1
 86 175 l 1
 86 399 l 1
 729 705 l 1
 87 1041 l 1
EndSplineSet
EndChar

StartChar: greaterequal
Encoding: 8805 8805 231
Width: 1192
VWidth: 0
GlyphClass: 2
Flags: HW
PickledData: "(dp1
S'org.pippin.gimp.org.kernagic'
p2
(dp3
S'lstem'
p4
I0
sS'rstem'
p5
I0
ssS'com.typemytype.robofont.layerData'
p6
(dp7
S'b'
(dp8
S'name'
p9
S'greaterequal'
p10
sS'lib'
p11
(dp12
sS'unicodes'
p13
(tsS'width'
p14
I1192
sS'contours'
p15
(tsS'components'
p16
(tsS'anchors'
p17
(tsssS'org.robofab.postScriptHintData'
p18
(dp19
s."
LayerCount: 2
Fore
SplineSet
147 221 m 1
 147 425 l 1
 841 755 l 1
 148 1104 l 1
 148 1305 l 1
 1060 813 l 1
 1060 697 l 1
 147 221 l 1
135 4 m 1
 135 168 l 1
 1067 167 l 1
 1067 4 l 1
 135 4 l 1
EndSplineSet
EndChar

StartChar: guillemotleft
Encoding: 171 171 232
Width: 1033
VWidth: 0
GlyphClass: 2
Flags: HW
PickledData: "(dp1
S'org.pippin.gimp.org.kernagic'
p2
(dp3
S'lstem'
p4
I0
sS'rstem'
p5
I0
ssS'com.typemytype.robofont.layerData'
p6
(dp7
S'b'
(dp8
S'name'
p9
S'guillemotleft'
p10
sS'lib'
p11
(dp12
sS'unicodes'
p13
(tsS'width'
p14
I994
sS'contours'
p15
(tsS'components'
p16
(tsS'anchors'
p17
(tsssS'org.robofab.postScriptHintData'
p18
(dp19
s."
LayerCount: 2
Fore
SplineSet
360 134 m 1
 51 566 l 1
 363 1002 l 1
 545 1002 l 1
 283 569 l 1
 540 134 l 1
 360 134 l 1
770 134 m 1
 462 566 l 1
 772 1002 l 1
 954 1002 l 1
 694 569 l 1
 950 134 l 1
 770 134 l 1
EndSplineSet
EndChar

StartChar: guillemotright
Encoding: 187 187 233
Width: 1033
VWidth: 0
GlyphClass: 2
Flags: HW
PickledData: "(dp1
S'org.pippin.gimp.org.kernagic'
p2
(dp3
S'lstem'
p4
I0
sS'rstem'
p5
I0
ssS'com.typemytype.robofont.layerData'
p6
(dp7
sS'org.robofab.postScriptHintData'
p8
(dp9
s."
LayerCount: 2
Fore
SplineSet
249 134 m 1
 66 134 l 1
 329 566 l 1
 75 1002 l 1
 252 1002 l 1
 561 572 l 1
 249 134 l 1
646 134 m 1
 467 134 l 1
 727 566 l 1
 477 1002 l 1
 652 1002 l 1
 961 572 l 1
 646 134 l 1
EndSplineSet
EndChar

StartChar: guilsinglleft
Encoding: 8249 8249 234
Width: 833
VWidth: 0
GlyphClass: 2
Flags: HW
PickledData: "(dp1
S'org.robofab.postScriptHintData'
p2
(dp3
s."
LayerCount: 2
Fore
SplineSet
450 165 m 1
 175 584 l 1
 457 1013 l 1
 646 1013 l 1
 377 583 l 1
 640 165 l 1
 450 165 l 1
EndSplineSet
EndChar

StartChar: guilsinglright
Encoding: 8250 8250 235
Width: 766
VWidth: 0
GlyphClass: 2
Flags: HW
PickledData: "(dp1
S'org.pippin.gimp.org.kernagic'
p2
(dp3
S'lstem'
p4
I0
sS'rstem'
p5
I0
ssS'com.typemytype.robofont.layerData'
p6
(dp7
S'b'
(dp8
S'name'
p9
S'guilsinglright'
p10
sS'lib'
p11
(dp12
sS'unicodes'
p13
(tsS'width'
p14
I766
sS'contours'
p15
(tsS'components'
p16
(tsS'anchors'
p17
(tsssS'org.robofab.postScriptHintData'
p18
(dp19
s."
LayerCount: 2
Fore
SplineSet
139 165 m 1
 408 583 l 1
 150 994 l 1
 339 994 l 1
 612 581 l 1
 329 165 l 1
 139 165 l 1
EndSplineSet
EndChar

StartChar: h
Encoding: 104 104 236
Width: 1254
VWidth: 0
GlyphClass: 2
Flags: HW
PickledData: "(dp1
S'org.pippin.gimp.org.kernagic'
p2
(dp3
S'lstem'
p4
I0
sS'rstem'
p5
I0
ssS'com.typemytype.robofont.layerData'
p6
(dp7
sS'com.fontlab.hintData'
p8
(dp9
S'vhints'
p10
((dp11
S'position'
p12
I193
sS'width'
p13
I122
s(dp14
g12
I910
sg13
I122
stp15
sS'hhints'
p16
((dp17
g12
I982
sg13
I92
stp18
ssS'org.robofab.postScriptHintData'
p19
(dp20
s."
HStem: 982 92
VStem: 193 122 910 122
AnchorPoint: "mid" 360 1259 basechar 0
AnchorPoint: "top" 574 1485 basechar 0
LayerCount: 2
Fore
SplineSet
146 0 m 1
 146 1540 l 1
 453 1560 l 1
 453 1155 l 1
 447 886 l 1
 503 1017 602 1103 773 1103 c 0
 1012 1103 1127 941 1127 672 c 2
 1127 0 l 1
 820 0 l 1
 820 637 l 2
 820 834 771 902 661 902 c 0
 522 902 452 795 452 613 c 2
 452 0 l 1
 146 0 l 1
EndSplineSet
EndChar

StartChar: hungarumlaut
Encoding: 733 733 239
Width: 932
VWidth: 0
GlyphClass: 4
Flags: HW
PickledData: "(dp1
S'org.robofab.postScriptHintData'
p2
(dp3
sS'com.typemytype.robofont.layerData'
p4
(dp5
s."
AnchorPoint: "top" 386 1076 mark 0
LayerCount: 2
Fore
SplineSet
132 1255 m 1
 282 1644 l 1
 522 1644 l 1
 286 1255 l 1
 132 1255 l 1
480 1255 m 1
 627 1644 l 1
 890 1644 l 1
 626 1255 l 1
 480 1255 l 1
EndSplineSet
EndChar

StartChar: hyphen
Encoding: 45 45 240
Width: 931
VWidth: 0
GlyphClass: 4
Flags: HW
PickledData: "(dp1
S'org.pippin.gimp.org.kernagic'
p2
(dp3
S'lstem'
p4
I0
sS'rstem'
p5
I0
ssS'com.typemytype.robofont.layerData'
p6
(dp7
sS'org.robofab.postScriptHintData'
p8
(dp9
s."
AnchorPoint: "mid" 460 555 mark 0
LayerCount: 2
Fore
SplineSet
152 453 m 1
 152 652 l 1
 782 652 l 1
 782 453 l 1
 152 453 l 1
EndSplineSet
EndChar

StartChar: infinity
Encoding: 8734 8734 252
Width: 1746
VWidth: 0
GlyphClass: 2
Flags: HW
PickledData: "(dp1
S'org.pippin.gimp.org.kernagic'
p2
(dp3
S'lstem'
p4
I0
sS'rstem'
p5
I0
ssS'com.typemytype.robofont.layerData'
p6
(dp7
S'b'
(dp8
S'name'
p9
S'infinity'
p10
sS'lib'
p11
(dp12
sS'unicodes'
p13
(tsS'width'
p14
I1647
sS'contours'
p15
(tsS'components'
p16
(tsS'anchors'
p17
(tsssS'org.robofab.postScriptHintData'
p18
(dp19
s."
LayerCount: 2
Fore
SplineSet
878 756 m 1
 993 918 1120 1034 1294 1034 c 0
 1521 1034 1648 873 1648 651 c 0
 1648 417 1492 254 1292 254 c 0
 1140 254 1015 345 878 531 c 1
 758 369 628 254 461 254 c 0
 234 254 102 445 102 669 c 0
 102 872 259 1034 457 1034 c 0
 628 1034 755 923 878 756 c 1
747 646 m 1
 664 769 570 851 456 851 c 0
 337 851 263 758 263 646 c 0
 263 544 344 440 463 440 c 0
 566 440 663 528 747 646 c 1
1478 674 m 0
 1478 768 1401 851 1290 851 c 0
 1183 851 1092 760 1013 648 c 1
 1117 508 1194 440 1294 440 c 0
 1420 440 1478 536 1478 674 c 0
EndSplineSet
EndChar

StartChar: integral
Encoding: 8747 8747 253
Width: 809
VWidth: 0
GlyphClass: 2
Flags: HW
PickledData: "(dp1
S'org.pippin.gimp.org.kernagic'
p2
(dp3
S'lstem'
p4
I0
sS'rstem'
p5
I0
ssS'com.typemytype.robofont.layerData'
p6
(dp7
S'b'
(dp8
S'name'
p9
S'integral'
p10
sS'lib'
p11
(dp12
sS'unicodes'
p13
(tsS'width'
p14
I994
sS'contours'
p15
(tsS'components'
p16
(tsS'anchors'
p17
(tsssS'org.robofab.postScriptHintData'
p18
(dp19
s."
LayerCount: 2
Fore
SplineSet
298 1178 m 2
 298 1447 392 1606 600 1606 c 0
 648 1606 702 1597 767 1582 c 1
 767 1410 l 1
 737 1415 710 1419 687 1419 c 0
 574 1419 546 1347 546 1187 c 2
 546 -35 l 2
 546 -309 432 -478 215 -478 c 0
 169 -478 115 -472 53 -455 c 1
 53 -242 l 1
 89 -248 122 -254 150 -254 c 0
 235 -254 298 -219 298 -43 c 2
 298 1178 l 2
EndSplineSet
EndChar

StartChar: k
Encoding: 107 107 258
Width: 1182
VWidth: 0
GlyphClass: 2
Flags: HW
PickledData: "(dp1
S'org.pippin.gimp.org.kernagic'
p2
(dp3
S'lstem'
p4
I0
sS'rstem'
p5
I671
ssS'com.typemytype.robofont.layerData'
p6
(dp7
sS'org.robofab.postScriptHintData'
p8
(dp9
s."
AnchorPoint: "bot" 641 0 basechar 0
LayerCount: 2
Fore
SplineSet
146 0 m 1
 146 1540 l 1
 453 1560 l 1
 453 817 l 1
 448 657 l 1
 824 1082 l 1
 1147 1082 l 1
 1147 1062 l 1
 750 607 l 1
 1167 29 l 1
 1167 0 l 1
 856 0 l 1
 522 483 l 1
 453 418 l 1
 453 0 l 1
 146 0 l 1
EndSplineSet
EndChar

StartChar: kgreenlandic
Encoding: 312 312 260
Width: 1159
VWidth: 0
GlyphClass: 2
Flags: HW
PickledData: "(dp1
S'org.robofab.postScriptHintData'
p2
(dp3
s."
LayerCount: 2
Fore
SplineSet
121 0 m 1
 121 1082 l 1
 366 1082 l 1
 366 818 l 1
 360 600 l 1
 774 1082 l 1
 1059 1082 l 1
 1059 1062 l 1
 643 588 l 1
 1085 11 l 1
 1085 0 l 1
 804 0 l 1
 456 458 l 1
 366 369 l 1
 366 0 l 1
 121 0 l 1
EndSplineSet
EndChar

StartChar: l
Encoding: 108 108 261
Width: 729
VWidth: 0
GlyphClass: 2
Flags: HW
PickledData: "(dp1
S'org.pippin.gimp.org.kernagic'
p2
(dp3
S'lstem'
p4
I0
sS'rstem'
p5
I238
ssS'com.typemytype.robofont.layerData'
p6
(dp7
sS'com.fontlab.hintData'
p8
(dp9
S'vhints'
p10
((dp11
S'position'
p12
I193
sS'width'
p13
I122
stp14
sS'hhints'
p15
((dp16
g12
I-11
sg13
I87
stp17
ssS'org.robofab.postScriptHintData'
p18
(dp19
s."
HStem: -11 87
VStem: 193 122
AnchorPoint: "mid" 313 856 basechar 0
AnchorPoint: "top" 326 1539 basechar 0
LayerCount: 2
Fore
SplineSet
581 -9 m 2
 565 -10 550 -10 535 -10 c 0
 256 -10 144 81 144 346 c 2
 144 1540 l 1
 451 1560 l 1
 451 324 l 2
 451 239 471 205 562 199 c 2
 682 190 l 1
 669 -7 l 1
 581 -9 l 2
EndSplineSet
EndChar

StartChar: less
Encoding: 60 60 266
Width: 1107
VWidth: 0
GlyphClass: 2
Flags: HW
PickledData: "(dp1
S'org.pippin.gimp.org.kernagic'
p2
(dp3
S'lstem'
p4
I0
sS'rstem'
p5
I0
ssS'com.typemytype.robofont.layerData'
p6
(dp7
S'b'
(dp8
S'name'
p9
S'less'
p10
sS'lib'
p11
(dp12
sS'unicodes'
p13
(tsS'width'
p14
I1107
sS'contours'
p15
(tsS'components'
p16
(tsS'anchors'
p17
(tsssS'org.robofab.postScriptHintData'
p18
(dp19
s."
LayerCount: 2
Fore
SplineSet
1003 173 m 1
 62 636 l 1
 62 761 l 1
 1003 1256 l 1
 1003 1039 l 1
 358 705 l 1
 1003 397 l 1
 1003 173 l 1
EndSplineSet
EndChar

StartChar: lessequal
Encoding: 8804 8804 267
Width: 1192
VWidth: 0
GlyphClass: 2
Flags: HW
PickledData: "(dp1
S'org.robofab.postScriptHintData'
p2
(dp3
sS'com.typemytype.robofont.layerData'
p4
(dp5
s."
LayerCount: 2
Fore
SplineSet
1045 301 m 1
 136 736 l 1
 136 855 l 1
 1046 1304 l 1
 1046 1103 l 1
 385 797 l 1
 1045 504 l 1
 1045 301 l 1
117 -2 m 1
 117 159 l 1
 1055 160 l 1
 1055 -2 l 1
 117 -2 l 1
EndSplineSet
EndChar

StartChar: logicalnot
Encoding: 172 172 268
Width: 1210
VWidth: 0
GlyphClass: 2
Flags: HW
PickledData: "(dp1
S'org.pippin.gimp.org.kernagic'
p2
(dp3
S'lstem'
p4
I0
sS'rstem'
p5
I0
ssS'com.typemytype.robofont.layerData'
p6
(dp7
sS'org.robofab.postScriptHintData'
p8
(dp9
s."
LayerCount: 2
Fore
SplineSet
96 841 m 1
 1088 841 l 1
 1088 250 l 1
 898 250 l 1
 898 647 l 1
 96 647 l 1
 96 841 l 1
EndSplineSet
EndChar

StartChar: lozenge
Encoding: 9674 9674 269
Width: 1203
VWidth: 0
GlyphClass: 2
Flags: HW
PickledData: "(dp1
S'org.pippin.gimp.org.kernagic'
p2
(dp3
S'lstem'
p4
I0
sS'rstem'
p5
I0
ssS'com.typemytype.robofont.layerData'
p6
(dp7
S'b'
(dp8
S'name'
p9
S'lozenge'
p10
sS'lib'
p11
(dp12
sS'unicodes'
p13
(tsS'width'
p14
I1164
sS'contours'
p15
(tsS'components'
p16
(tsS'anchors'
p17
(tsssS'org.robofab.postScriptHintData'
p18
(dp19
s."
LayerCount: 2
Fore
SplineSet
540 1539 m 1
 669 1539 l 1
 1101 745 l 1
 659 -46 l 1
 533 -46 l 1
 103 744 l 1
 540 1539 l 1
925 746 m 1
 779 1026 749 1057 605 1340 c 1
 454 1060 428 1028 279 746 c 1
 424 465 444 431 593 151 c 1
 743 434 775 464 925 746 c 1
EndSplineSet
EndChar

StartChar: m
Encoding: 109 109 271
Width: 1889
VWidth: 0
GlyphClass: 2
Flags: HW
PickledData: "(dp1
S'org.pippin.gimp.org.kernagic'
p2
(dp3
S'lstem'
p4
I0
sS'rstem'
p5
I0
ssS'com.typemytype.robofont.layerData'
p6
(dp7
sS'com.fontlab.hintData'
p8
(dp9
S'vhints'
p10
((dp11
S'position'
p12
I193
sS'width'
p13
I122
s(dp14
g12
I193
sg13
I98
s(dp15
g12
I845
sg13
I122
s(dp16
g12
I1483
sg13
I122
stp17
sS'hhints'
p18
((dp19
g12
I982
sg13
I92
stp20
ssS'org.robofab.postScriptHintData'
p21
(dp22
s."
HStem: 982 92
VStem: 193 122 193 98 845 122 1483 122
AnchorPoint: "top" 1036 1082 basechar 0
LayerCount: 2
Fore
SplineSet
139 0 m 1
 139 1082 l 1
 401 1082 l 1
 420 895 l 1
 477 1014 592 1103 756 1103 c 7
 873.935546875 1103 1008 1043 1066 886 c 1
 1123 1009 1227 1103 1402 1103 c 3
 1637 1103 1763 947 1763 682 c 2
 1763 0 l 1
 1456 0 l 1
 1456 631 l 2
 1456 810 1419 902 1303 902 c 0
 1207 902 1110 804 1104 660 c 1
 1104 0 l 1
 797 0 l 1
 797 618 l 2
 797 831 749 902 642 902 c 0
 532 902 454 811 445 628 c 1
 445 0 l 1
 139 0 l 1
EndSplineSet
EndChar

StartChar: macron
Encoding: 175 175 272
Width: 1070
VWidth: 0
GlyphClass: 4
Flags: HW
PickledData: "(dp1
S'org.robofab.postScriptHintData'
p2
(dp3
sS'com.typemytype.robofont.layerData'
p4
(dp5
s."
AnchorPoint: "mid" 522 1347 mark 0
AnchorPoint: "top" 534 1076 mark 0
LayerCount: 2
Fore
SplineSet
191 1284 m 1
 191 1421 l 1
 866 1421 l 1
 866 1284 l 1
 191 1284 l 1
EndSplineSet
EndChar

StartChar: minus
Encoding: 8722 8722 274
Width: 1203
VWidth: 0
GlyphClass: 2
Flags: HW
PickledData: "(dp1
S'org.pippin.gimp.org.kernagic'
p2
(dp3
S'lstem'
p4
I0
sS'rstem'
p5
I0
ssS'com.typemytype.robofont.layerData'
p6
(dp7
sS'org.robofab.postScriptHintData'
p8
(dp9
s."
LayerCount: 2
Fore
SplineSet
96 666 m 1
 1116 666 l 1
 1116 476 l 1
 96 476 l 1
 96 666 l 1
EndSplineSet
EndChar

StartChar: multiply
Encoding: 215 215 275
Width: 994
VWidth: 0
GlyphClass: 2
Flags: HW
PickledData: "(dp1
S'org.pippin.gimp.org.kernagic'
p2
(dp3
S'lstem'
p4
I0
sS'rstem'
p5
I0
ssS'com.typemytype.robofont.layerData'
p6
(dp7
sS'org.robofab.postScriptHintData'
p8
(dp9
s."
LayerCount: 2
Fore
SplineSet
98 844 m 1
 227 981 l 1
 501 697 l 1
 771 980 l 1
 902 844 l 1
 634 558 l 1
 693 496 904 275 904 275 c 1
 773 134 l 1
 501 417 l 1
 225 132 l 1
 96 273 l 1
 366 558 l 1
 98 844 l 1
EndSplineSet
EndChar

StartChar: n
Encoding: 110 110 276
Width: 1248
VWidth: 0
GlyphClass: 2
Flags: HW
PickledData: "(dp1
S'org.pippin.gimp.org.kernagic'
p2
(dp3
S'lstem'
p4
I0
sS'rstem'
p5
I0
ssS'com.typemytype.robofont.layerData'
p6
(dp7
sS'com.fontlab.hintData'
p8
(dp9
S'vhints'
p10
((dp11
S'position'
p12
I193
sS'width'
p13
I122
s(dp14
g12
I903
sg13
I122
stp15
sS'hhints'
p16
((dp17
g12
I0
sg13
I22
s(dp18
g12
I982
sg13
I92
s(dp19
g12
I1034
sg13
I21
stp20
ssS'org.robofab.postScriptHintData'
p21
(dp22
s."
HStem: 0 22 982 92 1034 21
VStem: 193 122 903 122
AnchorPoint: "bot" 640 0 basechar 0
AnchorPoint: "top" 701 1082 basechar 0
LayerCount: 2
Fore
SplineSet
141 0 m 1
 141 1082 l 1
 403 1082 l 1
 423 895 l 1
 476 1004 573 1103 757 1103 c 0
 1000 1103 1121 940 1121 665 c 2
 1121 0 l 1
 815 0 l 1
 815 638 l 2
 815 826 770 902 657 902 c 0
 524 902 448 803 448 619 c 2
 448 0 l 1
 141 0 l 1
EndSplineSet
EndChar

StartChar: nine
Encoding: 57 57 281
Width: 1343
VWidth: 0
GlyphClass: 2
Flags: HW
PickledData: "(dp1
S'org.pippin.gimp.org.kernagic'
p2
(dp3
S'lstem'
p4
I0
sS'rstem'
p5
I0
ssS'com.typemytype.robofont.layerData'
p6
(dp7
sS'org.robofab.postScriptHintData'
p8
(dp9
s."
LayerCount: 2
Fore
SplineSet
334 0 m 1
 334 28 l 1
 481 221 623 418 776 604 c 1
 724 578 658 560 592 560 c 0
 378 560 156 707 156 1011 c 0
 156 1283 362 1476 692 1476 c 0
 1032 1476 1227 1267 1227 994 c 0
 1227 808 1156 681 1049 535 c 2
 664 0 l 1
 334 0 l 1
917 1004 m 0
 917 1152 833 1259 692 1259 c 0
 550 1259 464 1152 464 1003 c 0
 464 848 545 740 687 740 c 0
 806 740 917 826 917 1004 c 0
EndSplineSet
EndChar

StartChar: notequal
Encoding: 8800 8800 282
Width: 1159
VWidth: 0
GlyphClass: 2
Flags: HW
PickledData: "(dp1
S'org.pippin.gimp.org.kernagic'
p2
(dp3
S'lstem'
p4
I0
sS'rstem'
p5
I0
ssS'com.typemytype.robofont.layerData'
p6
(dp7
S'b'
(dp8
S'name'
p9
S'notequal'
p10
sS'lib'
p11
(dp12
sS'unicodes'
p13
(tsS'width'
p14
I1079
sS'contours'
p15
(tsS'components'
p16
(tsS'anchors'
p17
(tsssS'org.robofab.postScriptHintData'
p18
(dp19
s."
LayerCount: 2
Fore
SplineSet
367 43 m 1
 206 69 l 1
 324 325 l 1
 71 325 l 1
 61 499 l 1
 404 499 l 1
 521 736 l 1
 71 736 l 1
 58 918 l 1
 598 918 l 1
 732 1185 l 1
 894 1162 l 1
 780 918 l 1
 1045 918 l 1
 1059 735 l 1
 701 735 l 1
 582 498 l 1
 1047 498 l 1
 1059 325 l 1
 503 325 l 1
 367 43 l 1
EndSplineSet
EndChar

StartChar: numbersign
Encoding: 35 35 284
Width: 1125
VWidth: 0
GlyphClass: 2
Flags: HW
PickledData: "(dp1
S'org.pippin.gimp.org.kernagic'
p2
(dp3
S'lstem'
p4
I0
sS'rstem'
p5
I0
ssS'com.typemytype.robofont.layerData'
p6
(dp7
sS'org.robofab.postScriptHintData'
p8
(dp9
s."
LayerCount: 2
Fore
SplineSet
157 -5 m 1
 240 440 l 1
 64 440 l 1
 81 562 l 1
 262 562 l 1
 334 958 l 1
 141 958 l 1
 158 1082 l 1
 356 1082 l 1
 432 1490 l 1
 588 1490 l 1
 511 1082 l 1
 752 1082 l 1
 828 1490 l 1
 985 1490 l 1
 908 1082 l 1
 1074 1082 l 1
 1055 958 l 1
 886 958 l 1
 815 562 l 1
 988 562 l 1
 972 440 l 1
 792 440 l 1
 708 -5 l 1
 553 -5 l 1
 635 440 l 1
 394 440 l 1
 312 -5 l 1
 157 -5 l 1
418 562 m 1
 657 562 l 1
 729 958 l 1
 489 958 l 1
 418 562 l 1
EndSplineSet
EndChar

StartChar: o
Encoding: 111 111 285
Width: 1239
VWidth: 0
GlyphClass: 2
Flags: HW
PickledData: "(dp1
S'org.pippin.gimp.org.kernagic'
p2
(dp3
S'lstem'
p4
I0
sS'rstem'
p5
I0
ssS'com.typemytype.robofont.guides'
p6
((dp7
S'y'
I1093
sS'x'
I582
sS'magnetic'
p8
I5
sS'angle'
p9
F90
sS'isGlobal'
p10
I00
stp11
sS'com.typemytype.robofont.layerData'
p12
(dp13
sS'com.fontlab.hintData'
p14
(dp15
S'vhints'
p16
((dp17
S'position'
p18
I128
sS'width'
p19
I120
s(dp20
g18
I982
sg19
I120
stp21
sS'hhints'
p22
((dp23
g18
I-19
sg19
I92
s(dp24
g18
I982
sg19
I92
stp25
ssS'org.robofab.postScriptHintData'
p26
(dp27
s."
HStem: -19 92 982 92
VStem: 128 120 982 120
AnchorPoint: "ogonek" 679 0 basechar 0
AnchorPoint: "top" 621 1082 basechar 0
LayerCount: 2
Fore
SplineSet
620 180 m 0
 766 180 843 304 843 544 c 0
 843 783 767 902 620 902 c 0
 472 902 397 783 397 544 c 0
 397 303 473 180 620 180 c 0
620 -21 m 0
 287 -21 89 208 89 544 c 0
 89 877 288 1103 620 1103 c 0
 951 1103 1150 877 1150 544 c 0
 1150 208 952 -21 620 -21 c 0
EndSplineSet
EndChar

StartChar: oe
Encoding: 339 339 290
Width: 1863
VWidth: 0
GlyphClass: 2
Flags: HW
PickledData: "(dp1
S'org.pippin.gimp.org.kernagic'
p2
(dp3
S'lstem'
p4
I0
sS'rstem'
p5
I0
ssS'com.typemytype.robofont.layerData'
p6
(dp7
S'b'
(dp8
S'name'
p9
S'oe'
p10
sS'lib'
p11
(dp12
sS'unicodes'
p13
(tsS'width'
p14
F1915.3599999999999
sS'contours'
p15
(tsS'components'
p16
(tsS'anchors'
p17
(tsssS'org.robofab.postScriptHintData'
p18
(dp19
s."
LayerCount: 2
Fore
SplineSet
1765 579 m 0
 1765 507 1757 456 1757 456 c 1
 1081 456 l 1
 1105 233 1260 176 1395 176 c 0
 1511 176 1622 221 1670 266 c 1
 1683 266 l 1
 1749 103 l 1
 1685 41 1545 -17 1376 -17 c 0
 1202 -17 1039 67 956 186 c 1
 885 74 738 -17 577 -17 c 0
 267 -17 75 205 75 543 c 0
 75 881 267 1099 577 1099 c 0
 740 1099 891 1005 959 891 c 1
 1031 1005 1179 1099 1329 1099 c 0
 1615 1099 1761 890 1765 579 c 0
577 176 m 0
 748 176 829 305 829 544 c 0
 829 780 749 906 577 906 c 0
 404 906 324 780 324 544 c 0
 324 305 404 176 577 176 c 0
1085 618 m 1
 1547 618 l 1
 1537 832 1466 914 1341 914 c 0
 1216 914 1097 824 1085 618 c 1
EndSplineSet
EndChar

StartChar: ogonek
Encoding: 731 731 291
Width: 766
VWidth: 0
GlyphClass: 4
Flags: HW
PickledData: "(dp1
S'org.pippin.gimp.org.kernagic'
p2
(dp3
S'lstem'
p4
I0
sS'rstem'
p5
I0
ssS'com.typemytype.robofont.layerData'
p6
(dp7
sS'org.robofab.postScriptHintData'
p8
(dp9
s."
AnchorPoint: "ogonek" 484 0 mark 0
LayerCount: 2
Fore
SplineSet
448 -441 m 0
 333 -441 243 -382 243 -263 c 0
 243 -132 351 -39 435 4 c 1
 544 4 l 1
 468 -56 422 -149 422 -213 c 0
 422 -254 453 -290 495 -290 c 0
 550 -290 608 -265 622 -257 c 1
 629 -403 l 1
 574 -425 510 -441 448 -441 c 0
EndSplineSet
EndChar

StartChar: one
Encoding: 49 49 295
Width: 1343
VWidth: 0
GlyphClass: 2
Flags: HW
PickledData: "(dp1
S'org.pippin.gimp.org.kernagic'
p2
(dp3
S'lstem'
p4
I0
sS'rstem'
p5
I0
ssS'com.typemytype.robofont.layerData'
p6
(dp7
sS'org.robofab.postScriptHintData'
p8
(dp9
s."
LayerCount: 2
Fore
SplineSet
195 0 m 1
 195 216 l 1
 571 216 l 1
 571 1181 l 1
 462 1129 297 1076 198 1064 c 1
 198 1275 l 1
 320 1308 521 1385 616 1456 c 1
 899 1456 l 1
 899 216 l 1
 1231 216 l 1
 1231 0 l 1
 195 0 l 1
EndSplineSet
EndChar

StartChar: onehalf
Encoding: 189 189 296
Width: 1905
VWidth: 0
GlyphClass: 2
Flags: HW
PickledData: "(dp1
S'org.pippin.gimp.org.kernagic'
p2
(dp3
S'lstem'
p4
I0
sS'rstem'
p5
I0
ssS'com.typemytype.robofont.layerData'
p6
(dp7
sS'org.robofab.postScriptHintData'
p8
(dp9
s."
LayerCount: 2
Fore
SplineSet
1244 0 m 1
 1220 137 l 1
 1514 425 l 2
 1587 497 1617 555 1617 611 c 0
 1617 685 1560 726 1491 726 c 0
 1411 726 1327 683 1273 613 c 1
 1176 717 l 1
 1238 803 1352 881 1496 881 c 0
 1713 881 1804 751 1804 609 c 0
 1804 511 1754 417 1629 306 c 2
 1445 142 l 1
 1797 142 l 1
 1791 0 l 1
 1244 0 l 1
151 598 m 1
 151 734 l 1
 306 734 l 1
 306 1325 l 1
 269 1305 152 1251 142 1250 c 1
 142 1387 l 1
 189 1410 320 1479 350 1500 c 1
 495 1500 l 1
 495 734 l 1
 637 734 l 1
 637 598 l 1
 151 598 l 1
393 0 m 1
 1358 1500 l 1
 1546 1500 l 1
 581 0 l 1
 393 0 l 1
EndSplineSet
EndChar

StartChar: onequarter
Encoding: 188 188 297
Width: 1644
VWidth: 0
GlyphClass: 2
Flags: HW
PickledData: "(dp1
S'org.pippin.gimp.org.kernagic'
p2
(dp3
S'lstem'
p4
I0
sS'rstem'
p5
I0
ssS'com.typemytype.robofont.layerData'
p6
(dp7
sS'org.robofab.postScriptHintData'
p8
(dp9
s."
LayerCount: 2
Fore
SplineSet
120 598 m 1
 120 756 l 1
 274 756 l 1
 274 1304 l 1
 237 1285 113 1231 105 1230 c 1
 105 1387 l 1
 151 1409 274 1479 305 1499 c 1
 450 1499 l 1
 450 756 l 1
 586 756 l 1
 586 598 l 1
 120 598 l 1
1365 0 m 1
 1365 181 l 1
 989 181 l 1
 989 319 l 1
 1355 871 l 1
 1526 871 l 1
 1526 318 l 1
 1639 318 l 1
 1629 181 l 1
 1526 181 l 1
 1526 0 l 1
 1365 0 l 1
319 0 m 1
 1297 1499 l 1
 1492 1499 l 1
 520 0 l 1
 319 0 l 1
1167 318 m 1
 1365 318 l 1
 1365 655 l 1
 1167 318 l 1
EndSplineSet
EndChar

StartChar: ordmasculine
Encoding: 186 186 299
Width: 965
VWidth: 0
GlyphClass: 2
Flags: HW
PickledData: "(dp1
S'org.pippin.gimp.org.kernagic'
p2
(dp3
S'lstem'
p4
I0
sS'rstem'
p5
I0
ssS'com.typemytype.robofont.layerData'
p6
(dp7
S'b'
(dp8
S'name'
p9
S'ordmasculine'
p10
sS'lib'
p11
(dp12
sS'unicodes'
p13
(tsS'width'
p14
I965
sS'contours'
p15
(tsS'components'
p16
(tsS'anchors'
p17
(tsssS'org.robofab.postScriptHintData'
p18
(dp19
s."
LayerCount: 2
Fore
SplineSet
116 1123 m 0
 116 1353 244 1533 480 1533 c 0
 722 1533 844 1356 844 1123 c 0
 844 896 704 716 480 716 c 0
 244 716 116 894 116 1123 c 0
658 1120 m 0
 658 1286 595 1370 480 1370 c 0
 369 1370 309 1289 309 1123 c 0
 309 959 368 879 480 879 c 0
 601 879 658 958 658 1120 c 0
EndSplineSet
EndChar

StartChar: oslash
Encoding: 248 248 300
Width: 1239
VWidth: 0
GlyphClass: 2
Flags: HW
PickledData: "(dp1
S'org.pippin.gimp.org.kernagic'
p2
(dp3
S'lstem'
p4
I0
sS'rstem'
p5
I0
ssS'com.typemytype.robofont.layerData'
p6
(dp7
sS'org.robofab.postScriptHintData'
p8
(dp9
s."
LayerCount: 2
Fore
SplineSet
220 -125 m 1
 294 -173 l 1
 397.107470642 19.8025873786 l 1
 462.364972711 -6.76915053817 536.987803654 -21 620 -21 c 0
 952 -21 1150 208 1150 544 c 0
 1150 753.730027941 1071.06205088 921.016032992 929.924938239 1016.12793329 c 1
 1032 1207 l 1
 952 1255 l 1
 848.549260297 1059.96991695 l 1
 781.90632078 1087.9767989 705.340466906 1103 620 1103 c 0
 288 1103 89 877 89 544 c 0
 89 327.651484696 171.090797324 155.665167945 318.453999813 60.6099996469 c 1
 220 -125 l 1
803.797450951 780.279786331 m 1
 829.812008817 722.294811594 843 643.558977783 843 544 c 0
 843 304 766 180 620 180 c 0
 573.660387295 180 534.376285678 192.222927659 502.30432524 216.512152888 c 1
 803.797450951 780.279786331 l 1
743.532432999 861.987373686 m 1
 441.665707781 292.894367128 l 1
 412.03522301 352.95877521 397 436.807306584 397 544 c 0
 397 783 472 902 620 902 c 0
 669.190168742 902 710.430096299 888.674947874 743.532432999 861.987373686 c 1
EndSplineSet
EndChar

StartChar: p
Encoding: 112 112 303
Width: 1254
VWidth: 0
GlyphClass: 2
Flags: HW
PickledData: "(dp1
S'org.pippin.gimp.org.kernagic'
p2
(dp3
S'lstem'
p4
I0
sS'rstem'
p5
I0
ssS'com.typemytype.robofont.layerData'
p6
(dp7
sS'com.fontlab.hintData'
p8
(dp9
S'vhints'
p10
((dp11
S'position'
p12
I193
sS'width'
p13
I122
s(dp14
g12
I193
sg13
I97
s(dp15
g12
I1009
sg13
I122
stp16
sS'hhints'
p17
((dp18
g12
I-19
sg13
I92
s(dp19
g12
I982
sg13
I92
stp20
ssS'org.robofab.postScriptHintData'
p21
(dp22
s."
HStem: -19 92 982 92
VStem: 193 122 193 97 1009 122
AnchorPoint: "top" 662 1082 basechar 0
LayerCount: 2
Fore
SplineSet
141 -471 m 1
 141 1082 l 1
 410 1082 l 1
 421 888 l 1
 468 1011 566 1103 733 1103 c 0
 1023 1103 1162 867 1162 546 c 0
 1162 215 1009 -20 717 -20 c 0
 584 -20 494 35 439 100 c 1
 443 -59 l 1
 443 -471 l 1
 141 -471 l 1
645 180 m 0
 766 180 855 266 855 547 c 0
 855 802 784 902 661 902 c 0
 535 902 464 820 442 697 c 1
 442 278 l 1
 486 220 551 180 645 180 c 0
EndSplineSet
EndChar

StartChar: paragraph
Encoding: 182 182 304
Width: 1216
VWidth: 0
GlyphClass: 2
Flags: HW
PickledData: "(dp1
S'org.pippin.gimp.org.kernagic'
p2
(dp3
S'lstem'
p4
I0
sS'rstem'
p5
I0
ssS'com.typemytype.robofont.layerData'
p6
(dp7
sS'org.robofab.postScriptHintData'
p8
(dp9
s."
LayerCount: 2
Fore
SplineSet
683 1312 m 1
 683 -240 l 1
 519 -240 l 1
 519 706 l 1
 234 706 109 881 109 1072 c 0
 109 1315 241 1456 630 1456 c 2
 1025 1456 l 1
 1025 -240 l 1
 861 -240 l 1
 861 1312 l 1
 683 1312 l 1
EndSplineSet
EndChar

StartChar: parenleft
Encoding: 40 40 305
Width: 846
VWidth: 0
GlyphClass: 2
Flags: HW
PickledData: "(dp1
S'org.pippin.gimp.org.kernagic'
p2
(dp3
S'lstem'
p4
I0
sS'rstem'
p5
I0
ssS'com.typemytype.robofont.layerData'
p6
(dp7
S'b'
(dp8
S'name'
p9
S'parenright'
p10
sS'lib'
p11
(dp12
sS'unicodes'
p13
(tsS'width'
p14
I766
sS'contours'
p15
(tsS'components'
p16
(tsS'anchors'
p17
(tsssS'org.robofab.postScriptHintData'
p18
(dp19
s."
LayerCount: 2
Fore
SplineSet
209 657 m 256
 209 1010 331 1389 485 1594 c 257
 703 1594 l 257
 703 1556 l 257
 558 1371 435 1099 435 657 c 256
 435 216 558 -63 703 -248 c 257
 703 -279 l 257
 485 -279 l 257
 331 -74 209 305 209 657 c 256
EndSplineSet
EndChar

StartChar: parenright
Encoding: 41 41 306
Width: 846
VWidth: 0
GlyphClass: 2
Flags: HW
PickledData: "(dp1
S'org.pippin.gimp.org.kernagic'
p2
(dp3
S'lstem'
p4
I0
sS'rstem'
p5
I0
ssS'com.typemytype.robofont.layerData'
p6
(dp7
S'b'
(dp8
S'name'
p9
S'parenright'
p10
sS'lib'
p11
(dp12
sS'unicodes'
p13
(tsS'width'
p14
I766
sS'contours'
p15
(tsS'components'
p16
(tsS'anchors'
p17
(tsssS'org.robofab.postScriptHintData'
p18
(dp19
s."
LayerCount: 2
Fore
SplineSet
640 657 m 0
 640 305 518 -74 364 -279 c 1
 146 -279 l 1
 146 -248 l 1
 291 -63 414 216 414 657 c 0
 414 1099 291 1371 146 1556 c 1
 146 1594 l 1
 364 1594 l 1
 518 1389 640 1010 640 657 c 0
EndSplineSet
EndChar

StartChar: partialdiff
Encoding: 8706 8706 307
Width: 1324
VWidth: 0
GlyphClass: 2
Flags: HW
PickledData: "(dp1
S'org.robofab.postScriptHintData'
p2
(dp3
s."
LayerCount: 2
Fore
SplineSet
532 -20 m 0
 299 -20 190 128 190 308 c 0
 190 583 444 934 900 955 c 1
 900 980 l 2
 900 1238 748 1394 549 1394 c 0
 476 1394 396 1373 316 1328 c 1
 262 1464 l 1
 374 1529 488 1560 594 1560 c 0
 897 1560 1144 1313 1144 924 c 0
 1144 393 906 -20 532 -20 c 0
546 122 m 0
 758 122 870 542 892 825 c 1
 608 787 459 463 459 268 c 0
 459 183 487 122 546 122 c 0
EndSplineSet
EndChar

StartChar: percent
Encoding: 37 37 308
Width: 2046
VWidth: 0
GlyphClass: 2
Flags: HW
PickledData: "(dp1
S'org.pippin.gimp.org.kernagic'
p2
(dp3
S'lstem'
p4
I0
sS'rstem'
p5
I0
ssS'com.typemytype.robofont.layerData'
p6
(dp7
S'b'
(dp8
S'name'
p9
S'percent'
p10
sS'lib'
p11
(dp12
sS'unicodes'
p13
(tsS'width'
p14
I1563
sS'contours'
p15
(tsS'components'
p16
(tsS'anchors'
p17
(tsssS'org.robofab.postScriptHintData'
p18
(dp19
s."
LayerCount: 2
Fore
SplineSet
482 885 m 0
 607 885 672 992 672 1128 c 0
 672 1267 606 1366 482 1366 c 0
 355 1366 288 1262 288 1128 c 0
 288 990 355 885 482 885 c 0
478 718 m 0
 234 718 101 896 101 1124 c 0
 101 1352 238 1528 478 1528 c 0
 723 1528 868 1355 868 1124 c 0
 868 896 720 718 478 718 c 0
489 0 m 1
 1337 1508 l 1
 1545 1508 l 1
 705 0 l 1
 489 0 l 1
1563 140 m 0
 1688 140 1753 248 1753 382 c 0
 1753 521 1687 620 1563 620 c 0
 1436 620 1369 516 1369 382 c 0
 1369 245 1436 140 1563 140 c 0
1559 -28 m 0
 1315 -28 1172 151 1172 380 c 0
 1172 607 1319 781 1559 781 c 0
 1804 781 1949 611 1949 380 c 0
 1949 151 1801 -28 1559 -28 c 0
EndSplineSet
EndChar

StartChar: period
Encoding: 46 46 309
Width: 704
VWidth: 0
GlyphClass: 2
Flags: HW
PickledData: "(dp1
S'org.pippin.gimp.org.kernagic'
p2
(dp3
S'lstem'
p4
I0
sS'rstem'
p5
I0
ssS'com.typemytype.robofont.layerData'
p6
(dp7
S'b'
(dp8
S'name'
p9
S'period'
p10
sS'lib'
p11
(dp12
sS'unicodes'
p13
(tsS'width'
p14
I624
sS'contours'
p15
(tsS'components'
p16
(tsS'anchors'
p17
(tsssS'org.robofab.postScriptHintData'
p18
(dp19
s."
LayerCount: 2
Fore
SplineSet
348 -8 m 0
 261 -8 196 41 196 142 c 0
 196 244 260 295 348 295 c 0
 436 295 500 244 500 142 c 0
 500 42 436 -8 348 -8 c 0
EndSplineSet
EndChar

StartChar: periodcentered
Encoding: 183 183 310
Width: 612
VWidth: 0
GlyphClass: 2
Flags: HW
PickledData: "(dp1
S'org.pippin.gimp.org.kernagic'
p2
(dp3
S'lstem'
p4
I0
sS'rstem'
p5
I0
ssS'com.typemytype.robofont.layerData'
p6
(dp7
S'b'
(dp8
S'name'
p9
S'periodcentered'
p10
sS'lib'
p11
(dp12
sS'unicodes'
p13
(tsS'width'
p14
I653
sS'contours'
p15
(tsS'components'
p16
(tsS'anchors'
p17
(tsssS'org.robofab.postScriptHintData'
p18
(dp19
s."
LayerCount: 2
Fore
SplineSet
445 465 m 0
 351 465 289 528 289 627 c 0
 289 722 351 783 445 783 c 0
 537 783 598 722 598 627 c 0
 598 528 537 465 445 465 c 0
EndSplineSet
EndChar

StartChar: perthousand
Encoding: 8240 8240 311
Width: 2956
VWidth: 0
GlyphClass: 2
Flags: HW
PickledData: "(dp1
S'org.pippin.gimp.org.kernagic'
p2
(dp3
S'lstem'
p4
I0
sS'rstem'
p5
I0
ssS'com.typemytype.robofont.layerData'
p6
(dp7
S'b'
(dp8
S'name'
p9
S'perthousand'
p10
sS'lib'
p11
(dp12
sS'unicodes'
p13
(tsS'width'
p14
I2251
sS'contours'
p15
(tsS'components'
p16
(tsS'anchors'
p17
(tsssS'org.robofab.postScriptHintData'
p18
(dp19
s."
LayerCount: 2
Fore
SplineSet
2474 140 m 0
 2599 140 2663 248 2663 382 c 0
 2663 521 2598 620 2474 620 c 0
 2347 620 2280 516 2280 382 c 0
 2280 245 2347 140 2474 140 c 0
2470 -28 m 0
 2225 -28 2082 151 2082 380 c 0
 2082 607 2229 781 2470 781 c 0
 2715 781 2859 611 2859 380 c 0
 2859 151 2712 -28 2470 -28 c 0
EndSplineSet
Refer: 308 37 N 1 0 0 1 38 0 2
EndChar

StartChar: pi
Encoding: 960 960 312
Width: 1477
VWidth: 0
GlyphClass: 2
Flags: HW
PickledData: "(dp1
S'org.robofab.postScriptHintData'
p2
(dp3
sS'com.typemytype.robofont.layerData'
p4
(dp5
s."
LayerCount: 2
Fore
SplineSet
1147 -13 m 0
 1010 -13 904 32 904 211 c 0
 904 342 935 660 973 861 c 1
 637 861 l 1
 611 323 l 2
 600 105 530 4 185 4 c 1
 185 111 l 1
 257 111 391 172 419 388 c 2
 483 861 l 1
 400 861 l 2
 320 860 281 806 269 730 c 1
 173 730 l 1
 173 946 247 1082 484 1082 c 2
 1372 1082 l 1
 1372 861 l 1
 1136 861 l 1
 1122 656 1118 344 1118 238 c 0
 1118 169 1168 157 1225 157 c 0
 1266 157 1296 162 1324 172 c 1
 1324 44 l 1
 1290 11 1225 -13 1147 -13 c 0
EndSplineSet
EndChar

StartChar: plus
Encoding: 43 43 313
Width: 1175
VWidth: 0
GlyphClass: 2
Flags: HW
PickledData: "(dp1
S'org.pippin.gimp.org.kernagic'
p2
(dp3
S'lstem'
p4
I0
sS'rstem'
p5
I0
ssS'com.typemytype.robofont.layerData'
p6
(dp7
S'b'
(dp8
S'name'
p9
S'plus'
p10
sS'lib'
p11
(dp12
sS'unicodes'
p13
(tsS'width'
p14
I1136
sS'contours'
p15
(tsS'components'
p16
(tsS'anchors'
p17
(tsssS'org.robofab.postScriptHintData'
p18
(dp19
s."
LayerCount: 2
Fore
SplineSet
472 1211 m 1
 699 1211 l 1
 699 838 l 1
 1062 838 l 1
 1062 615 l 1
 699 615 l 1
 699 234 l 1
 471 234 l 1
 471 615 l 1
 107 615 l 1
 107 838 l 1
 472 838 l 1
 472 1211 l 1
EndSplineSet
EndChar

StartChar: plusminus
Encoding: 177 177 314
Width: 1136
VWidth: 0
GlyphClass: 2
Flags: HW
PickledData: "(dp1
S'org.pippin.gimp.org.kernagic'
p2
(dp3
S'lstem'
p4
I0
sS'rstem'
p5
I0
ssS'com.typemytype.robofont.layerData'
p6
(dp7
sS'org.robofab.postScriptHintData'
p8
(dp9
s."
LayerCount: 2
Fore
SplineSet
469 1198 m 1
 674 1198 l 1
 674 844 l 1
 1032 844 l 1
 1032 644 l 1
 674 644 l 1
 674 295 l 1
 469 295 l 1
 469 644 l 1
 109 644 l 1
 109 844 l 1
 469 844 l 1
 469 1198 l 1
105 179 m 1
 1041 179 l 1
 1041 0 l 1
 105 0 l 1
 105 179 l 1
EndSplineSet
EndChar

StartChar: product
Encoding: 8719 8719 315
Width: 1574
VWidth: 0
GlyphClass: 2
Flags: HW
PickledData: "(dp1
S'org.pippin.gimp.org.kernagic'
p2
(dp3
S'lstem'
p4
I0
sS'rstem'
p5
I0
ssS'com.typemytype.robofont.layerData'
p6
(dp7
S'b'
(dp8
S'name'
p9
S'product'
p10
sS'lib'
p11
(dp12
sS'unicodes'
p13
(tsS'width'
p14
I1533
sS'contours'
p15
(tsS'components'
p16
(tsS'anchors'
p17
(tsssS'org.robofab.postScriptHintData'
p18
(dp19
s."
LayerCount: 2
Fore
SplineSet
205 1527 m 1
 1375 1527 l 1
 1375 0 l 1
 1197 0 l 1
 1197 1367 l 1
 382 1367 l 1
 382 0 l 1
 205 0 l 1
 205 1527 l 1
EndSplineSet
EndChar

StartChar: q
Encoding: 113 113 316
Width: 1244
VWidth: 0
GlyphClass: 2
Flags: HW
PickledData: "(dp1
S'org.pippin.gimp.org.kernagic'
p2
(dp3
S'lstem'
p4
I0
sS'rstem'
p5
I0
ssS'com.typemytype.robofont.layerData'
p6
(dp7
sS'org.robofab.postScriptHintData'
p8
(dp9
s."
LayerCount: 2
Fore
SplineSet
809 -471 m 1
 809 -42 l 1
 813 101 l 1
 754 32 662 -20 541 -20 c 2
 539 -20 l 2
 239 -20 91 214 91 548 c 0
 91 868 244 1103 535 1103 c 0
 689 1103 783 1025 834 927 c 1
 842 1082 l 1
 1111 1082 l 1
 1111 -471 l 1
 809 -471 l 1
611 180 m 0
 706 180 770 219 810 272 c 1
 810 791 l 1
 766 863 692 902 601 902 c 0
 480 902 398 808 398 548 c 0
 398 265 489 180 611 180 c 0
EndSplineSet
EndChar

StartChar: question
Encoding: 63 63 317
Width: 1029
VWidth: 0
GlyphClass: 2
Flags: HW
PickledData: "(dp1
S'org.pippin.gimp.org.kernagic'
p2
(dp3
S'lstem'
p4
I0
sS'rstem'
p5
I0
ssS'com.typemytype.robofont.layerData'
p6
(dp7
sS'org.robofab.postScriptHintData'
p8
(dp9
s."
LayerCount: 2
Fore
SplineSet
325 483 m 1
 419 831 598 941 598 1103 c 0
 598 1201 549 1268 433 1268 c 0
 349 1268 254 1230 186 1191 c 1
 115 1403 l 1
 210 1492 361 1532 481 1532 c 0
 692 1532 880 1413 880 1185 c 0
 880 825 575 784 404 463 c 1
 325 483 l 1
367 -18 m 0
 273 -18 218 44 218 130 c 0
 218 217 273 277 367 277 c 0
 459 277 512 217 512 130 c 0
 512 43 459 -18 367 -18 c 0
EndSplineSet
EndChar

StartChar: quotedbl
Encoding: 34 34 319
Width: 818
VWidth: 0
GlyphClass: 2
Flags: HW
PickledData: "(dp1
S'org.robofab.postScriptHintData'
p2
(dp3
sS'com.typemytype.robofont.layerData'
p4
(dp5
s."
LayerCount: 2
Fore
SplineSet
179 936 m 1
 94 1549 l 1
 361 1549 l 1
 316 936 l 1
 179 936 l 1
551 936 m 1
 465 1549 l 1
 733 1549 l 1
 688 936 l 1
 551 936 l 1
EndSplineSet
EndChar

StartChar: quotedblbase
Encoding: 8222 8222 320
Width: 904
VWidth: 0
GlyphClass: 2
Flags: HW
PickledData: "(dp1
S'org.robofab.postScriptHintData'
p2
(dp3
s."
LayerCount: 2
Fore
SplineSet
106 -360 m 1
 147 147 l 1
 407 147 l 1
 289 -360 l 1
 106 -360 l 1
488 -360 m 1
 528 147 l 1
 791 147 l 1
 671 -360 l 1
 488 -360 l 1
EndSplineSet
EndChar

StartChar: quotedblleft
Encoding: 8220 8220 321
Width: 954
VWidth: 0
GlyphClass: 2
Flags: HW
PickledData: "(dp1
S'org.robofab.postScriptHintData'
p2
(dp3
sS'com.typemytype.robofont.layerData'
p4
(dp5
s."
LayerCount: 2
Fore
SplineSet
128 1029 m 1
 247 1539 l 1
 434 1539 l 1
 395 1029 l 1
 128 1029 l 1
532 1029 m 1
 651 1539 l 1
 838 1539 l 1
 799 1029 l 1
 532 1029 l 1
EndSplineSet
EndChar

StartChar: quotedblright
Encoding: 8221 8221 322
Width: 954
VWidth: 0
GlyphClass: 2
Flags: HW
PickledData: "(dp1
S'org.robofab.postScriptHintData'
p2
(dp3
sS'com.typemytype.robofont.layerData'
p4
(dp5
s."
LayerCount: 2
Fore
SplineSet
532 1029 m 1
 571 1539 l 1
 838 1539 l 1
 719 1029 l 1
 532 1029 l 1
128 1029 m 1
 167 1539 l 1
 434 1539 l 1
 315 1029 l 1
 128 1029 l 1
EndSplineSet
EndChar

StartChar: quoteleft
Encoding: 8216 8216 323
Width: 529
VWidth: 0
GlyphClass: 2
Flags: HW
PickledData: "(dp1
S'org.robofab.postScriptHintData'
p2
(dp3
sS'com.typemytype.robofont.layerData'
p4
(dp5
s."
LayerCount: 2
Fore
SplineSet
434 1539 m 1
 395 1029 l 1
 128 1029 l 1
 247 1539 l 1
 434 1539 l 1
EndSplineSet
EndChar

StartChar: quoteright
Encoding: 8217 8217 324
Width: 529
VWidth: 0
GlyphClass: 2
Flags: HW
PickledData: "(dp1
S'org.robofab.postScriptHintData'
p2
(dp3
sS'com.typemytype.robofont.layerData'
p4
(dp5
s."
LayerCount: 2
Fore
SplineSet
128 1029 m 1
 167 1539 l 1
 434 1539 l 1
 315 1029 l 1
 128 1029 l 1
EndSplineSet
EndChar

StartChar: quotesinglbase
Encoding: 8218 8218 325
Width: 505
VWidth: 0
GlyphClass: 2
Flags: HW
PickledData: "(dp1
S'org.robofab.postScriptHintData'
p2
(dp3
s."
LayerCount: 2
Fore
SplineSet
102 -360 m 1
 144 147 l 1
 407 147 l 1
 286 -360 l 1
 102 -360 l 1
EndSplineSet
EndChar

StartChar: quotesingle
Encoding: 39 39 326
Width: 568
VWidth: 0
GlyphClass: 2
Flags: HW
PickledData: "(dp1
S'org.robofab.postScriptHintData'
p2
(dp3
s."
LayerCount: 2
Fore
SplineSet
211 921 m 1
 130 1539 l 1
 395 1539 l 1
 353 921 l 1
 211 921 l 1
EndSplineSet
EndChar

StartChar: r
Encoding: 114 114 327
Width: 847
VWidth: 0
GlyphClass: 2
Flags: HW
PickledData: "(dp1
S'org.pippin.gimp.org.kernagic'
p2
(dp3
S'lstem'
p4
I0
sS'rstem'
p5
I352
ssS'com.typemytype.robofont.layerData'
p6
(dp7
sS'com.fontlab.hintData'
p8
(dp9
S'vhints'
p10
((dp11
S'position'
p12
I193
sS'width'
p13
I122
s(dp14
g12
I193
sg13
I92
stp15
sS'hhints'
p16
((dp17
g12
I974
sg13
I94
stp18
ssS'org.robofab.postScriptHintData'
p19
(dp20
s."
HStem: 974 94
VStem: 193 122 193 92
AnchorPoint: "bot" 340 0 basechar 0
AnchorPoint: "top" 434 1082 basechar 0
LayerCount: 2
Fore
SplineSet
134 0 m 1
 134 1082 l 1
 398 1082 l 1
 416 894 l 1
 481 1037 594 1090 695 1090 c 0
 724 1090 768 1088 814 1080 c 1
 795 854 l 1
 742 859 l 2
 734 860 725 860 717 860 c 0
 561 860 441 763 441 610 c 2
 441 0 l 1
 134 0 l 1
EndSplineSet
EndChar

StartChar: radical
Encoding: 8730 8730 329
Width: 1313
VWidth: 0
GlyphClass: 2
Flags: HW
PickledData: "(dp1
S'org.pippin.gimp.org.kernagic'
p2
(dp3
S'lstem'
p4
I0
sS'rstem'
p5
I0
ssS'com.typemytype.robofont.layerData'
p6
(dp7
S'b'
(dp8
S'name'
p9
S'radical'
p10
sS'lib'
p11
(dp12
sS'unicodes'
p13
(tsS'width'
p14
I1136
sS'contours'
p15
(tsS'components'
p16
(tsS'anchors'
p17
(tsssS'org.robofab.postScriptHintData'
p18
(dp19
s."
LayerCount: 2
Fore
SplineSet
1034 1613 m 1
 1281 1613 l 1
 787 -166 l 1
 535 -166 l 1
 194 768 l 1
 51 730 l 1
 25 854 l 1
 346 945 l 1
 438 678 534 416 620 144 c 1
 664 330 990 1427 1034 1613 c 1
EndSplineSet
EndChar

StartChar: registered
Encoding: 174 174 332
Width: 1887
VWidth: 0
GlyphClass: 2
Flags: HW
PickledData: "(dp1
S'org.pippin.gimp.org.kernagic'
p2
(dp3
S'lstem'
p4
I0
sS'rstem'
p5
I0
ssS'com.typemytype.robofont.layerData'
p6
(dp7
sS'org.robofab.postScriptHintData'
p8
(dp9
s."
LayerCount: 2
Fore
SplineSet
610 314 m 1
 610 1193 l 1
 900 1193 l 2
 1112 1193 1241 1146 1241 952 c 0
 1241 828 1188 756 1042 722 c 1
 1048 715 1284 314 1284 314 c 1
 1103 314 l 1
 1103 314 883 707 880 711 c 1
 766 711 l 1
 766 314 l 1
 610 314 l 1
765 821 m 1
 886 821 l 2
 1027 821 1086 846 1086 946 c 0
 1086 1069 1029 1070 878 1070 c 2
 871 1070 l 1
 765 1070 l 1
 765 821 l 1
907 92 m 0
 1241 92 1526 354 1526 729 c 0
 1526 1102 1241 1364 907 1364 c 0
 573 1364 289 1102 289 729 c 0
 289 354 573 92 907 92 c 0
907 -45 m 0
 491 -45 134 273 134 729 c 0
 134 1184 491 1501 907 1501 c 0
 1322 1501 1680 1184 1680 729 c 0
 1680 273 1322 -45 907 -45 c 0
EndSplineSet
EndChar

StartChar: ring
Encoding: 730 730 333
Width: 785
VWidth: 0
GlyphClass: 4
Flags: HW
PickledData: "(dp1
S'org.robofab.postScriptHintData'
p2
(dp3
sS'com.typemytype.robofont.layerData'
p4
(dp5
s."
AnchorPoint: "top" 371 1076 mark 0
LayerCount: 2
Fore
SplineSet
373 1299 m 0
 433 1299 469 1348 469 1404 c 0
 469 1457 433 1509 373 1509 c 0
 315 1509 282 1457 282 1404 c 0
 282 1347 311 1299 373 1299 c 0
373 1193 m 0
 240 1193 157 1293 157 1405 c 0
 157 1518 239 1615 373 1615 c 0
 509 1615 592 1516 592 1405 c 0
 592 1293 507 1193 373 1193 c 0
EndSplineSet
EndChar

StartChar: s
Encoding: 115 115 334
Width: 1001
VWidth: 0
GlyphClass: 2
Flags: HW
PickledData: "(dp1
S'org.pippin.gimp.org.kernagic'
p2
(dp3
S'lstem'
p4
I168
sS'rstem'
p5
I620
ssS'com.typemytype.robofont.guides'
p6
((dp7
S'y'
I381
sS'x'
I77
sS'magnetic'
p8
I5
sS'angle'
p9
F90
sS'isGlobal'
p10
I00
stp11
sS'com.typemytype.robofont.layerData'
p12
(dp13
sS'com.fontlab.hintData'
p14
(dp15
S'vhints'
p16
((dp17
S'position'
p18
I142
sS'width'
p19
I107
s(dp20
g18
I738
sg19
I104
stp21
sS'hhints'
p22
((dp23
g18
I-19
sg19
I92
s(dp24
g18
I982
sg19
I92
stp25
ssS'org.robofab.postScriptHintData'
p26
(dp27
s."
HStem: -19 92 982 92
VStem: 142 107 738 104
AnchorPoint: "bot" 506 0 basechar 0
AnchorPoint: "top" 491 1082 basechar 0
LayerCount: 2
Fore
SplineSet
657 301 m 0
 657 349 635 386 508 430 c 2
 395 470 l 2
 176 548 101 639 101 790 c 0
 101 983 261 1103 514 1103 c 0
 694 1103 847 1048 927 919 c 1
 789 794 l 1
 776 794 l 1
 720 863 634 895 552 895 c 0
 466 895 418 860 418 798 c 0
 418 755 437 724 537 686 c 2
 678 629 l 2
 917 534 946 439 946 309 c 0
 945 90 751 -20 533 -20 c 0
 328 -20 170 44 64 180 c 1
 207 315 l 1
 232 315 l 1
 322 205 435 183 520 183 c 0
 612 183 657 231 657 301 c 0
EndSplineSet
EndChar

StartChar: section
Encoding: 167 167 340
Width: 1038
VWidth: 0
GlyphClass: 2
Flags: HW
PickledData: "(dp1
S'org.pippin.gimp.org.kernagic'
p2
(dp3
S'lstem'
p4
I0
sS'rstem'
p5
I0
ssS'com.typemytype.robofont.layerData'
p6
(dp7
S'b'
(dp8
S'name'
p9
S'section'
p10
sS'lib'
p11
(dp12
sS'unicodes'
p13
(tsS'width'
p14
I1079
sS'contours'
p15
(tsS'components'
p16
(tsS'anchors'
p17
(tsssS'org.robofab.postScriptHintData'
p18
(dp19
s."
LayerCount: 2
Fore
SplineSet
503 -20 m 0
 398 -20 273 13 176 63 c 1
 176 273 l 1
 253 230 387 180 497 180 c 0
 596 180 652 221 652 309 c 0
 652 365 614 404 423 479 c 0
 244 551 164 619 164 750 c 0
 164 837 221 912 294 970 c 1
 200 1037 154 1111 154 1214 c 0
 154 1450 349 1528 535 1528 c 0
 639 1528 763 1496 864 1433 c 1
 809 1266 l 1
 745 1300 647 1330 557 1330 c 0
 457 1330 404 1297 404 1232 c 0
 404 1174 422 1148 652 1056 c 0
 838 983 894 902 894 778 c 0
 894 674 850 606 789 551 c 1
 857 493 887 420 887 334 c 0
 887 76 723 -20 503 -20 c 0
664 624 m 1
 686 646 699 673 699 709 c 0
 699 756 666 800 564 842 c 0
 486 874 419 901 416 903 c 0
 388 889 363 854 363 811 c 0
 363 753 402 731 551 668 c 1
 599 653 654 628 664 624 c 1
EndSplineSet
EndChar

StartChar: semicolon
Encoding: 59 59 341
Width: 749
VWidth: 0
GlyphClass: 2
Flags: HW
PickledData: "(dp1
S'org.pippin.gimp.org.kernagic'
p2
(dp3
S'lstem'
p4
I0
sS'rstem'
p5
I0
ssS'com.typemytype.robofont.layerData'
p6
(dp7
sS'org.robofab.postScriptHintData'
p8
(dp9
s."
LayerCount: 2
Fore
SplineSet
217 -336 m 1
 217 -336 254 222 254 268 c 1
 517 268 l 1
 517 117 l 1
 396 -336 l 1
 217 -336 l 1
381 800 m 0
 291 800 222 854 222 951 c 0
 222 1049 290 1107 381 1107 c 0
 473 1107 538 1049 538 951 c 0
 538 856 473 800 381 800 c 0
EndSplineSet
EndChar

StartChar: seven
Encoding: 55 55 342
Width: 1343
VWidth: 0
GlyphClass: 2
Flags: HW
PickledData: "(dp1
S'org.pippin.gimp.org.kernagic'
p2
(dp3
S'lstem'
p4
I0
sS'rstem'
p5
I0
ssS'com.typemytype.robofont.layerData'
p6
(dp7
sS'org.robofab.postScriptHintData'
p8
(dp9
s."
LayerCount: 2
Fore
SplineSet
327 0 m 1
 833 1230 l 1
 192 1230 l 1
 180 1456 l 1
 1163 1456 l 1
 1167 1230 l 1
 659 0 l 1
 327 0 l 1
EndSplineSet
EndChar

StartChar: six
Encoding: 54 54 343
Width: 1343
VWidth: 0
GlyphClass: 2
Flags: HW
PickledData: "(dp1
S'org.pippin.gimp.org.kernagic'
p2
(dp3
S'lstem'
p4
I0
sS'rstem'
p5
I0
ssS'com.typemytype.robofont.layerData'
p6
(dp7
sS'org.robofab.postScriptHintData'
p8
(dp9
s."
LayerCount: 2
Fore
SplineSet
675 -20 m 0
 337 -20 142 189 142 462 c 0
 142 648 209 774 314 922 c 2
 689 1456 l 1
 1027 1456 l 1
 1027 1428 l 1
 880 1233 736 1036 584 846 c 1
 635 874 701 896 777 896 c 0
 991 896 1208 751 1208 447 c 0
 1208 175 1008 -20 675 -20 c 0
675 197 m 0
 816 197 899 306 899 455 c 0
 899 611 816 716 677 716 c 0
 559 716 450 630 450 453 c 0
 450 305 533 197 675 197 c 0
EndSplineSet
EndChar

StartChar: slash
Encoding: 47 47 344
Width: 1006
VWidth: 0
GlyphClass: 2
Flags: HW
PickledData: "(dp1
S'org.pippin.gimp.org.kernagic'
p2
(dp3
S'lstem'
p4
I0
sS'rstem'
p5
I0
ssS'com.typemytype.robofont.layerData'
p6
(dp7
S'b'
(dp8
S'name'
p9
S'slash'
p10
sS'lib'
p11
(dp12
sS'unicodes'
p13
(tsS'width'
p14
I965
sS'contours'
p15
(tsS'components'
p16
(tsS'anchors'
p17
(tsssS'org.robofab.postScriptHintData'
p18
(dp19
s."
LayerCount: 2
Fore
SplineSet
79 -172 m 1
 717 1560 l 1
 917 1560 l 1
 275 -172 l 1
 79 -172 l 1
EndSplineSet
EndChar

StartChar: slashbar
Encoding: 65543 -1 345
Width: 477
VWidth: 0
GlyphClass: 4
Flags: HW
PickledData: "(dp1
S'org.pippin.gimp.org.kernagic'
p2
(dp3
S'lstem'
p4
I0
sS'rstem'
p5
I0
ssS'com.typemytype.robofont.layerData'
p6
(dp7
S'b'
(dp8
S'name'
p9
S'slashbar'
p10
sS'lib'
p11
(dp12
sS'unicodes'
p13
(tsS'width'
p14
I908
sS'contours'
p15
(tsS'components'
p16
(tsS'anchors'
p17
(tsssS'org.robofab.postScriptHintData'
p18
(dp19
s."
AnchorPoint: "mid" 433 676 mark 0
LayerCount: 2
Fore
SplineSet
153 458 m 1
 153 668 l 1
 806 925 l 1
 806 714 l 1
 153 458 l 1
EndSplineSet
EndChar

StartChar: sterling
Encoding: 163 163 347
Width: 1197
VWidth: 0
GlyphClass: 2
Flags: HW
PickledData: "(dp1
S'org.pippin.gimp.org.kernagic'
p2
(dp3
S'lstem'
p4
I0
sS'rstem'
p5
I0
ssS'com.typemytype.robofont.layerData'
p6
(dp7
S'b'
(dp8
S'name'
p9
S'sterling'
p10
sS'lib'
p11
(dp12
sS'unicodes'
p13
(tsS'width'
p14
I1136
sS'contours'
p15
((dp16
S'points'
p17
((dp18
S'segmentType'
p19
S'line'
p20
sS'x'
I20
sS'smooth'
p21
I00
sS'y'
I0
s(dp22
g19
S'line'
p23
sS'x'
I8
sg21
I00
sS'y'
I115
s(dp24
g19
S'line'
p25
sS'x'
I180
sg21
I00
sS'y'
I132
s(dp26
g19
S'line'
p27
sS'x'
I180
sg21
I00
sS'y'
I683
s(dp28
g19
S'line'
p29
sS'x'
I8
sg21
I00
sS'y'
I683
s(dp30
g19
S'line'
p31
sS'x'
I8
sg21
I00
sS'y'
I806
s(dp32
g19
S'line'
p33
sS'x'
I180
sg21
I00
sS'y'
I806
s(dp34
g19
S'line'
p35
sS'x'
I180
sg21
I01
sS'y'
I920
s(dp36
S'y'
I1183
sS'x'
I180
sg21
I00
s(dp37
S'y'
I1476
sS'x'
I245
sg21
I00
s(dp38
g19
S'curve'
p39
sS'x'
I598
sg21
I01
sS'y'
I1476
s(dp40
S'y'
I1476
sS'x'
I742
sg21
I00
s(dp41
S'y'
I1421
sS'x'
I854
sg21
I00
s(dp42
g19
S'curve'
p43
sS'x'
I939
sg21
I00
sS'y'
I1347
s(dp44
g19
S'line'
p45
sS'x'
I871
sg21
I00
sS'y'
I1229
s(dp46
S'y'
I1297
sS'x'
I785
sg21
I00
s(dp47
S'y'
I1334
sS'x'
I700
sg21
I00
s(dp48
g19
S'curve'
p49
sS'x'
I598
sg21
I01
sS'y'
I1334
s(dp50
S'y'
I1334
sS'x'
I397
sg21
I00
s(dp51
S'y'
I1179
sS'x'
I356
sg21
I00
s(dp52
g19
S'curve'
p53
sS'x'
I356
sg21
I01
sS'y'
I949
s(dp54
g19
S'line'
p55
sS'x'
I356
sg21
I00
sS'y'
I806
s(dp56
g19
S'line'
p57
sS'x'
I739
sg21
I00
sS'y'
I806
s(dp58
g19
S'line'
p59
sS'x'
I739
sg21
I00
sS'y'
I683
s(dp60
g19
S'line'
p61
sS'x'
I356
sg21
I00
sS'y'
I683
s(dp62
g19
S'line'
p63
sS'x'
I356
sg21
I00
sS'y'
I134
s(dp64
g19
S'line'
p65
sS'x'
I953
sg21
I00
sS'y'
I134
s(dp66
g19
S'line'
p67
sS'x'
I940
sg21
I00
sS'y'
I0
stp68
stp69
sS'components'
p70
(tsS'anchors'
p71
(tsssS'org.robofab.postScriptHintData'
p72
(dp73
s."
LayerCount: 2
Fore
SplineSet
575 1016 m 2
 575 853 l 1
 903 853 l 1
 903 670 l 1
 575 670 l 1
 575 219 l 1
 1102 219 l 1
 1095 0 l 1
 99 0 l 1
 88 196 l 1
 264 217 l 1
 264 670 l 1
 81 670 l 1
 81 853 l 1
 264 853 l 1
 264 973 l 2
 264 1302 379 1532 720 1532 c 0
 932 1532 1069 1440 1112 1402 c 1
 1012 1216 l 1
 992 1216 l 1
 921 1258 857 1287 783 1287 c 0
 650 1287 575 1197 575 1016 c 2
EndSplineSet
EndChar

StartChar: summation
Encoding: 8721 8721 348
Width: 1159
VWidth: 0
GlyphClass: 2
Flags: HW
PickledData: "(dp1
S'org.pippin.gimp.org.kernagic'
p2
(dp3
S'lstem'
p4
I0
sS'rstem'
p5
I0
ssS'com.typemytype.robofont.layerData'
p6
(dp7
S'b'
(dp8
S'name'
p9
S'summation'
p10
sS'lib'
p11
(dp12
sS'unicodes'
p13
(tsS'width'
p14
I1050
sS'contours'
p15
(tsS'components'
p16
(tsS'anchors'
p17
(tsssS'org.robofab.postScriptHintData'
p18
(dp19
s."
LayerCount: 2
Fore
SplineSet
76 1456 m 1
 1071 1456 l 1
 1071 1224 l 1
 450 1224 l 1
 884 601 l 1
 397 -13 l 1
 1108 -13 l 1
 1108 -251 l 1
 66 -251 l 1
 66 -66 l 1
 565 590 l 1
 76 1266 l 1
 76 1456 l 1
EndSplineSet
EndChar

StartChar: t
Encoding: 116 116 349
Width: 867
VWidth: 0
GlyphClass: 2
Flags: HW
PickledData: "(dp1
S'org.pippin.gimp.org.kernagic'
p2
(dp3
S'lstem'
p4
I189
sS'rstem'
p5
I480
ssS'com.typemytype.robofont.layerData'
p6
(dp7
sS'com.fontlab.hintData'
p8
(dp9
S'vhints'
p10
((dp11
S'position'
p12
I244
sS'width'
p13
I122
s(dp14
g12
I286
sg13
I80
stp15
sS'hhints'
p16
((dp17
g12
I-11
sg13
I83
stp18
ssS'org.robofab.postScriptHintData'
p19
(dp20
s."
HStem: -11 83
VStem: 244 122 286 80
AnchorPoint: "mid" 378 691 basechar 0
AnchorPoint: "bot" 503 0 basechar 0
AnchorPoint: "top" 400 1339 basechar 0
LayerCount: 2
Fore
SplineSet
622 -9 m 1
 257 -9 206 120 206 395 c 2
 206 905 l 1
 41 905 l 1
 48 1067 l 1
 214 1084 l 1
 235 1388 l 1
 508 1409 l 1
 508 1082 l 1
 796 1082 l 1
 796 905 l 1
 508 905 l 1
 508 386 l 2
 508 252 534 208 667 202 c 2
 811 196 l 1
 802 -4 l 1
 622 -9 l 1
EndSplineSet
EndChar

StartChar: thorn
Encoding: 254 254 354
Width: 1141
VWidth: 0
GlyphClass: 2
Flags: HW
PickledData: "(dp1
S'org.pippin.gimp.org.kernagic'
p2
(dp3
S'lstem'
p4
I0
sS'rstem'
p5
I0
ssS'com.typemytype.robofont.layerData'
p6
(dp7
S'b'
(dp8
S'name'
p9
S'thorn'
p10
sS'lib'
p11
(dp12
sS'unicodes'
p13
(tsS'width'
p14
I1221
sS'contours'
p15
(tsS'components'
p16
(tsS'anchors'
p17
(tsssS'org.robofab.postScriptHintData'
p18
(dp19
s."
LayerCount: 2
Fore
SplineSet
164 507 m 1
 465 507 l 1
 465 -437 l 1
 164 -437 l 1
 164 507 l 1
EndSplineSet
Refer: 154 98 N 1 0 0 1 26 0 2
EndChar

StartChar: three
Encoding: 51 51 355
Width: 1231
VWidth: 0
GlyphClass: 2
Flags: HW
PickledData: "(dp1
S'org.pippin.gimp.org.kernagic'
p2
(dp3
S'lstem'
p4
I0
sS'rstem'
p5
I0
ssS'com.typemytype.robofont.layerData'
p6
(dp7
sS'org.robofab.postScriptHintData'
p8
(dp9
s."
LayerCount: 2
Fore
SplineSet
576 -20 m 0
 321 -20 144 112 95 195 c 1
 226 351 l 1
 249 351 l 1
 311 272 425 214 554 214 c 0
 701 214 782 289 782 420 c 0
 782 603 649 642 433 642 c 2
 355 642 l 1
 333 836 l 1
 430 837 l 2
 625 837 758 870 758 1053 c 0
 756 1176 688 1239 550 1239 c 0
 442 1238 348 1199 266 1101 c 1
 246 1105 l 1
 102 1253 l 1
 186 1384 358 1476 568 1476 c 0
 857 1476 1059 1352 1062 1091 c 0
 1062 950 1004 798 768 759 c 1
 1017 730 1104 565 1104 406 c 0
 1104 114 850 -20 576 -20 c 0
EndSplineSet
EndChar

StartChar: threequarters
Encoding: 190 190 356
Width: 1727
VWidth: 0
GlyphClass: 2
Flags: HW
PickledData: "(dp1
S'org.pippin.gimp.org.kernagic'
p2
(dp3
S'lstem'
p4
I0
sS'rstem'
p5
I0
ssS'com.typemytype.robofont.layerData'
p6
(dp7
sS'org.robofab.postScriptHintData'
p8
(dp9
s."
LayerCount: 2
Fore
SplineSet
370 580 m 0
 278 580 182 605 102 652 c 1
 160 785 l 1
 216 745 294 721 365 721 c 0
 456 721 534 760 534 855 c 0
 534 936 485 986 367 986 c 2
 363 986 l 1
 251 984 l 1
 251 1121 l 1
 364 1121 l 2
 486 1121 514 1161 514 1227 c 0
 514 1301 455 1335 374 1335 c 0
 312 1335 236 1315 165 1275 c 1
 109 1391 l 1
 190 1444 299 1474 401 1474 c 0
 548 1474 679 1409 679 1248 c 0
 677 1172 645 1080 540 1059 c 1
 642 1036 697 947 697 851 c 0
 697 667 543 580 370 580 c 0
1456 0 m 1
 1456 181 l 1
 1081 181 l 1
 1081 319 l 1
 1446 871 l 1
 1618 871 l 1
 1618 318 l 1
 1731 318 l 1
 1721 181 l 1
 1619 181 l 1
 1619 0 l 1
 1456 0 l 1
415 0 m 1
 1393 1499 l 1
 1586 1499 l 1
 615 0 l 1
 415 0 l 1
1259 318 m 1
 1457 318 l 1
 1457 655 l 1
 1259 318 l 1
EndSplineSet
EndChar

StartChar: tilde
Encoding: 732 732 357
Width: 977
VWidth: 0
GlyphClass: 4
Flags: HW
PickledData: "(dp1
S'org.robofab.postScriptHintData'
p2
(dp3
sS'com.typemytype.robofont.layerData'
p4
(dp5
sS'com.fontlab.hintData'
p6
(dp7
S'vhints'
p8
((dp9
S'position'
p10
I169
sS'width'
p11
I63
s(dp12
g10
I657
sg11
I67
stp13
sS'hhints'
p14
((dp15
g10
I1301
sg11
I88
s(dp16
g10
I1400
sg11
I79
stp17
ss."
HStem: 1301 88 1400 79
VStem: 169 63 657 67
AnchorPoint: "top" 488 1076 mark 0
LayerCount: 2
Fore
SplineSet
155 1267 m 1
 155 1393 206 1520 353 1520 c 0
 487 1520 577 1436 635 1436 c 0
 663 1436 683 1457 697 1519 c 1
 825 1519 l 1
 825 1399 776 1267 639 1267 c 0
 528 1267 424 1366 356 1366 c 0
 321 1366 297 1339 282 1267 c 1
 155 1267 l 1
EndSplineSet
EndChar

StartChar: trademark
Encoding: 8482 8482 358
Width: 2095
VWidth: 0
GlyphClass: 2
Flags: HW
PickledData: "(dp1
S'org.robofab.postScriptHintData'
p2
(dp3
sS'com.typemytype.robofont.layerData'
p4
(dp5
S'b'
(dp6
S'name'
p7
S'trademark'
p8
sS'lib'
p9
(dp10
sS'unicodes'
p11
(tsS'width'
p12
I2216
sS'contours'
p13
(tsS'components'
p14
(tsS'anchors'
p15
(tsss."
LayerCount: 2
Fore
SplineSet
926 521 m 1
 945 1456 l 1
 1137 1456 l 1
 1428 853 l 1
 1718 1456 l 1
 1909 1456 l 1
 1928 521 l 1
 1752 521 l 1
 1737 1139 l 1
 1478 609 l 1
 1376 609 l 1
 1118 1142 l 1
 1103 521 l 1
 926 521 l 1
356 521 m 1
 356 1309 l 1
 84 1309 l 1
 84 1456 l 1
 817 1456 l 1
 817 1309 l 1
 545 1309 l 1
 545 521 l 1
 356 521 l 1
EndSplineSet
EndChar

StartChar: two
Encoding: 50 50 359
Width: 1343
VWidth: 0
GlyphClass: 2
Flags: HW
PickledData: "(dp1
S'org.pippin.gimp.org.kernagic'
p2
(dp3
S'lstem'
p4
I0
sS'rstem'
p5
I0
ssS'com.typemytype.robofont.layerData'
p6
(dp7
sS'org.robofab.postScriptHintData'
p8
(dp9
s."
LayerCount: 2
Fore
SplineSet
296 1075 m 1
 272 1075 l 1
 128 1231 l 1
 235 1358 419 1476 650 1476 c 0
 1005 1476 1159 1266 1159 1027 c 0
 1159 872 1088 746 889 557 c 2
 534 220 l 1
 1146 220 l 1
 1137 0 l 1
 221 0 l 1
 173 216 l 1
 714 749 l 2
 820 853 868 924 868 1031 c 0
 868 1166 770 1242 647 1242 c 0
 516 1242 380 1175 296 1075 c 1
EndSplineSet
EndChar

StartChar: u
Encoding: 117 117 360
Width: 1246
VWidth: 0
GlyphClass: 2
Flags: HW
PickledData: "(dp1
S'org.pippin.gimp.org.kernagic'
p2
(dp3
S'lstem'
p4
I0
sS'rstem'
p5
I0
ssS'com.typemytype.robofont.layerData'
p6
(dp7
sS'com.fontlab.hintData'
p8
(dp9
S'vhints'
p10
((dp11
S'position'
p12
I162
sS'width'
p13
I166
s(dp14
g12
I862
sg13
I166
stp15
sS'hhints'
p16
((dp17
g12
I-21
sg13
I126
stp18
ssS'org.robofab.postScriptHintData'
p19
(dp20
s."
HStem: -21 126
VStem: 162 166 862 166
AnchorPoint: "bot" 616 0 basechar 0
AnchorPoint: "ogonek" 978 0 basechar 0
AnchorPoint: "top" 628 1082 basechar 0
LayerCount: 2
Fore
SplineSet
801 285 m 1
 801 1082 l 1
 1108 1082 l 1
 1108 0 l 1
 844 0 l 1
 829 152 l 1
 769 58 670 -20 503 -20 c 0
 256 -20 127 136 127 407 c 2
 127 1082 l 1
 433 1082 l 1
 433 440 l 2
 433 251 483 180 599 180 c 0
 706 180 767 239 801 285 c 1
EndSplineSet
EndChar

StartChar: underscore
Encoding: 95 95 368
Width: 973
VWidth: 0
GlyphClass: 2
Flags: HW
PickledData: "(dp1
S'org.pippin.gimp.org.kernagic'
p2
(dp3
S'lstem'
p4
I0
sS'rstem'
p5
I0
ssS'com.typemytype.robofont.layerData'
p6
(dp7
sS'org.robofab.postScriptHintData'
p8
(dp9
s."
LayerCount: 2
Fore
SplineSet
0 -280 m 1
 0 -102 l 1
 973 -102 l 1
 973 -280 l 1
 0 -280 l 1
EndSplineSet
EndChar

StartChar: uni00AD
Encoding: 173 173 371
Width: 1006
VWidth: 0
GlyphClass: 2
Flags: HW
PickledData: "(dp1
S'org.robofab.postScriptHintData'
p2
(dp3
s."
LayerCount: 2
Fore
SplineSet
172 210 m 1
 172 417 l 1
 826 417 l 1
 826 210 l 1
 172 210 l 1
EndSplineSet
EndChar

StartChar: uni00B2
Encoding: 178 178 372
Width: 828
VWidth: 0
GlyphClass: 2
Flags: HW
PickledData: "(dp1
S'org.robofab.postScriptHintData'
p2
(dp3
sS'com.typemytype.robofont.layerData'
p4
(dp5
s."
LayerCount: 2
Fore
SplineSet
155 610 m 1
 155 752 l 1
 252 851 278 838 458 1038 c 1
 489 1081 545 1159 545 1201 c 0
 545 1280 485 1330 423 1330 c 0
 344 1330 270 1296 225 1235 c 1
 149 1354 l 1
 214 1443 313 1485 442 1485 c 0
 579 1485 717 1384 717 1205 c 0
 717 1093 667 988 592 911 c 0
 497 817 536 866 412 753 c 1
 716 753 l 1
 700 610 l 1
 155 610 l 1
EndSplineSet
EndChar

StartChar: uni00B3
Encoding: 179 179 373
Width: 881
VWidth: 0
GlyphClass: 2
Flags: HW
PickledData: "(dp1
S'org.robofab.postScriptHintData'
p2
(dp3
sS'com.typemytype.robofont.layerData'
p4
(dp5
s."
LayerCount: 2
Fore
SplineSet
432 593 m 0
 334 593 232 619 153 670 c 1
 212 800 l 1
 264 756 344 728 426 728 c 0
 523 728 607 771 607 865 c 0
 607 944 555 999 436 999 c 2
 430 999 l 1
 312 998 l 1
 312 1128 l 1
 432 1128 l 2
 565 1128 589 1171 589 1237 c 0
 589 1315 523 1348 437 1348 c 0
 363 1348 284 1325 218 1283 c 1
 162 1394 l 1
 243 1449 357 1482 468 1482 c 0
 616 1482 748 1419 748 1255 c 0
 746 1170 708 1087 606 1067 c 1
 705 1047 763 958 763 858 c 0
 763 679 608 593 432 593 c 0
EndSplineSet
EndChar

StartChar: uni00B5
Encoding: 181 181 374
Width: 1230
VWidth: 0
GlyphClass: 2
Flags: HW
PickledData: "(dp1
S'org.robofab.postScriptHintData'
p2
(dp3
sS'com.typemytype.robofont.layerData'
p4
(dp5
s."
LayerCount: 2
Fore
SplineSet
801 285 m 1
 767 239 706 180 599 180 c 0
 483 180 433 251 433 440 c 2
 433 1082 l 1
 127 1082 l 1
 127 -316 l 1
 433 -316 l 1
 433 -15.4363640384 l 1
 455.165432779 -18.4654544758 478.502343403 -20 503 -20 c 0
 670 -20 769 58 829 152 c 1
 844 0 l 1
 1108 0 l 1
 1108 1082 l 1
 801 1082 l 1
 801 285 l 1
EndSplineSet
EndChar

StartChar: uni00B9
Encoding: 185 185 375
Width: 865
VWidth: 0
GlyphClass: 2
Flags: HW
PickledData: "(dp1
S'org.robofab.postScriptHintData'
p2
(dp3
sS'com.typemytype.robofont.layerData'
p4
(dp5
s."
LayerCount: 2
Fore
SplineSet
244 577 m 1
 244 732 l 1
 388 732 l 1
 388 1274 l 1
 351 1255 238 1199 230 1199 c 1
 230 1354 l 1
 280 1379 403 1449 432 1467 c 1
 577 1467 l 1
 577 732 l 1
 723 732 l 1
 723 577 l 1
 244 577 l 1
EndSplineSet
EndChar

StartChar: uni02C9
Encoding: 713 713 444
Width: 600
VWidth: 0
GlyphClass: 4
Flags: HW
PickledData: "(dp1
S'org.robofab.postScriptHintData'
p2
(dp3
s."
AnchorPoint: "top" 295 1076 mark 0
LayerCount: 2
Fore
SplineSet
-50 1339 m 1
 -50 1506 l 1
 636 1506 l 1
 636 1339 l 1
 -50 1339 l 1
EndSplineSet
EndChar

StartChar: uni0307
Encoding: 775 775 445
Width: 576
VWidth: 0
GlyphClass: 2
Flags: HW
PickledData: "(dp1
S'org.robofab.postScriptHintData'
p2
(dp3
sS'com.typemytype.robofont.layerData'
p4
(dp5
s."
LayerCount: 2
Fore
SplineSet
463 1455 m 0
 463 1354 398 1292 292 1292 c 0
 185 1292 119 1354 119 1455 c 0
 119 1551 185 1611 292 1611 c 0
 398 1611 463 1551 463 1455 c 0
EndSplineSet
EndChar

StartChar: uni2074
Encoding: 8308 8308 464
Width: 692
VWidth: 0
GlyphClass: 2
Flags: HW
PickledData: "(dp1
S'org.robofab.postScriptHintData'
p2
(dp3
sS'com.typemytype.robofont.layerData'
p4
(dp5
s."
LayerCount: 2
Fore
SplineSet
365 594 m 1
 365 781 l 1
 4 781 l 1
 4 922 l 1
 356 1468 l 1
 524 1468 l 1
 524 914 l 1
 639 914 l 1
 625 781 l 1
 524 781 l 1
 524 594 l 1
 365 594 l 1
178 914 m 1
 366 914 l 1
 366 1256 l 1
 178 914 l 1
EndSplineSet
EndChar

StartChar: uni2113
Encoding: 8467 8467 465
Width: 1318
VWidth: 0
GlyphClass: 2
Flags: HW
PickledData: "(dp1
S'org.robofab.postScriptHintData'
p2
(dp3
s."
LayerCount: 2
Fore
SplineSet
728 873 m 1
 888 1011 l 2
 1035 1138 1108 1272 1108 1363 c 0
 1108 1430 1068 1473 990 1473 c 0
 878 1473 825 1279 805 1200 c 2
 728 873 l 1
293 294 m 0
 293 345 299 402 314 466 c 1
 125 334 l 1
 70 441 l 1
 370 661 l 1
 569 1396 l 2
 629 1615 791 1702 951 1702 c 0
 1136 1702 1316 1583 1316 1356 c 0
 1316 1146 1215 1051 963 865 c 2
 675 652 l 1
 617 417 l 2
 607 378 603 345 603 318 c 0
 603 236 644 202 717 201 c 0
 794 201 890 233 992 278 c 1
 1020 98 l 1
 1020 98 850 -20 588 -20 c 0
 413 -20 293 79 293 294 c 0
EndSplineSet
EndChar

StartChar: uni2206
Encoding: 8710 8710 467
Width: 1317
VWidth: 0
GlyphClass: 2
Flags: HW
PickledData: "(dp1
S'org.pippin.gimp.org.kernagic'
p2
(dp3
S'lstem'
p4
I0
sS'rstem'
p5
I0
ssS'com.typemytype.robofont.layerData'
p6
(dp7
S'b'
(dp8
S'name'
p9
S'uni2206'
p10
sS'lib'
p11
(dp12
sS'unicodes'
p13
(tsS'width'
p14
I1278
sS'contours'
p15
(tsS'components'
p16
(tsS'anchors'
p17
(tsssS'org.robofab.postScriptHintData'
p18
(dp19
s."
LayerCount: 2
Fore
SplineSet
566 1575 m 1
 757 1575 l 1
 1252 88 l 1
 1252 0 l 1
 70 0 l 1
 70 88 l 1
 566 1575 l 1
692 1220 m 1
 658 1342 l 1
 624 1220 l 1
 272 177 l 1
 1050 177 l 1
 692 1220 l 1
EndSplineSet
EndChar

StartChar: v
Encoding: 118 118 478
Width: 1095
VWidth: 0
GlyphClass: 2
Flags: HW
PickledData: "(dp1
S'org.pippin.gimp.org.kernagic'
p2
(dp3
S'lstem'
p4
I0
sS'rstem'
p5
I0
ssS'com.typemytype.robofont.guides'
p6
((dp7
S'y'
I552
sS'x'
I438
sS'magnetic'
p8
I5
sS'angle'
p9
I0
sS'isGlobal'
p10
I00
stp11
sS'com.typemytype.robofont.layerData'
p12
(dp13
sS'org.robofab.postScriptHintData'
p14
(dp15
s."
LayerCount: 2
Fore
SplineSet
400 0 m 1
 22 1082 l 1
 336 1082 l 1
 564 326 l 1
 628 582 699 831 767 1082 c 1
 1074 1082 l 1
 705 0 l 1
 400 0 l 1
EndSplineSet
EndChar

StartChar: w
Encoding: 119 119 479
Width: 1527
VWidth: 0
GlyphClass: 2
Flags: HW
PickledData: "(dp1
S'org.pippin.gimp.org.kernagic'
p2
(dp3
S'lstem'
p4
I0
sS'rstem'
p5
I0
ssS'com.typemytype.robofont.layerData'
p6
(dp7
sS'org.robofab.postScriptHintData'
p8
(dp9
s."
AnchorPoint: "top" 776 1082 basechar 0
LayerCount: 2
Fore
SplineSet
776 787 m 1
 550 -4 l 1
 277 -4 l 1
 9 1082 l 1
 292 1082 l 1
 433 297 l 1
 636 1082 l 1
 916 1082 l 1
 1104 305 l 1
 1253 1082 l 1
 1516 1082 l 1
 1246 -4 l 1
 962 -4 l 1
 776 787 l 1
EndSplineSet
EndChar

StartChar: x
Encoding: 120 120 484
Width: 1086
VWidth: 0
GlyphClass: 2
Flags: HW
PickledData: "(dp1
S'org.pippin.gimp.org.kernagic'
p2
(dp3
S'lstem'
p4
I0
sS'rstem'
p5
I0
ssS'com.typemytype.robofont.layerData'
p6
(dp7
sS'com.fontlab.hintData'
p8
(dp9
S'hhints'
p10
((dp11
S'position'
p12
I0
sS'width'
p13
I22
s(dp14
g12
I1034
sg13
I21
stp15
ssS'org.robofab.postScriptHintData'
p16
(dp17
s."
HStem: 0 22 1034 21
LayerCount: 2
Fore
SplineSet
711 546 m 1
 1075 -4 l 1
 748 -4 l 1
 532 324 l 1
 304 -4 l 1
 13 -4 l 1
 386 545 l 1
 32 1082 l 1
 356 1082 l 1
 564 767 l 1
 771 1082 l 1
 1058 1082 l 1
 711 546 l 1
EndSplineSet
EndChar

StartChar: y
Encoding: 121 121 485
Width: 1134
VWidth: 0
GlyphClass: 2
Flags: HW
PickledData: "(dp1
S'org.pippin.gimp.org.kernagic'
p2
(dp3
S'lstem'
p4
I0
sS'rstem'
p5
I0
ssS'com.typemytype.robofont.layerData'
p6
(dp7
sS'org.robofab.postScriptHintData'
p8
(dp9
s."
AnchorPoint: "top" 561 1082 basechar 0
LayerCount: 2
Fore
SplineSet
1131 1082 m 1
 472 -441 l 1
 225 -351 l 1
 427 120 l 1
 -9 1082 l 1
 293 1082 l 1
 577 412 l 1
 846 1082 l 1
 1131 1082 l 1
EndSplineSet
EndChar

StartChar: yen
Encoding: 165 165 489
Width: 1353
VWidth: 0
GlyphClass: 2
Flags: HW
PickledData: "(dp1
S'org.pippin.gimp.org.kernagic'
p2
(dp3
S'lstem'
p4
I0
sS'rstem'
p5
I0
ssS'com.typemytype.robofont.layerData'
p6
(dp7
S'b'
(dp8
S'name'
p9
S'yen'
p10
sS'lib'
p11
(dp12
sS'unicodes'
p13
(tsS'width'
p14
I1366
sS'contours'
p15
(tsS'components'
p16
(tsS'anchors'
p17
(tsssS'org.robofab.postScriptHintData'
p18
(dp19
s."
LayerCount: 2
Fore
SplineSet
207 526 m 1
 207 659 l 1
 456.84368071 659 l 1
 23 1456 l 1
 358 1456 l 1
 675 853 l 1
 992 1456 l 1
 1330 1456 l 1
 894.306666667 659 l 1
 1119 659 l 1
 1119 526 l 1
 838 526 l 1
 838 376 l 1
 1119 376 l 1
 1119 244 l 1
 838 244 l 1
 838 0 l 1
 514 0 l 1
 514 244 l 1
 207 244 l 1
 207 376 l 1
 514 376 l 1
 514 526 l 1
 207 526 l 1
EndSplineSet
EndChar

StartChar: z
Encoding: 122 122 491
Width: 974
VWidth: 0
GlyphClass: 2
Flags: HW
PickledData: "(dp1
S'org.pippin.gimp.org.kernagic'
p2
(dp3
S'lstem'
p4
I0
sS'rstem'
p5
I0
ssS'com.typemytype.robofont.layerData'
p6
(dp7
sS'org.robofab.postScriptHintData'
p8
(dp9
s."
AnchorPoint: "bot" 500 0 basechar 0
AnchorPoint: "top" 486 1082 basechar 0
LayerCount: 2
Fore
SplineSet
86 1082 m 1
 897 1082 l 1
 897 910 l 1
 422 195 l 1
 916 195 l 1
 914 0 l 1
 76 0 l 1
 76 155 l 1
 568 895 l 1
 83 895 l 1
 86 1082 l 1
EndSplineSet
EndChar

StartChar: zero
Encoding: 48 48 495
Width: 1343
VWidth: 0
GlyphClass: 2
Flags: HW
PickledData: "(dp1
S'org.pippin.gimp.org.kernagic'
p2
(dp3
S'lstem'
p4
I0
sS'rstem'
p5
I0
ssS'com.typemytype.robofont.layerData'
p6
(dp7
S'b'
(dp8
S'name'
p9
S'zero'
p10
sS'lib'
p11
(dp12
sS'unicodes'
p13
(tsS'width'
p14
I1248
sS'contours'
p15
(tsS'components'
p16
(tsS'anchors'
p17
(tsssS'org.robofab.postScriptHintData'
p18
(dp19
s."
LayerCount: 2
Fore
SplineSet
673 216 m 0
 822 216 912 390 912 724 c 0
 912 1057 822 1239 673 1239 c 0
 526 1239 433 1047 430 723 c 0
 430 390 524 216 673 216 c 0
673 -20 m 0
 305 -20 96 266 96 722 c 0
 96 1182 311 1476 673 1476 c 0
 1035 1476 1247 1183 1247 722 c 0
 1247 266 1041 -20 673 -20 c 0
EndSplineSet
EndChar
